<svg xmlns="http://www.w3.org/2000/svg" viewBox="0 0 1434.97 257.49"><defs><style>.cls-1{fill:#024f7d;}</style></defs><title>Asset 13</title><g id="Layer_2" data-name="Layer 2"><g id="Layer_29" data-name="Layer 29"><g id="Layer_33" data-name="Layer 33"><path class="cls-1" d="M400.39,65.19c-2.39-2.24-6.5-2.08-6.5-2.08A19,19,0,0,0,401.36,59c2.39-2.35,2.77-7.48,2.77-7.48s-11.72,8.94-24.65,7.2c-2-.27-2.69-.66-5.81-1.66h0a92.24,92.24,0,0,0-15.14-3.91c1.88-1.73,2-2.65,1.84-3.16-.34-1-1.85-.54-3.32-1.8-1.85-1.58-1.48-4.12-2.49-4.15-.83,0-1.41,1.15-2.22,2.35A20.68,20.68,0,0,1,346.53,52c-13.39-.11-35.55,3.55-35.73,8.73S331.92,71.9,347.64,72c.8,0,1.62,0,2.44,0l-.51,0a21.31,21.31,0,0,0,2.22,5.54c.85,1.48,1.49,2.56,2.21,2.49,1.13-.1,1.89-2.92,1.94-5a9.66,9.66,0,0,0-.54-3.43c3.21-.3,6.38-.74,9.18-1.21l-.33.07a6,6,0,0,1,2.84,2c.68.9.53,1.43,1,1.66,1.09.49,2.09-1.66,5.19-2.77,1.3-.46,2.21-.47,2.36-1S375,69,374.22,68.37a26.37,26.37,0,0,1,5.68-1.45c11.54-1.25,21.74,5.88,21.74,5.88S402.52,67.17,400.39,65.19Z" transform="translate(0 0)"/><path class="cls-1" d="M458.71,107.07c-3.06-2.86-8.31-2.65-8.31-2.65A24.26,24.26,0,0,0,460,99.11c3.05-3,3.54-9.56,3.54-9.56S448.51,101,432,98.76c-2.56-.35-3.44-.85-7.43-2.13h0a118.33,118.33,0,0,0-19.34-5c2.4-2.22,2.58-3.39,2.35-4-.44-1.22-2.37-.7-4.25-2.3-2.37-2-1.89-5.27-3.18-5.31-1,0-1.8,1.47-2.83,3a26.58,26.58,0,0,1-7.43,7.25c-17.11-.14-45.42,4.53-45.65,11.15s27,14.24,47.06,14.33c1,0,2.07,0,3.13,0l-.65,0a27,27,0,0,0,2.83,7.08c1.09,1.89,1.91,3.27,2.83,3.18,1.44-.13,2.41-3.73,2.48-6.37a12.5,12.5,0,0,0-.69-4.38c4.1-.38,8.14-1,11.72-1.54l-.42.08a7.73,7.73,0,0,1,3.63,2.57c.87,1.16.67,1.83,1.33,2.12,1.4.63,2.66-2.12,6.63-3.54,1.66-.59,2.82-.6,3-1.32s-.86-1.74-1.86-2.48c3.1-1,4.47-1.56,7.26-1.86,14.74-1.6,27.78,7.52,27.78,7.52S461.43,109.6,458.71,107.07Z" transform="translate(0 0)"/><path class="cls-1" d="M831.29,135.15c-4.18-3.9-11.35-3.62-11.35-3.62s7.74-2,13-7.25c4.16-4.08,4.84-13,4.84-13s-20.45,15.6-43,12.56c-3.5-.47-4.7-1.15-10.15-2.9h0a161.79,161.79,0,0,0-26.4-6.81c3.27-3,3.53-4.62,3.21-5.51-.59-1.66-3.24-1-5.8-3.14-3.23-2.77-2.59-7.19-4.34-7.25-1.44,0-2.46,2-3.87,4.11a36.29,36.29,0,0,1-10.14,9.91c-23.35-.2-62,6.18-62.33,15.21s36.84,19.45,64.26,19.57c1.4,0,2.83,0,4.27-.06l-.89.06a36.63,36.63,0,0,0,3.86,9.66c1.5,2.59,2.61,4.47,3.87,4.35,2-.18,3.29-5.1,3.38-8.69a16.79,16.79,0,0,0-.94-6c5.6-.53,11.12-1.3,16-2.11l-.57.11a10.61,10.61,0,0,1,5,3.51c1.18,1.58.92,2.49,1.81,2.9,1.91.85,3.64-2.91,9.06-4.84,2.26-.8,3.84-.82,4.1-1.81s-1.16-2.38-2.53-3.38c4.22-1.3,6.1-2.12,9.9-2.54,20.13-2.18,37.93,10.27,37.93,10.27S835,138.61,831.29,135.15Z" transform="translate(0 0)"/><path class="cls-1" d="M1054.75,67.19c-2.4-2.24-6.51-2.08-6.51-2.08a19,19,0,0,0,7.48-4.15c2.38-2.35,2.77-7.48,2.77-7.48s-11.72,8.94-24.65,7.2c-2-.27-2.69-.66-5.81-1.66h0a92.24,92.24,0,0,0-15.14-3.91c1.88-1.73,2-2.65,1.84-3.16-.34-1-1.85-.54-3.32-1.8-1.85-1.58-1.49-4.12-2.49-4.15-.83,0-1.41,1.15-2.22,2.35a20.82,20.82,0,0,1-5.81,5.68c-13.39-.11-35.55,3.55-35.73,8.73S986.28,73.9,1002,74c.81,0,1.62,0,2.45,0l-.51,0a21.31,21.31,0,0,0,2.22,5.54c.85,1.48,1.49,2.56,2.21,2.49,1.13-.1,1.89-2.92,1.94-5a9.66,9.66,0,0,0-.54-3.43c3.21-.3,6.37-.74,9.18-1.21l-.33.07a6,6,0,0,1,2.84,2c.67.9.53,1.43,1,1.66,1.09.49,2.08-1.66,5.19-2.77,1.3-.46,2.2-.47,2.35-1s-.67-1.36-1.45-1.94a26.37,26.37,0,0,1,5.68-1.45c11.53-1.25,21.74,5.88,21.74,5.88S1056.88,69.17,1054.75,67.19Z" transform="translate(0 0)"/><path class="cls-1" d="M206.34,243.71c-2.23-2.08-6.06-1.93-6.06-1.93a17.7,17.7,0,0,0,7-3.87c2.22-2.18,2.58-6.95,2.58-6.95s-10.91,8.32-22.93,6.69c-1.87-.25-2.51-.61-5.41-1.54h0a85.6,85.6,0,0,0-14.08-3.63c1.75-1.62,1.88-2.47,1.71-2.94-.31-.89-1.72-.51-3.09-1.68-1.72-1.47-1.38-3.83-2.32-3.86-.76,0-1.31,1.07-2.06,2.19a19.19,19.19,0,0,1-5.41,5.28c-12.45-.1-33.06,3.3-33.23,8.12S142.64,250,157.26,250l2.28,0-.47,0a19.36,19.36,0,0,0,2.06,5.15c.79,1.38,1.39,2.38,2.06,2.32,1.05-.1,1.75-2.72,1.8-4.64a9,9,0,0,0-.5-3.19c3-.27,5.93-.69,8.53-1.12l-.3.06a5.64,5.64,0,0,1,2.64,1.87c.63.84.49,1.33,1,1.55,1,.45,1.94-1.55,4.83-2.58,1.2-.43,2.05-.44,2.19-1s-.63-1.26-1.36-1.8a25,25,0,0,1,5.28-1.35c10.74-1.17,20.23,5.47,20.23,5.47S208.31,245.55,206.34,243.71Z" transform="translate(0 0)"/><path class="cls-1" d="M144.25,126.36a6,6,0,0,0-3.79-1.21,11.12,11.12,0,0,0,4.36-2.42c1.39-1.37,1.61-4.36,1.61-4.36s-6.83,5.21-14.37,4.2a18,18,0,0,1-3.39-1h0a54.29,54.29,0,0,0-8.83-2.28c1.09-1,1.18-1.54,1.07-1.84-.2-.56-1.08-.32-1.93-1-1.09-.93-.87-2.4-1.46-2.42s-.82.67-1.29,1.37a12.22,12.22,0,0,1-3.39,3.31c-7.81-.07-20.73,2.07-20.84,5.09s12.32,6.5,21.48,6.54c.47,0,1,0,1.43,0l-.3,0a12.07,12.07,0,0,0,1.3,3.23c.49.86.87,1.49,1.29,1.45.65-.05,1.1-1.7,1.13-2.9a5.62,5.62,0,0,0-.32-2c1.88-.18,3.72-.43,5.36-.71l-.2,0a3.59,3.59,0,0,1,1.66,1.17c.39.53.31.84.61,1,.63.29,1.21-1,3-1.61.76-.27,1.29-.28,1.38-.61s-.39-.79-.85-1.13a15.83,15.83,0,0,1,3.31-.85c6.73-.73,12.68,3.44,12.68,3.44S145.49,127.52,144.25,126.36Z" transform="translate(0 0)"/><path class="cls-1" d="M1429.37,148.78c-3.6-3.36-9.76-3.11-9.76-3.11s6.65-1.75,11.21-6.23c3.57-3.52,4.15-11.22,4.15-11.22s-17.58,13.41-37,10.8c-3-.4-4-1-8.72-2.49h0a138.29,138.29,0,0,0-22.7-5.85c2.81-2.61,3-4,2.76-4.74-.51-1.43-2.79-.82-5-2.7-2.78-2.38-2.22-6.18-3.73-6.23-1.24,0-2.12,1.73-3.33,3.53a31.1,31.1,0,0,1-8.72,8.51c-20.07-.17-53.31,5.32-53.58,13.09s31.67,16.71,55.24,16.82c1.21,0,2.43,0,3.67-.06l-.76.06a31.65,31.65,0,0,0,3.32,8.3c1.29,2.23,2.24,3.84,3.33,3.74,1.68-.15,2.82-4.38,2.9-7.47a14.53,14.53,0,0,0-.81-5.14c4.81-.45,9.56-1.12,13.76-1.82l-.49.1a9.08,9.08,0,0,1,4.26,3c1,1.36.79,2.15,1.56,2.5,1.64.73,3.13-2.5,7.79-4.16,1.94-.69,3.3-.7,3.53-1.55s-1-2.05-2.18-2.91c3.63-1.12,5.24-1.83,8.51-2.18,17.3-1.88,32.61,8.82,32.61,8.82S1432.55,151.76,1429.37,148.78Z" transform="translate(0 0)"/><path class="cls-1" d="M1317.94,54.14c-6.13-5.72-16.63-5.31-16.63-5.31s11.33-3,19.1-10.61c6.09-6,7.08-19.11,7.08-19.11s-30,22.85-63,18.4c-5.12-.69-6.89-1.69-14.86-4.25h0a235.82,235.82,0,0,0-38.68-10c4.8-4.44,5.17-6.77,4.71-8.07-.88-2.44-4.75-1.4-8.49-4.6-4.74-4.06-3.8-10.53-6.37-10.62-2.11-.07-3.6,3-5.67,6a53.16,53.16,0,0,1-14.86,14.5c-34.2-.29-90.83,9.06-91.29,22.3-.45,13.07,54,28.47,94.12,28.66,2.06,0,4.15,0,6.26-.1l-1.3.1a53.74,53.74,0,0,0,5.66,14.15c2.18,3.78,3.81,6.54,5.66,6.37,2.88-.26,4.82-7.47,4.95-12.74A24.69,24.69,0,0,0,1203,70.5c8.2-.76,16.29-1.9,23.45-3.09l-.84.17a15.39,15.39,0,0,1,7.26,5.14c1.73,2.31,1.34,3.65,2.65,4.24,2.8,1.26,5.34-4.25,13.27-7.08,3.31-1.18,5.63-1.2,6-2.65s-1.72-3.48-3.72-5c6.19-1.91,8.94-3.12,14.51-3.72,29.48-3.19,55.55,15,55.55,15S1323.36,59.21,1317.94,54.14Z" transform="translate(0 0)"/><path class="cls-1" d="M59.72,100.13a6.86,6.86,0,0,0-4.34-1.39,12.54,12.54,0,0,0,5-2.76c1.59-1.57,1.85-5,1.85-5s-7.81,6-16.43,4.8a20.23,20.23,0,0,1-3.88-1.11h0a61.86,61.86,0,0,0-10.08-2.6c1.25-1.16,1.35-1.77,1.22-2.1-.22-.64-1.23-.37-2.21-1.2-1.24-1.06-1-2.75-1.66-2.77s-.94.77-1.48,1.57a13.77,13.77,0,0,1-3.88,3.78C14.89,91.28.12,93.72,0,97.18s14.08,7.42,24.55,7.47c.54,0,1.08,0,1.63,0l-.34,0a13.91,13.91,0,0,0,1.48,3.69c.57,1,1,1.71,1.48,1.66.75-.06,1.25-1.94,1.29-3.32a6.3,6.3,0,0,0-.36-2.28c2.14-.2,4.25-.5,6.12-.81l-.22,0A4.1,4.1,0,0,1,37.52,105c.45.61.35,1,.69,1.11.73.33,1.39-1.11,3.46-1.84.87-.31,1.47-.32,1.57-.7s-.44-.91-1-1.29a17.78,17.78,0,0,1,3.79-1c7.69-.83,14.49,3.93,14.49,3.93S61.13,101.45,59.72,100.13Z" transform="translate(0 0)"/></g></g></g></svg>