<svg xmlns="http://www.w3.org/2000/svg" viewBox="0 0 775 592.42"><defs><style>.cls-1{fill:#041541;}.cls-2{fill:#0d1a4f;}</style></defs><title>Asset 43</title><g id="Layer_2" data-name="Layer 2"><g id="Layer_2-2" data-name="Layer 2"><path class="cls-1" d="M485,10.42c147.64-18.34,290-1,290-1s-74.09,59.43-90,67c-138.4,65.75-199.62,15-288,76-66.84,46.1-122,138-122,138s-94.41-.32-128,34c-12,12.22-11,19.14-38,102-6.65,20.43-10.33,56-32,92-22.51,37.36-52.23,60.53-74,74l-3-582Z"/><path class="cls-2" d="M484,8.42H325L509.74,115.06c46.44-3.57,98.91-4.84,174.26-40.64,15.91-7.57,90-67,90-67S631.64-9.92,484,8.42Z"/></g></g></svg>