<svg xmlns="http://www.w3.org/2000/svg" xmlns:xlink="http://www.w3.org/1999/xlink" viewBox="0 0 441.09 550.03"><defs><style>.cls-1{fill:#a44ee4;}.cls-2{fill:#212269;}.cls-3{fill:#e6c029;}.cls-4{clip-path:url(#clip-path);}.cls-5{fill:#4b1f7e;}.cls-6{clip-path:url(#clip-path-2);}.cls-7{fill:#265fb2;}.cls-8{clip-path:url(#clip-path-3);}.cls-9{fill:#2f52c8;}.cls-10{clip-path:url(#clip-path-4);}.cls-11{fill:#c14f88;}.cls-12{fill:#dd5b12;}.cls-13{fill:#43afed;}</style><clipPath id="clip-path"><path id="_Compound_Clipping_Path_" data-name="&lt;Compound Clipping Path&gt;" d="M10.16,170.35q1.74-2.64,3.49-5.27c1.18-1.78,2.32-3.59,3.59-5.3s2.62-3.19,3.88-4.82c.94-1.23,1.79-2.52,2.69-3.78.5-.72,1-1.42,1.52-2.14.82-1.2,1.59-2.44,2.45-3.61,1.3-1.8,2.66-3.56,4-5.34a10.37,10.37,0,0,0,.62-1c.3-.51.56-1.06.91-1.54.86-1.18,1.76-2.33,2.63-3.5.53-.73,1-1.48,1.56-2.21,1.21-1.72,2.51-3.38,3.61-5.16s2.94-2.28,4.8-.86c2.91,2.22,5.87,4.38,8.78,6.6s6,4.68,9.09,7c1.81,1.36,3.72,2.59,5.54,3.93,1.59,1.18,3.1,2.45,4.68,3.65,2.12,1.61,4.28,3.15,6.38,4.77s3.82,3.11,5.77,4.61c3.56,2.74,7.12,5.46,10.72,8.13,1.62,1.21,3.35,2.26,5,3.45.7.51,1.2,1.3,1.91,1.8,1.47,1,3,2,4.52,3,.17.11.31.26.47.38,3.49,2.62,7,5.23,10.46,7.89,1.38,1.07,2.63,2.32,4,3.41q3,2.4,6.12,4.68c2.52,1.85,5.08,3.64,7.61,5.48,1.38,1,2.69,2.11,4.08,3.1.78.55,1.67,1,2.49,1.45.26.16.42.47.68.65,1,.71,2,1.34,3,2.1.79.64,1.42,1.49,2.23,2.11,1.69,1.29,3.45,2.48,5.18,3.71.26.18.52.36.77.56a100.46,100.46,0,0,0,8.38,6.41c1.73,1.09,2.92,2.66,4.55,3.76s3.42,2.36,5.12,3.53l.2.15c1.73,1.43,3.41,2.92,5.2,4.27,1.5,1.13,3.13,2.09,4.71,3.12.13.09.27.16.4.26,1.59,1.31,3.13,2.68,4.77,3.9s3.31,2.23,5,3.34c.23.15.38.42.6.58.64.45,1.29.86,1.93,1.3a10.15,10.15,0,0,1,1,.79c.93.85,1.66,2,3.06,2.16a.47.47,0,0,1,.2.12c1.72,1.38,3.42,2.78,5.15,4.14,3.06,2.4,6.13,4.77,9.19,7.16l2.41,1.93c0-.7.09-1.12.09-1.53q0-69.54,0-139.08c0-6.08,0-12.16,0-18.24a4.17,4.17,0,0,1,1.66-3.51q36.32-30.27,72.57-60.59a5.56,5.56,0,0,1,3.8-1.39c6.48,0,13-.12,19.43-.08,8.75.05,17.51.13,26.21,1.32,17.13,2.34,33,7.82,46.7,18.7C400,60.64,407.55,73.61,411,89a80.78,80.78,0,0,1,2,18.79c-.07,5.28,0,10.56,0,15.84,0,8.36.11,16.72.11,25.07,0,4.88,0,9.77-.19,14.64-.61,13.49-4.06,26.1-12.13,37.16-6.85,9.38-16.15,14.93-27.5,17.16-.45.09-.89.2-1.62.38,2.82.79,5.38,1.4,7.86,2.21,17.83,5.82,29.09,17.91,34.16,35.89a86,86,0,0,1,3.12,23.44c0,22.24.07,44.48,0,66.72a115.92,115.92,0,0,1-1.2,13,4,4,0,0,1-1.43,2.23q-13.26,11.15-26.62,22.21-20.22,16.88-40.41,33.78c-3.31,2.78-7.19,3.56-11.33,3.92-10.94.94-21.89.7-32.85.71q-35.4,0-70.79,0c-4,0-7.92.09-11.88.12-.55,0-1.11-.08-1.67-.1a1.26,1.26,0,0,1-1.28-1.31,11.5,11.5,0,0,1,0-1.44q0-35.22,0-70.43c0-6-.11-11.93,0-17.88,0-1.8-.85-2.55-2.13-3.32a29,29,0,0,1-2.46-1.83l-3-2.27c-.13-.09-.27-.17-.39-.27-1.68-1.39-3.34-2.83-5.06-4.17-.9-.71-2-1.2-2.88-1.89-1.48-1.13-2.88-2.35-4.33-3.51-1.29-1-2.47-2.35-3.94-3a15,15,0,0,1-3.66-2.74,31,31,0,0,0-3.89-2.36,2.48,2.48,0,0,1-.39-.27,71.87,71.87,0,0,0-6.69-5.67c-1.77-1.19-3.2-2.71-4.85-4-2-1.59-4.21-3-6.29-4.57-1.3-1-2.51-2-3.81-3s-2.66-1.78-4-2.66c-.16-.11-.34-.21-.5-.33-1.89-1.51-3.73-3.08-5.68-4.53-1.6-1.19-3.31-2.23-5-3.35-.19-.13-.35-.32-.55-.45-.7-.48-1.43-.93-2.12-1.44a7.19,7.19,0,0,1-1.35-1.16c-1.92-2.35-4.48-3.9-6.91-5.61-.35-.26-.68-.55-1-.82-1.82-1.45-3.61-2.92-5.46-4.33-2.2-1.67-4.45-3.27-6.66-4.93s-4.62-3.6-7-5.31c-1.32-1-2.83-1.63-4.19-2.54-.79-.52-1.34-1.42-2.15-1.88-2.37-1.31-3.93-3.53-6-5.19-1.65-1.34-3.52-2.4-5.24-3.67s-3.28-2.62-4.93-3.91c-1.43-1.11-2.89-2.18-4.33-3.27-.83-.62-1.63-1.28-2.5-1.83a24.23,24.23,0,0,1-4.39-3.38,20.84,20.84,0,0,0-3.85-2.49,8.43,8.43,0,0,1-.78-.55c-3.26-2.65-6.48-5.36-9.78-8-1.76-1.37-3.68-2.53-5.47-3.86s-3.28-2.6-4.93-3.89A55.24,55.24,0,0,0,52,203.92c-1.69-.94-2.72-2.51-4.33-3.44-1.1-.64-2-1.88-3.12-2.18-1.56-.42-2.08-2-3.36-2.47-2.2-.91-3.34-3-5.09-4.35s-3.86-2.66-5.73-4.07-3.46-2.9-5.27-4.25c-1.63-1.21-3.39-2.26-5.08-3.41-.94-.64-1.88-1.29-2.76-2-2.39-2-4.75-4-7.12-6Zm272.6,135.73v56.86c0,2,.06,2.08,2.08,2.08,12,0,24,.08,36,0a50,50,0,0,0,10-1.07c10.38-2.21,17.18-8.4,19.46-18.92a53,53,0,0,0,1.05-10.82q.15-27.17,0-54.34a69.37,69.37,0,0,0-.72-9.43c-1.65-11.41-9-19.45-20.15-22.29-4.79-1.22-9.66-1.2-14.53-1.22-10.31,0-20.63,0-30.95,0a2.86,2.86,0,0,0-1.18.07,2,2,0,0,0-1,1,4.37,4.37,0,0,0-.08,1.54Zm0-166.55V189.8c0,1.74.12,1.85,1.83,1.85q15.18,0,30.35,0a67.58,67.58,0,0,0,14.54-1.2c10.66-2.3,17.62-9.37,19.24-20.17a87.65,87.65,0,0,0,.57-12.67q.1-20.34,0-40.67a50.41,50.41,0,0,0-.59-7.76c-1-6.5-3.76-12.11-9.2-16.11A29.76,29.76,0,0,0,322,87.43c-12.56-.2-25.12-.08-37.68-.1h-.36a1,1,0,0,0-1.14,1.08q0,.72,0,1.44Z"/></clipPath><clipPath id="clip-path-2"><path id="_Clipping_Path_" data-name="&lt;Clipping Path&gt;" class="cls-1" d="M216.86,331.59,34.28,114.31,156,12.06l61.26,84.23c.2,52.44,0,157.32,0,157.32S217,305.59,216.86,331.59Z"/></clipPath><clipPath id="clip-path-3"><path id="_Clipping_Path_2" data-name="&lt;Clipping Path&gt;" class="cls-2" d="M115.73,296.42c.3,4.46.67,8.92.88,13.38.14,3.15,0,6.32.1,9.48.13,4.22.4,8.45.58,12.68.08,1.87,0,3.76.12,5.63,0,.59.17,1.57.48,1.66a2.47,2.47,0,0,0,1.83-.41c4.61-3,9.18-6,13.75-9,3.74-2.47,7.46-5,11.2-7.48,2.42-1.6,4.87-3.15,7.3-4.74,2.17-1.41,4.33-2.84,6.46-4.3,1.54-1.06,5.32-1,6.77.19,3.73,2.93,7.49,5.84,11.23,8.76,4.65,3.63,9.29,7.28,14,10.9q5.19,4,10.42,8l1.78,1.4c1.42,1.11,1.32,2.68-.15,3.75-4.39,3.17-8.75,6.4-13.15,9.57-3.22,2.34-6.49,4.62-9.72,7-4.07,2.94-8.1,5.94-12.17,8.87-3.17,2.27-6.4,4.46-9.57,6.73q-5.78,4.14-11.5,8.33c-2.83,2.06-5.63,4.16-8.46,6.21-3.77,2.72-7.56,5.41-11.33,8.12-3.45,2.48-6.88,5-10.33,7.48q-3.87,2.79-7.75,5.55c-3.1,2.21-6.22,4.38-9.32,6.59s-6.39,4.55-9.57,6.85c-1.89,1.37-3.74,2.8-5.62,4.19-1.18.87-2.38,1.72-3.58,2.56a.77.77,0,0,1-.56.14,24.38,24.38,0,0,1-3.29-1,1.89,1.89,0,0,1-.9-1.26,11.94,11.94,0,0,1-.07-2.74,6,6,0,0,0-.54-3.43c-.52-1-.31-2.5-.22-3.76a6.8,6.8,0,0,0-.51-3.7,7.47,7.47,0,0,1-.38-3.39,8.35,8.35,0,0,0-.58-4.53,6.79,6.79,0,0,1-.2-3.41,6.22,6.22,0,0,0-.59-4.06,2.88,2.88,0,0,1-.25-1.39c0-.92,0-1.84,0-2.76a9.36,9.36,0,0,0-.6-3.58c-.51-1.26-.28-2.82-.31-4.26,0-1.17.21-2.32-.59-3.44-.37-.53-.16-1.47-.19-2.23-.08-1.89.13-3.74-.67-5.63-.52-1.24-.15-2.84-.28-4.27-.09-1.05-.42-2.08-.52-3.13-.14-1.43-.1-2.87-.25-4.3-.13-1.12-.45-2.21-.67-3.32a15.62,15.62,0,0,1-.24-1.65c-.14-2.16.22-4.31-.61-6.49-.51-1.33-.07-3-.18-4.52a15.94,15.94,0,0,0-.57-2.51,11.51,11.51,0,0,1-.3-1.26c0-.52,0-1,0-1.56-.07-1.74.22-3.47-.61-5.17a6.51,6.51,0,0,1-.2-2.84,9.7,9.7,0,0,0-.58-4.7,5.86,5.86,0,0,1-.28-2.12c-.12-1.93.2-3.86-.63-5.77-.42-.95,0-2.22-.17-3.33-.15-1.36-.51-2.71-.66-4.07s-.11-2.87-.26-4.3c-.11-1.08-.39-2.15-.57-3.23a20.67,20.67,0,0,1-.32-2.49c-.09-1.89.13-3.78-.62-5.66-.42-1.05-.06-2.38-.18-3.57s-.42-2.4-.6-3.6a23.45,23.45,0,0,1-.29-2.49c-.11-1.86.21-3.73-.64-5.54a3.89,3.89,0,0,1-.06-2.48c.36-1.32,1.7-1.44,2.8-1.64a21.08,21.08,0,0,1,2.87-.08c2.2-.13,4.36.08,6.61-.56s4.59-.1,6.9-.19a16.81,16.81,0,0,0,2.76-.6,8,8,0,0,1,1.51-.29c2.08,0,4.16.06,6.24.08a1.94,1.94,0,0,0,.94-.07c2.21-1.22,4.61-.72,6.94-.77a14.64,14.64,0,0,0,4.57-.58,13.44,13.44,0,0,1,4.63-.26c1.76.06,3.46.22,5.17-.57a4.54,4.54,0,0,1,2.69-.11,1.84,1.84,0,0,1,1,1.39c.38,5,.67,10,1,15.06Z"/></clipPath><clipPath id="clip-path-4"><path id="_Clipping_Path_3" data-name="&lt;Clipping Path&gt;" class="cls-3" d="M197.49,157.8l-11.93.91c-3.73.29-7.46.55-11.2.86s-7.37.65-11.06,1a10,10,0,0,0-1.27.35c-2.84.66-5.14-1.1-5.44-4.18-.07-.76,0-1.53-.09-2.28-.15-1.38-.36-2.75-.56-4.13-.07-.47-.21-.94-.26-1.41-.3-3.21-.52-6.42-.9-9.61-.41-3.39-1-6.76-1.47-10.14-.11-.79-.14-1.59-.22-2.39-.29-3-.55-6.1-.91-9.13-.21-1.86-.58-3.7-.88-5.55-.12-.72-.52-.7-1-.36-3.53,2.39-7.06,4.77-10.58,7.17-3.15,2.14-6.32,4.25-9.44,6.44-1.85,1.3-3.58,2.77-5.42,4.09-2.22,1.59-4.55,3-6.74,4.66s-4.2,3.65-6.52,5.11c-2,1.25-3.74,3.06-6.19,3.43-1.45.21-2.88.39-4.26-.78-2.39-2-5-3.83-7.5-5.72l-6.38-4.77c-1.24-.93-2.48-1.86-3.69-2.82-1.81-1.42-3.57-2.91-5.4-4.31-1.58-1.2-3.24-2.29-4.83-3.49s-3.34-2.68-5-4c-2.13-1.6-4.26-3.2-6.45-4.71a2.66,2.66,0,0,1,.1-4.72c1.55-1,3-2.24,4.51-3.29s3.2-2,4.79-3.11,2.88-2,4.31-3q3-2.09,5.93-4.18c1.58-1.12,3.14-2.29,4.75-3.38s3.29-2.06,4.9-3.14,3.08-2.22,4.64-3.31,2.93-2,4.4-3c1.72-1.18,3.46-2.35,5.18-3.54,1.4-1,2.77-2,4.17-3,1.77-1.2,3.58-2.33,5.35-3.54,3.17-2.16,6.31-4.37,9.48-6.54,1.89-1.3,3.81-2.53,5.7-3.83s3.6-2.6,5.42-3.87c3.21-2.25,6.45-4.48,9.67-6.72,2.15-1.49,4.27-3,6.44-4.47,3.77-2.55,7.58-5.05,11.36-7.6,1.34-.9,2.63-1.9,4-2.83,1.56-1.09,3.15-2.14,4.72-3.22,3.07-2.12,6.13-4.26,9.21-6.36,1.6-1.09,3.26-2.09,4.85-3.18.62-.42,1.11-1,1.7-1.48.75-.59,1.47-.62,2,.3a3,3,0,0,1,.47.82c.44,2.12.75,4.27,1.28,6.37a27.32,27.32,0,0,1,.77,6.5,130.91,130.91,0,0,0,1.45,16.28c.53,3.75.72,7.54,1.13,11.31s.88,7.29,1.29,10.94c.24,2,.38,4,.6,6.08.54,5,1.11,9.91,1.67,14.86s1.13,10,1.71,15c.63,5.43,1.28,10.86,1.9,16.29.27,2.41.46,4.84.76,7.25.43,3.4,1,6.78,1.37,10.19.41,3.63.71,7.28,1,10.93.17,2.25-.6,3.15-3,3.71a12.77,12.77,0,0,1-2.14.26c-.71,0-1.44,0-2.16,0Z"/></clipPath></defs><title>Asset 22</title><g id="Layer_2" data-name="Layer 2"><g id="Layer_1-2" data-name="Layer 1"><path id="_Compound_Clipping_Path_2" data-name="&lt;Compound Clipping Path&gt;" d="M10.16,170.35q1.74-2.64,3.49-5.27c1.18-1.78,2.32-3.59,3.59-5.3s2.62-3.19,3.88-4.82c.94-1.23,1.79-2.52,2.69-3.78.5-.72,1-1.42,1.52-2.14.82-1.2,1.59-2.44,2.45-3.61,1.3-1.8,2.66-3.56,4-5.34a10.37,10.37,0,0,0,.62-1c.3-.51.56-1.06.91-1.54.86-1.18,1.76-2.33,2.63-3.5.53-.73,1-1.48,1.56-2.21,1.21-1.72,2.51-3.38,3.61-5.16s2.94-2.28,4.8-.86c2.91,2.22,5.87,4.38,8.78,6.6s6,4.68,9.09,7c1.81,1.36,3.72,2.59,5.54,3.93,1.59,1.18,3.1,2.45,4.68,3.65,2.12,1.61,4.28,3.15,6.38,4.77s3.82,3.11,5.77,4.61c3.56,2.74,7.12,5.46,10.72,8.13,1.62,1.21,3.35,2.26,5,3.45.7.51,1.2,1.3,1.91,1.8,1.47,1,3,2,4.52,3,.17.11.31.26.47.38,3.49,2.62,7,5.23,10.46,7.89,1.38,1.07,2.63,2.32,4,3.41q3,2.4,6.12,4.68c2.52,1.85,5.08,3.64,7.61,5.48,1.38,1,2.69,2.11,4.08,3.1.78.55,1.67,1,2.49,1.45.26.16.42.47.68.65,1,.71,2,1.34,3,2.1.79.64,1.42,1.49,2.23,2.11,1.69,1.29,3.45,2.48,5.18,3.71.26.18.52.36.77.56a100.46,100.46,0,0,0,8.38,6.41c1.73,1.09,2.92,2.66,4.55,3.76s3.42,2.36,5.12,3.53l.2.15c1.73,1.43,3.41,2.92,5.2,4.27,1.5,1.13,3.13,2.09,4.71,3.12.13.09.27.16.4.26,1.59,1.31,3.13,2.68,4.77,3.9s3.31,2.23,5,3.34c.23.15.38.42.6.58.64.45,1.29.86,1.93,1.3a10.15,10.15,0,0,1,1,.79c.93.85,1.66,2,3.06,2.16a.47.47,0,0,1,.2.12c1.72,1.38,3.42,2.78,5.15,4.14,3.06,2.4,6.13,4.77,9.19,7.16l2.41,1.93c0-.7.09-1.12.09-1.53q0-69.54,0-139.08c0-6.08,0-12.16,0-18.24a4.17,4.17,0,0,1,1.66-3.51q36.32-30.27,72.57-60.59a5.56,5.56,0,0,1,3.8-1.39c6.48,0,13-.12,19.43-.08,8.75.05,17.51.13,26.21,1.32,17.13,2.34,33,7.82,46.7,18.7C400,60.64,407.55,73.61,411,89a80.78,80.78,0,0,1,2,18.79c-.07,5.28,0,10.56,0,15.84,0,8.36.11,16.72.11,25.07,0,4.88,0,9.77-.19,14.64-.61,13.49-4.06,26.1-12.13,37.16-6.85,9.38-16.15,14.93-27.5,17.16-.45.09-.89.2-1.62.38,2.82.79,5.38,1.4,7.86,2.21,17.83,5.82,29.09,17.91,34.16,35.89a86,86,0,0,1,3.12,23.44c0,22.24.07,44.48,0,66.72a115.92,115.92,0,0,1-1.2,13,4,4,0,0,1-1.43,2.23q-13.26,11.15-26.62,22.21-20.22,16.88-40.41,33.78c-3.31,2.78-7.19,3.56-11.33,3.92-10.94.94-21.89.7-32.85.71q-35.4,0-70.79,0c-4,0-7.92.09-11.88.12-.55,0-1.11-.08-1.67-.1a1.26,1.26,0,0,1-1.28-1.31,11.5,11.5,0,0,1,0-1.44q0-35.22,0-70.43c0-6-.11-11.93,0-17.88,0-1.8-.85-2.55-2.13-3.32a29,29,0,0,1-2.46-1.83l-3-2.27c-.13-.09-.27-.17-.39-.27-1.68-1.39-3.34-2.83-5.06-4.17-.9-.71-2-1.2-2.88-1.89-1.48-1.13-2.88-2.35-4.33-3.51-1.29-1-2.47-2.35-3.94-3a15,15,0,0,1-3.66-2.74,31,31,0,0,0-3.89-2.36,2.48,2.48,0,0,1-.39-.27,71.87,71.87,0,0,0-6.69-5.67c-1.77-1.19-3.2-2.71-4.85-4-2-1.59-4.21-3-6.29-4.57-1.3-1-2.51-2-3.81-3s-2.66-1.78-4-2.66c-.16-.11-.34-.21-.5-.33-1.89-1.51-3.73-3.08-5.68-4.53-1.6-1.19-3.31-2.23-5-3.35-.19-.13-.35-.32-.55-.45-.7-.48-1.43-.93-2.12-1.44a7.19,7.19,0,0,1-1.35-1.16c-1.92-2.35-4.48-3.9-6.91-5.61-.35-.26-.68-.55-1-.82-1.82-1.45-3.61-2.92-5.46-4.33-2.2-1.67-4.45-3.27-6.66-4.93s-4.62-3.6-7-5.31c-1.32-1-2.83-1.63-4.19-2.54-.79-.52-1.34-1.42-2.15-1.88-2.37-1.31-3.93-3.53-6-5.19-1.65-1.34-3.52-2.4-5.24-3.67s-3.28-2.62-4.93-3.91c-1.43-1.11-2.89-2.18-4.33-3.27-.83-.62-1.63-1.28-2.5-1.83a24.23,24.23,0,0,1-4.39-3.38,20.84,20.84,0,0,0-3.85-2.49,8.43,8.43,0,0,1-.78-.55c-3.26-2.65-6.48-5.36-9.78-8-1.76-1.37-3.68-2.53-5.47-3.86s-3.28-2.6-4.93-3.89A55.24,55.24,0,0,0,52,203.92c-1.69-.94-2.72-2.51-4.33-3.44-1.1-.64-2-1.88-3.12-2.18-1.56-.42-2.08-2-3.36-2.47-2.2-.91-3.34-3-5.09-4.35s-3.86-2.66-5.73-4.07-3.46-2.9-5.27-4.25c-1.63-1.21-3.39-2.26-5.08-3.41-.94-.64-1.88-1.29-2.76-2-2.39-2-4.75-4-7.12-6Zm272.6,135.73v56.86c0,2,.06,2.08,2.08,2.08,12,0,24,.08,36,0a50,50,0,0,0,10-1.07c10.38-2.21,17.18-8.4,19.46-18.92a53,53,0,0,0,1.05-10.82q.15-27.17,0-54.34a69.37,69.37,0,0,0-.72-9.43c-1.65-11.41-9-19.45-20.15-22.29-4.79-1.22-9.66-1.2-14.53-1.22-10.31,0-20.63,0-30.95,0a2.86,2.86,0,0,0-1.18.07,2,2,0,0,0-1,1,4.37,4.37,0,0,0-.08,1.54Zm0-166.55V189.8c0,1.74.12,1.85,1.83,1.85q15.18,0,30.35,0a67.58,67.58,0,0,0,14.54-1.2c10.66-2.3,17.62-9.37,19.24-20.17a87.65,87.65,0,0,0,.57-12.67q.1-20.34,0-40.67a50.41,50.41,0,0,0-.59-7.76c-1-6.5-3.76-12.11-9.2-16.11A29.76,29.76,0,0,0,322,87.43c-12.56-.2-25.12-.08-37.68-.1h-.36a1,1,0,0,0-1.14,1.08q0,.72,0,1.44Z"/><g class="cls-4"><rect class="cls-5" y="124.24" width="217" height="208.39"/><path id="_Clipping_Path_4" data-name="&lt;Clipping Path&gt;" class="cls-1" d="M216.86,331.59,34.28,114.31,156,12.06l61.26,84.23c.2,52.44,0,157.32,0,157.32S217,305.59,216.86,331.59Z"/><g class="cls-6"><rect class="cls-7" x="143.96" y="138.73" width="237.67" height="167.2" transform="matrix(0.5, -0.87, 0.87, 0.5, -61.14, 338.76)"/></g></g><path d="M10.16,458.83c.35-1,1.19-1.16,2.11-1.16,4.4,0,8.79,0,13.18,0,1.65,0,2.06.37,2.06,2q0,17,0,33.95c0,1.9.16,2.08,2,2.08H69.35c1.84,0,2-.13,2-2q0-16.92,0-33.83c0-2,.42-2.26,2.43-2.22q6.23.12,12.46,0c1.81,0,2.24.24,2.24,2v86c0,1.87-.3,2.11-2.17,2.1q-6.48,0-13,0c-1.6,0-2-.34-2-1.93q0-16.2,0-32.39c0-1.84-.07-1.91-1.88-1.91H29.35c-1.75,0-1.85.1-1.85,1.83q0,16,0,32c0,2.09-.38,2.4-2.45,2.38-4.19,0-8.38,0-12.58,0-1,0-1.92-.08-2.32-1.21V534a9.47,9.47,0,0,0,.16-1.29q0-30,0-59.94a11.27,11.27,0,0,0-.16-1.41Z"/><path d="M398,550c-2.33-.3-4.67-.51-7-.92-9.48-1.69-17.63-5.67-23.25-13.82a68.36,68.36,0,0,1-3.48-6.14c-.53-1-.25-1.63.74-2.13q6-3.06,11.93-6.17c.81-.43,1.32-.34,1.72.51,3.43,7.24,9.52,10.83,17.05,12.42a34.67,34.67,0,0,0,19.48-1.15c4.17-1.52,7.29-4.09,8.42-8.61a9.82,9.82,0,0,0-3.92-10.78A25.62,25.62,0,0,0,408.6,509c-6.26-1.05-12.56-1.86-18.76-3.19-5.58-1.2-10.9-3.32-15.13-7.38A21.91,21.91,0,0,1,367.64,480c1-11.33,7.53-18.48,17.92-22.4a55.32,55.32,0,0,1,36.51.24,29.66,29.66,0,0,1,15.33,13c.93,1.6.82,1.9-.83,2.75-3.52,1.81-7.06,3.59-10.54,5.46a1.6,1.6,0,0,1-2.41-.52c-3.78-4.8-9-7.19-14.83-8.29A28.8,28.8,0,0,0,392,471.69c-3.45,1.45-6,3.76-6.92,7.57a7.93,7.93,0,0,0,3.58,8.92,26.1,26.1,0,0,0,10.13,3.47c6.3,1,12.64,1.89,18.89,3.18a33.49,33.49,0,0,1,15.23,6.95A22.83,22.83,0,0,1,441,518.65a30.87,30.87,0,0,1-2,13.52c-2.56,6.3-7.31,10.47-13.31,13.34A46.24,46.24,0,0,1,409,549.86a4.23,4.23,0,0,0-.68.17Z"/><path d="M238.88,550c-2.14-.23-4.29-.35-6.4-.68-11.88-1.89-22.3-6.49-29.79-16.36-4.6-6.06-7.05-13-8.44-20.42a49.53,49.53,0,0,1,7.62-37.76c6.31-9.52,15.3-15.12,26.32-17.61,10.21-2.31,20.31-2.16,30.15,1.79a46,46,0,0,1,15.13,9.72,7,7,0,0,1,.64.73c-1.91,2.06-3.71,4-5.56,6-1.39,1.44-2.86,2.8-4.29,4.19-1.18,1.15-1.34,1.16-2.57.12-11.48-9.7-29.33-10-40.69-.75-5.37,4.4-8.34,10.22-9.77,16.9a33.31,33.31,0,0,0,4.79,26,24.26,24.26,0,0,0,14.24,10.17c8.38,2.37,16.7,2.31,24.64-1.58a57.06,57.06,0,0,0,7.79-5.11c.89-.64,1.4-.76,2.21.07,3.17,3.27,6.41,6.48,9.62,9.72,1.14,1.15,1.11,1.25-.06,2.34-7.94,7.44-17.49,11.13-28.19,12.13L242,550Z"/><path id="_Clipping_Path_5" data-name="&lt;Clipping Path&gt;" class="cls-2" d="M115.73,296.42c.3,4.46.67,8.92.88,13.38.14,3.15,0,6.32.1,9.48.13,4.22.4,8.45.58,12.68.08,1.87,0,3.76.12,5.63,0,.59.17,1.57.48,1.66a2.47,2.47,0,0,0,1.83-.41c4.61-3,9.18-6,13.75-9,3.74-2.47,7.46-5,11.2-7.48,2.42-1.6,4.87-3.15,7.3-4.74,2.17-1.41,4.33-2.84,6.46-4.3,1.54-1.06,5.32-1,6.77.19,3.73,2.93,7.49,5.84,11.23,8.76,4.65,3.63,9.29,7.28,14,10.9q5.19,4,10.42,8l1.78,1.4c1.42,1.11,1.32,2.68-.15,3.75-4.39,3.17-8.75,6.4-13.15,9.57-3.22,2.34-6.49,4.62-9.72,7-4.07,2.94-8.1,5.94-12.17,8.87-3.17,2.27-6.4,4.46-9.57,6.73q-5.78,4.14-11.5,8.33c-2.83,2.06-5.63,4.16-8.46,6.21-3.77,2.72-7.56,5.41-11.33,8.12-3.45,2.48-6.88,5-10.33,7.48q-3.87,2.79-7.75,5.55c-3.1,2.21-6.22,4.38-9.32,6.59s-6.39,4.55-9.57,6.85c-1.89,1.37-3.74,2.8-5.62,4.19-1.18.87-2.38,1.72-3.58,2.56a.77.77,0,0,1-.56.14,24.38,24.38,0,0,1-3.29-1,1.89,1.89,0,0,1-.9-1.26,11.94,11.94,0,0,1-.07-2.74,6,6,0,0,0-.54-3.43c-.52-1-.31-2.5-.22-3.76a6.8,6.8,0,0,0-.51-3.7,7.47,7.47,0,0,1-.38-3.39,8.35,8.35,0,0,0-.58-4.53,6.79,6.79,0,0,1-.2-3.41,6.22,6.22,0,0,0-.59-4.06,2.88,2.88,0,0,1-.25-1.39c0-.92,0-1.84,0-2.76a9.36,9.36,0,0,0-.6-3.58c-.51-1.26-.28-2.82-.31-4.26,0-1.17.21-2.32-.59-3.44-.37-.53-.16-1.47-.19-2.23-.08-1.89.13-3.74-.67-5.63-.52-1.24-.15-2.84-.28-4.27-.09-1.05-.42-2.08-.52-3.13-.14-1.43-.1-2.87-.25-4.3-.13-1.12-.45-2.21-.67-3.32a15.62,15.62,0,0,1-.24-1.65c-.14-2.16.22-4.31-.61-6.49-.51-1.33-.07-3-.18-4.52a15.94,15.94,0,0,0-.57-2.51,11.51,11.51,0,0,1-.3-1.26c0-.52,0-1,0-1.56-.07-1.74.22-3.47-.61-5.17a6.51,6.51,0,0,1-.2-2.84,9.7,9.7,0,0,0-.58-4.7,5.86,5.86,0,0,1-.28-2.12c-.12-1.93.2-3.86-.63-5.77-.42-.95,0-2.22-.17-3.33-.15-1.36-.51-2.71-.66-4.07s-.11-2.87-.26-4.3c-.11-1.08-.39-2.15-.57-3.23a20.67,20.67,0,0,1-.32-2.49c-.09-1.89.13-3.78-.62-5.66-.42-1.05-.06-2.38-.18-3.57s-.42-2.4-.6-3.6a23.45,23.45,0,0,1-.29-2.49c-.11-1.86.21-3.73-.64-5.54a3.89,3.89,0,0,1-.06-2.48c.36-1.32,1.7-1.44,2.8-1.64a21.08,21.08,0,0,1,2.87-.08c2.2-.13,4.36.08,6.61-.56s4.59-.1,6.9-.19a16.81,16.81,0,0,0,2.76-.6,8,8,0,0,1,1.51-.29c2.08,0,4.16.06,6.24.08a1.94,1.94,0,0,0,.94-.07c2.21-1.22,4.61-.72,6.94-.77a14.64,14.64,0,0,0,4.57-.58,13.44,13.44,0,0,1,4.63-.26c1.76.06,3.46.22,5.17-.57a4.54,4.54,0,0,1,2.69-.11,1.84,1.84,0,0,1,1,1.39c.38,5,.67,10,1,15.06Z"/><g class="cls-8"><rect class="cls-9" x="32.29" y="262.17" width="64.45" height="174" transform="translate(81.97 -5.48) rotate(13.29)"/></g><path id="_Clipping_Path_6" data-name="&lt;Clipping Path&gt;" class="cls-3" d="M197.49,157.8l-11.93.91c-3.73.29-7.46.55-11.2.86s-7.37.65-11.06,1a10,10,0,0,0-1.27.35c-2.84.66-5.14-1.1-5.44-4.18-.07-.76,0-1.53-.09-2.28-.15-1.38-.36-2.75-.56-4.13-.07-.47-.21-.94-.26-1.41-.3-3.21-.52-6.42-.9-9.61-.41-3.39-1-6.76-1.47-10.14-.11-.79-.14-1.59-.22-2.39-.29-3-.55-6.1-.91-9.13-.21-1.86-.58-3.7-.88-5.55-.12-.72-.52-.7-1-.36-3.53,2.39-7.06,4.77-10.58,7.17-3.15,2.14-6.32,4.25-9.44,6.44-1.85,1.3-3.58,2.77-5.42,4.09-2.22,1.59-4.55,3-6.74,4.66s-4.2,3.65-6.52,5.11c-2,1.25-3.74,3.06-6.19,3.43-1.45.21-2.88.39-4.26-.78-2.39-2-5-3.83-7.5-5.72l-6.38-4.77c-1.24-.93-2.48-1.86-3.69-2.82-1.81-1.42-3.57-2.91-5.4-4.31-1.58-1.2-3.24-2.29-4.83-3.49s-3.34-2.68-5-4c-2.13-1.6-4.26-3.2-6.45-4.71a2.66,2.66,0,0,1,.1-4.72c1.55-1,3-2.24,4.51-3.29s3.2-2,4.79-3.11,2.88-2,4.31-3q3-2.09,5.93-4.18c1.58-1.12,3.14-2.29,4.75-3.38s3.29-2.06,4.9-3.14,3.08-2.22,4.64-3.31,2.93-2,4.4-3c1.72-1.18,3.46-2.35,5.18-3.54,1.4-1,2.77-2,4.17-3,1.77-1.2,3.58-2.33,5.35-3.54,3.17-2.16,6.31-4.37,9.48-6.54,1.89-1.3,3.81-2.53,5.7-3.83s3.6-2.6,5.42-3.87c3.21-2.25,6.45-4.48,9.67-6.72,2.15-1.49,4.27-3,6.44-4.47,3.77-2.55,7.58-5.05,11.36-7.6,1.34-.9,2.63-1.9,4-2.83,1.56-1.09,3.15-2.14,4.72-3.22,3.07-2.12,6.13-4.26,9.21-6.36,1.6-1.09,3.26-2.09,4.85-3.18.62-.42,1.11-1,1.7-1.48.75-.59,1.47-.62,2,.3a3,3,0,0,1,.47.82c.44,2.12.75,4.27,1.28,6.37a27.32,27.32,0,0,1,.77,6.5,130.91,130.91,0,0,0,1.45,16.28c.53,3.75.72,7.54,1.13,11.31s.88,7.29,1.29,10.94c.24,2,.38,4,.6,6.08.54,5,1.11,9.91,1.67,14.86s1.13,10,1.71,15c.63,5.43,1.28,10.86,1.9,16.29.27,2.41.46,4.84.76,7.25.43,3.4,1,6.78,1.37,10.19.41,3.63.71,7.28,1,10.93.17,2.25-.6,3.15-3,3.71a12.77,12.77,0,0,1-2.14.26c-.71,0-1.44,0-2.16,0Z"/><g class="cls-10"><rect class="cls-11" x="48.68" y="85.95" width="108.58" height="68" transform="translate(87.41 -37.37) rotate(35)"/><rect class="cls-12" x="128.38" y="37.56" width="195.23" height="203.85" transform="translate(120.86 -104.4) rotate(35)"/></g><path d="M94.83,547.71c.21-.56.34-1,.51-1.35q19.44-43.5,38.87-87a3,3,0,0,1,3.13-2q7.26.09,14.51,0a2.8,2.8,0,0,1,2.94,1.91q19.31,43.29,38.69,86.56c.78,1.74.53,2.05-1.39,2-4.92,0-9.84-.05-14.76,0a2.48,2.48,0,0,1-2.66-1.69c-2-4.58-4.11-9.1-6.12-13.68a2.17,2.17,0,0,0-2.28-1.47q-21.78,0-43.55,0a2.2,2.2,0,0,0-2.28,1.5c-2,4.57-4.13,9.09-6.16,13.66a2.53,2.53,0,0,1-2.58,1.72c-5.07,0-10.15,0-15.23-.07C96,547.82,95.47,547.75,94.83,547.71Zm66-33.07c-5.44-12.56-10.81-24.93-16.29-37.58-5.51,12.7-10.86,25.07-16.29,37.58Z"/><path d="M302.52,494.79c2.21-2.46,4.43-4.92,6.63-7.38Q322,473.1,334.73,458.78a4,4,0,0,1,3.24-1.44c6.12.05,12.24,0,18.35.05.31,0,.87.22.88.37a1.51,1.51,0,0,1-.38,1q-11.38,12.35-22.8,24.65l-15.26,16.45c-1.13,1.21-1.12,1.42.06,2.65l40.64,42.62a1.88,1.88,0,0,1,.4.45c.26.58.49,1.17.73,1.76a7.24,7.24,0,0,1-1.71.46c-5.64,0-11.28,0-16.92,0a4.89,4.89,0,0,1-3.94-1.58Q321,528.1,303.83,509.94c-.4-.43-.74-.93-1.11-1.4l-.39.19a8,8,0,0,0-.12.95q0,18,0,36c0,1.78-.47,2.21-2.29,2.2q-6.3,0-12.6,0c-2,0-2.44-.34-2.44-2.3q0-41.26,0-82.55c0-1.36.05-2.72,0-4.08,0-1.12.41-1.62,1.54-1.6q3.22.06,6.47.06c2.48,0,5-.05,7.44-.06,1.69,0,1.85.16,1.85,1.86V494.7Z"/><g id="Layer_2-2" data-name="Layer 2"><polygon class="cls-13" points="217 254.66 217 327.67 248 280.67 217 254.66"/></g></g></g></svg>