<svg xmlns="http://www.w3.org/2000/svg" xmlns:xlink="http://www.w3.org/1999/xlink" viewBox="0 0 260.07 381.29"><defs><style>.cls-1,.cls-16,.cls-17,.cls-18{fill:none;}.cls-2{fill:#00254f;}.cls-3{fill:#544758;}.cls-4{clip-path:url(#clip-path);}.cls-5{fill:#272c3f;}.cls-6{clip-path:url(#clip-path-2);}.cls-7{fill:#546c9a;}.cls-8{fill:#1d559f;}.cls-9{fill:#9f646a;}.cls-10{clip-path:url(#clip-path-3);}.cls-11{clip-path:url(#clip-path-4);}.cls-12{fill:#4677d0;}.cls-13{fill:#cb9885;}.cls-14{fill:#ba5d64;}.cls-15{fill:#e1c8cb;}.cls-16{stroke:#544758;stroke-linejoin:round;}.cls-16,.cls-17,.cls-18{stroke-linecap:round;}.cls-16,.cls-17{stroke-width:4px;}.cls-17{stroke:#9f646a;}.cls-17,.cls-18{stroke-miterlimit:10;}.cls-18{stroke:#e1c8cb;stroke-width:3px;}.cls-19{fill:#0d314b;}.cls-20{clip-path:url(#clip-path-5);}.cls-21{fill:#657f98;}</style><clipPath id="clip-path"><ellipse class="cls-1" cx="66.18" cy="129.66" rx="17.32" ry="42.86" transform="translate(-57.96 53.63) rotate(-31.47)"/></clipPath><clipPath id="clip-path-2"><ellipse class="cls-1" cx="200.9" cy="177.56" rx="17.22" ry="43.11" transform="translate(-40.08 60.02) rotate(-15.47)"/></clipPath><clipPath id="clip-path-3"><polygon class="cls-1" points="75.3 109.57 172.6 177.14 202.54 110.42 202.54 83.05 75.3 83.05 75.3 109.57"/></clipPath><clipPath id="clip-path-4"><path class="cls-1" d="M256.61,328.77l-21.13-92.56a10.3,10.3,0,0,0-12.29-7.73l-5,1.15a10.25,10.25,0,0,0-7.32,6.44l-21,22.33,40.2,106.92,23.2-26.51C256.63,336.24,256.61,328.77,256.61,328.77Z"/></clipPath><clipPath id="clip-path-5"><path class="cls-1" d="M97.57,58.07a47.64,47.64,0,0,0,13.55,10.44h56.65a47.64,47.64,0,0,0,13.55-10.44,36.73,36.73,0,0,0,6-9.27H91.54A36.73,36.73,0,0,0,97.57,58.07Z"/></clipPath></defs><title>Asset 4</title><g id="Layer_2" data-name="Layer 2"><g id="Layer_24" data-name="Layer 24"><g id="Layer_25" data-name="Layer 25"><g id="Layer_28" data-name="Layer 28"><path class="cls-2" d="M225.91,232.09l-8.85,7.78L98.39,91.6V78.77Q162.14,155.44,225.91,232.09Z"/><ellipse class="cls-3" cx="66.18" cy="129.66" rx="17.32" ry="42.86" transform="translate(-57.96 53.63) rotate(-31.47)"/><g class="cls-4"><polygon class="cls-5" points="30.23 136.47 12.81 108.33 65.84 73.61 83.25 101.75 30.23 136.47"/></g><ellipse class="cls-3" cx="200.9" cy="177.56" rx="17.22" ry="43.11" transform="translate(-40.08 60.02) rotate(-15.47)"/><g class="cls-6"><polygon class="cls-5" points="237.26 181.49 246.23 213.54 185.83 231.43 176.85 199.37 237.26 181.49"/></g><path class="cls-7" d="M196.1,98.73c.6-2.86,2.52-9.93,8.76-14.79,7.38-5.75,21-3.07,21-3.07S221.64,94.14,213.43,98C206,101.5,198.7,99.56,196.1,98.73Z"/><path class="cls-8" d="M193.11,97.54c2.51-1.36,9-4.41,16.63-2.64,9,2.1,15.81,14.51,15.81,14.51s-12.57,5.26-20.74,1.29C197.41,107.11,194.16,100.13,193.11,97.54Z"/><path class="cls-3" d="M105.91,275.57a106.82,106.82,0,0,1-34.12,29.59c-32,17.18-69.65-1.61-71.7,4.55-1.53,4.6,17.07,16.65,35.66,21.74,19.9,5.45,37.29,2.24,46.32.48a118.86,118.86,0,0,0,24.37-7.54Z"/><path class="cls-3" d="M129.35,354.77,75.29,356.2V302h43Q123.81,328.41,129.35,354.77Z"/><path class="cls-5" d="M129.35,354.06c0,14.57-12.1,26.37-27,26.37s-27-11.8-27-26.37"/><path class="cls-3" d="M148.48,355.63l54.06,1.42V302.88h-43Q154,329.25,148.48,355.63Z"/><path class="cls-5" d="M148.48,354.91c0,14.57,12.1,26.38,27,26.38s27-11.81,27-26.38"/><rect class="cls-9" x="75.3" y="83.05" width="127.24" height="248.91"/><polygon class="cls-7" points="75.3 109.57 172.6 177.14 202.54 110.42 202.54 83.05 75.3 83.05 75.3 109.57"/><g class="cls-10"><polygon class="cls-8" points="213.4 76.34 145.42 177.14 59.37 115.75 127.34 14.95 213.4 76.34"/></g><path class="cls-8" d="M256.61,328.77l-21.13-92.56a10.3,10.3,0,0,0-12.29-7.73l-5,1.15a10.25,10.25,0,0,0-7.32,6.44l-21,22.33,40.2,106.92,23.2-26.51C256.63,336.24,256.61,328.77,256.61,328.77Z"/><g class="cls-11"><rect class="cls-2" x="161.69" y="225.04" width="95.8" height="62.44" rx="12" ry="12" transform="translate(-120.84 235.96) rotate(-47.21)"/></g><path class="cls-12" d="M224.92,367.58l-4.86,1.14A10,10,0,0,1,208.11,361l-20.55-92.57a10.31,10.31,0,0,1,7.51-12.29l4.86-1.14a10,10,0,0,1,11.95,7.72l20.55,92.57A10.31,10.31,0,0,1,224.92,367.58Z"/><path class="cls-8" d="M202.82,256l-10.34,1.5L75.3,115.55V102.72Z"/></g><g id="Layer_27" data-name="Layer 27"><path class="cls-3" d="M74,83.05a9.84,9.84,0,1,1,0-19.67"/><path class="cls-3" d="M204.88,83.05a9.84,9.84,0,1,0,0-19.67"/><ellipse class="cls-13" cx="139.02" cy="77.06" rx="68" ry="53.89"/><path class="cls-14" d="M127.9,112.56a13.86,13.86,0,0,0,2.56,2.57,10.73,10.73,0,0,0,6,2.56,10.18,10.18,0,0,0,6-1.71c1.52-.91,3.53-2.1,3.42-3.42-.16-1.94-4.85-3.43-8.55-3.42A15.63,15.63,0,0,0,127.9,112.56Z"/><path class="cls-15" d="M163.89,99.93c-.16,1.12-1.29,7.87-7.21,11.43a15.48,15.48,0,0,1-8.8,2,20.32,20.32,0,0,1-10.8-4h0A17.09,17.09,0,0,1,126,113.08a16.5,16.5,0,0,1-7.53-2.38c-4.18-2.55-7.6-7.2-8-11.44-.94-9.49,12.74-20.6,26.26-21,10.76-.27,22.31,6.31,26,16A19.65,19.65,0,0,1,163.89,99.93Z"/><path class="cls-5" d="M147.74,97.44,126.91,97s1.8-7.52,8.26-16.87c.46-.67,1.42-2,2.68-2s2.15,1.4,2.6,2.1C146.44,89.71,147.74,97.44,147.74,97.44Z"/><path class="cls-16" d="M121.48,110.42a10.18,10.18,0,0,0,6.33,2.57c4.18,0,9.15-3.42,9.15-3.42s4.69,3,9.14,3.42a12,12,0,0,0,7-1.71"/><line class="cls-17" x1="83.85" y1="88.18" x2="92.4" y2="91.6"/><line class="cls-17" x1="194.19" y1="88.18" x2="185.64" y2="91.6"/><line class="cls-18" x1="158.69" y1="98.02" x2="193.76" y2="98.02"/><line class="cls-18" x1="81.71" y1="98.02" x2="116.78" y2="98.02"/><line class="cls-18" x1="88.98" y1="109.57" x2="113.78" y2="101.87"/><line class="cls-18" x1="186.49" y1="110.42" x2="161.69" y2="102.72"/><circle class="cls-5" cx="177.94" cy="82.19" r="5.13"/><circle class="cls-5" cx="97.53" cy="82.19" r="5.13"/></g></g><g id="Layer_26" data-name="Layer 26"><path class="cls-7" d="M138.59.49c9.95-1.11,23.95,0,23.95,0S185,3,197.61,11.61a60.38,60.38,0,0,1,14.54,14,77.46,77.46,0,0,1-7.09,7.79,80.56,80.56,0,0,1-7.12,6.06H138.59"/><path class="cls-7" d="M139.45.49c-9.95-1.11-23.95,0-23.95,0S93.07,3,80.42,11.61a60.76,60.76,0,0,0-14.54,14A77.46,77.46,0,0,0,73,33.37a80.56,80.56,0,0,0,7.12,6.06h59.36"/><rect class="cls-8" x="77.28" y="37.1" width="123.57" height="11.99" rx="5.99" ry="5.99"/><path class="cls-8" d="M170.45,29.72a36.46,36.46,0,0,0-10.24-8.3H117.44a36.44,36.44,0,0,0-10.23,8.3,29.79,29.79,0,0,0-4.55,7.38H175A29.4,29.4,0,0,0,170.45,29.72Z"/><path class="cls-19" d="M97.57,58.07a47.64,47.64,0,0,0,13.55,10.44h56.65a47.64,47.64,0,0,0,13.55-10.44,36.73,36.73,0,0,0,6-9.27H91.54A36.73,36.73,0,0,0,97.57,58.07Z"/><g class="cls-20"><polygon class="cls-21" points="110.36 44.56 110.36 72.78 121.77 72.78 121.63 44.56 110.36 44.56"/><polygon class="cls-21" points="125.76 44.56 126.07 72.78 129.18 72.78 129.18 44.56 125.76 44.56"/></g></g></g></g></svg>