<svg xmlns="http://www.w3.org/2000/svg" viewBox="0 0 664.5 223.5"><defs><style>.cls-1{opacity:0.73;}.cls-2,.cls-3,.cls-5{fill:none;stroke:#0f8bbe;stroke-linecap:round;stroke-miterlimit:10;}.cls-2{stroke-width:54px;}.cls-3{stroke-width:40px;}.cls-4{fill:#0f8bbe;}.cls-5{stroke-width:34px;}</style></defs><title>Asset 9</title><g id="Layer_2" data-name="Layer 2"><g id="Layer_17" data-name="Layer 17"><g class="cls-1"><line class="cls-2" x1="27" y1="27" x2="637.5" y2="27"/><line class="cls-3" x1="278" y1="124" x2="537.5" y2="124"/><path class="cls-4" d="M433.13,79c0-11.66,8.2-21.83,20.37-27.28V47.5h-62v4.22c12.17,5.45,20.37,15.62,20.37,27.28s-8.2,21.83-20.37,27.28v4.22h62v-4.22C441.33,100.83,433.13,90.66,433.13,79Z"/><line class="cls-5" x1="162.5" y1="206.5" x2="459.5" y2="206.5"/><path class="cls-4" d="M340.06,165.5c0-10,6.21-18.71,15.44-23.38V138.5h-47v3.62c9.23,4.67,15.44,13.39,15.44,23.38s-6.21,18.71-15.44,23.38v3.62h47v-3.62C346.27,184.21,340.06,175.49,340.06,165.5Z"/></g></g></g></svg>