<svg xmlns="http://www.w3.org/2000/svg" viewBox="0 0 1530.17 228.01"><defs><style>.cls-1{fill:#083964;}.cls-2{fill:#004374;}.cls-3{fill:#024f7d;}</style></defs><title>Asset 25</title><g id="Layer_2" data-name="Layer 2"><g id="Layer_29" data-name="Layer 29"><g id="Layer_35" data-name="Layer 35"><g id="Layer_36" data-name="Layer 36"><path class="cls-1" d="M600.82,96.48c-3-2.79-8.14-2.59-8.14-2.59a23.7,23.7,0,0,0,9.35-5.2c3-2.92,3.46-9.34,3.46-9.34s-14.65,11.18-30.81,9c-2.5-.34-3.37-.83-7.27-2.08h0a116.08,116.08,0,0,0-18.92-4.88c2.35-2.17,2.53-3.31,2.31-4-.43-1.19-2.33-.68-4.16-2.25-2.32-2-1.86-5.15-3.11-5.19-1,0-1.77,1.44-2.77,2.94a26.28,26.28,0,0,1-7.27,7.1c-16.73-.14-44.44,4.43-44.66,10.9s26.4,13.93,46,14c1,0,2,0,3.06,0l-.64,0a26.28,26.28,0,0,0,2.77,6.93c1.07,1.85,1.87,3.19,2.77,3.11,1.41-.12,2.36-3.65,2.43-6.23a12.42,12.42,0,0,0-.68-4.28c4-.38,8-.93,11.47-1.51l-.41.08a7.6,7.6,0,0,1,3.55,2.51c.85,1.13.66,1.79,1.3,2.08,1.36.61,2.61-2.08,6.49-3.46,1.62-.58,2.75-.59,2.94-1.3s-.84-1.71-1.82-2.43c3-.93,4.38-1.52,7.1-1.81,14.42-1.57,27.17,7.35,27.17,7.35S603.47,99,600.82,96.48Z"/><path class="cls-1" d="M1292.64,89.84c-4.4-4.1-11.93-3.81-11.93-3.81s8.13-2.14,13.7-7.61c4.37-4.3,5.08-13.71,5.08-13.71S1278,81.1,1254.31,77.91c-3.68-.5-4.94-1.21-10.67-3h0a168.64,168.64,0,0,0-27.74-7.15c3.44-3.19,3.71-4.86,3.37-5.79-.62-1.75-3.4-1-6.09-3.3-3.4-2.91-2.72-7.56-4.57-7.62-1.51,0-2.58,2.11-4.06,4.32a38.06,38.06,0,0,1-10.66,10.4c-24.54-.2-65.16,6.5-65.49,16s38.71,20.43,67.52,20.56c1.47,0,3,0,4.49-.07l-.94.07a38.17,38.17,0,0,0,4.07,10.15c1.56,2.72,2.73,4.69,4.06,4.57,2.06-.19,3.45-5.36,3.55-9.14a17.83,17.83,0,0,0-1-6.28c5.88-.55,11.68-1.36,16.82-2.22l-.6.13a11,11,0,0,1,5.21,3.68c1.24,1.66,1,2.62,1.9,3,2,.9,3.83-3,9.52-5.07,2.38-.85,4-.87,4.31-1.91s-1.22-2.5-2.66-3.55c4.44-1.37,6.41-2.23,10.41-2.67,21.15-2.29,39.85,10.79,39.85,10.79S1296.53,93.47,1292.64,89.84Z"/><path class="cls-2" d="M322.25,72.35c-2.42-2.25-6.56-2.09-6.56-2.09a19.12,19.12,0,0,0,7.54-4.18c2.4-2.36,2.79-7.54,2.79-7.54s-11.82,9-24.84,7.26c-2-.28-2.71-.67-5.86-1.68h0a93.35,93.35,0,0,0-15.25-3.93c1.89-1.75,2-2.67,1.86-3.18-.35-1-1.87-.55-3.35-1.82-1.87-1.6-1.5-4.15-2.51-4.18-.83,0-1.42,1.16-2.24,2.37A21,21,0,0,1,268,59.1c-13.49-.12-35.82,3.57-36,8.79s21.28,11.23,37.11,11.3c.81,0,1.63,0,2.47,0l-.52,0a21.3,21.3,0,0,0,2.24,5.58c.86,1.49,1.5,2.58,2.23,2.51,1.13-.1,1.9-2.94,1.95-5a9.74,9.74,0,0,0-.54-3.45c3.23-.31,6.42-.75,9.24-1.22l-.33.07a6,6,0,0,1,2.86,2c.69.91.53,1.44,1.05,1.67,1.1.5,2.1-1.67,5.23-2.79,1.31-.46,2.22-.47,2.37-1s-.67-1.38-1.46-2a26.89,26.89,0,0,1,5.72-1.46C313.22,72.84,323.5,80,323.5,80S324.39,74.35,322.25,72.35Z"/><path class="cls-2" d="M1506.71,27.07c-3.06-2.86-8.31-2.65-8.31-2.65a24.26,24.26,0,0,0,9.55-5.31c3-3,3.54-9.56,3.54-9.56s-15,11.43-31.49,9.21c-2.56-.35-3.44-.85-7.43-2.13h0a118.33,118.33,0,0,0-19.34-5c2.4-2.22,2.58-3.39,2.35-4-.44-1.22-2.37-.7-4.25-2.3-2.37-2-1.89-5.27-3.18-5.31-1.05,0-1.8,1.47-2.83,3a26.58,26.58,0,0,1-7.43,7.25c-17.11-.14-45.42,4.53-45.65,11.15s27,14.24,47.06,14.33c1,0,2.07,0,3.13-.05l-.65.05a27,27,0,0,0,2.83,7.08c1.09,1.89,1.91,3.27,2.83,3.18,1.44-.13,2.41-3.73,2.48-6.37a12.5,12.5,0,0,0-.69-4.38c4.1-.38,8.14-1,11.72-1.54l-.42.08a7.73,7.73,0,0,1,3.63,2.57c.87,1.16.67,1.83,1.33,2.12,1.4.63,2.66-2.12,6.63-3.54,1.66-.59,2.82-.6,3-1.32s-.86-1.74-1.86-2.48c3.1-.95,4.47-1.56,7.26-1.86,14.74-1.6,27.78,7.52,27.78,7.52S1509.43,29.6,1506.71,27.07Z"/><path class="cls-2" d="M228.94,190.14c-6.13-5.72-16.63-5.31-16.63-5.31s11.33-3,19.1-10.61c6.09-6,7.08-19.11,7.08-19.11s-30,22.85-63,18.4c-5.12-.69-6.89-1.69-14.86-4.25h0a235.82,235.82,0,0,0-38.68-10c4.8-4.44,5.17-6.77,4.71-8.07-.88-2.44-4.75-1.4-8.49-4.6-4.74-4.06-3.8-10.53-6.37-10.62-2.11-.07-3.6,2.95-5.67,6a53.16,53.16,0,0,1-14.86,14.5C57.09,156.23.46,165.58,0,178.82c-.45,13.07,54,28.47,94.12,28.66,2.06,0,4.15,0,6.26-.1l-1.3.1a53.74,53.74,0,0,0,5.66,14.15c2.18,3.78,3.81,6.54,5.66,6.37,2.88-.26,4.82-7.47,4.95-12.74A24.69,24.69,0,0,0,114,206.5c8.2-.76,16.29-1.9,23.45-3.09l-.84.17a15.39,15.39,0,0,1,7.26,5.14c1.73,2.31,1.34,3.65,2.65,4.24,2.8,1.26,5.34-4.25,13.27-7.08,3.31-1.18,5.63-1.2,6-2.65s-1.72-3.48-3.72-4.95c6.19-1.91,8.94-3.12,14.51-3.72,29.48-3.19,55.55,15,55.55,15S234.36,195.21,228.94,190.14Z"/><path class="cls-3" d="M1524.57,151.78c-3.6-3.36-9.76-3.11-9.76-3.11s6.65-1.75,11.21-6.23c3.57-3.52,4.15-11.22,4.15-11.22s-17.58,13.41-37,10.8c-3-.4-4-1-8.72-2.49h0a138.29,138.29,0,0,0-22.7-5.85c2.81-2.61,3-4,2.76-4.74-.51-1.43-2.79-.82-5-2.7-2.78-2.38-2.22-6.18-3.73-6.23-1.24,0-2.12,1.73-3.33,3.53a31.1,31.1,0,0,1-8.72,8.51c-20.07-.17-53.31,5.32-53.58,13.09s31.67,16.71,55.24,16.82c1.21,0,2.43,0,3.67-.06l-.76.06a31.65,31.65,0,0,0,3.32,8.3c1.29,2.23,2.24,3.84,3.33,3.74,1.68-.15,2.82-4.38,2.9-7.47a14.53,14.53,0,0,0-.81-5.14c4.81-.45,9.56-1.12,13.76-1.82l-.49.1a9.08,9.08,0,0,1,4.26,3c1,1.36.79,2.15,1.56,2.5,1.64.73,3.13-2.5,7.79-4.16,1.94-.69,3.3-.7,3.53-1.55s-1-2.05-2.18-2.91c3.63-1.12,5.24-1.83,8.51-2.18,17.3-1.88,32.61,8.82,32.61,8.82S1527.75,154.76,1524.57,151.78Z"/><path class="cls-3" d="M926.49,138.15c-4.18-3.9-11.35-3.62-11.35-3.62s7.74-2,13-7.25c4.16-4.08,4.84-13,4.84-13s-20.45,15.6-43,12.56c-3.5-.47-4.7-1.15-10.15-2.9h0a161.79,161.79,0,0,0-26.4-6.81c3.27-3,3.53-4.62,3.21-5.51-.59-1.66-3.24-1-5.8-3.14-3.23-2.77-2.59-7.19-4.34-7.25-1.44,0-2.46,2-3.87,4.11a36.29,36.29,0,0,1-10.14,9.91c-23.35-.2-62,6.18-62.33,15.21S807,149.87,834.46,150c1.4,0,2.83,0,4.27-.06l-.89.06a36.63,36.63,0,0,0,3.86,9.66c1.5,2.59,2.61,4.47,3.87,4.35,2-.18,3.29-5.1,3.38-8.69a16.79,16.79,0,0,0-.94-6c5.6-.53,11.12-1.3,16-2.11l-.57.11a10.61,10.61,0,0,1,4.95,3.51c1.18,1.58.92,2.49,1.81,2.9,1.91.85,3.64-2.91,9.06-4.84,2.26-.8,3.84-.82,4.1-1.81s-1.16-2.38-2.53-3.38c4.22-1.3,6.1-2.12,9.9-2.54,20.13-2.18,37.93,10.27,37.93,10.27S930.2,141.61,926.49,138.15Z"/></g></g></g></g></svg>