<svg xmlns="http://www.w3.org/2000/svg" viewBox="0 0 1156.29 204.01"><defs><style>.cls-1{fill:#083964;}.cls-2{fill:#004374;}.cls-3{fill:#024f7d;}</style></defs><title>Asset 23</title><g id="Layer_2" data-name="Layer 2"><g id="Layer_29" data-name="Layer 29"><g id="Layer_35" data-name="Layer 35"><g id="Layer_38" data-name="Layer 38"><path class="cls-1" d="M514.08,36.55C510,32.69,502.88,33,502.88,33s7.64-2,12.88-7.14c4.11-4,4.78-12.87,4.78-12.87s-20.2,15.38-42.45,12.36c-3.46-.46-4.64-1.14-10-2.87h0A160.34,160.34,0,0,0,442,15.7c3.24-3,3.49-4.56,3.18-5.44-.59-1.64-3.2-.94-5.72-3.1-3.19-2.74-2.55-7.1-4.29-7.16-1.42,0-2.43,2-3.82,4.05a35.7,35.7,0,0,1-10,9.77c-23-.21-61.22,6.06-61.54,15S396.15,48,423.22,48.16c1.38,0,2.79,0,4.21-.06l-.87.06a35.83,35.83,0,0,0,3.81,9.55c1.47,2.55,2.56,4.4,3.81,4.29,1.94-.17,3.25-5,3.34-8.58a16.42,16.42,0,0,0-.93-5.9c5.53-.52,11-1.27,15.81-2.08l-.56.12A10.41,10.41,0,0,1,456.72,49c1.17,1.56.91,2.47,1.79,2.87,1.88.84,3.6-2.86,8.95-4.77,2.23-.79,3.79-.8,4.05-1.78S470.36,43,469,42c4.17-1.28,6-2.09,9.78-2.5,19.87-2.13,37.43,10.17,37.43,10.17S517.74,40,514.08,36.55Z"/><path class="cls-1" d="M965.74,104.14c-6.13-5.72-16.63-5.3-16.63-5.3s11.33-3,19.1-10.62c6.09-6,7.08-19.11,7.08-19.11s-30,22.86-63,18.4c-5.12-.69-6.89-1.69-14.86-4.24h0a236.45,236.45,0,0,0-38.68-10c4.8-4.44,5.17-6.77,4.71-8.07-.88-2.43-4.75-1.39-8.49-4.6-4.74-4.06-3.8-10.53-6.37-10.61-2.11-.07-3.6,2.94-5.67,6a53,53,0,0,1-14.86,14.51c-34.2-.29-90.83,9.06-91.29,22.29-.45,13.07,54,28.48,94.12,28.66q3.09,0,6.26-.09l-1.3.09a53.48,53.48,0,0,0,5.66,14.15c2.18,3.79,3.81,6.54,5.66,6.37,2.88-.26,4.82-7.46,4.95-12.73a24.65,24.65,0,0,0-1.38-8.76c8.2-.77,16.29-1.9,23.45-3.1l-.84.18a15.43,15.43,0,0,1,7.26,5.13c1.73,2.31,1.34,3.66,2.65,4.25,2.8,1.25,5.34-4.25,13.27-7.08,3.31-1.18,5.63-1.21,6-2.66s-1.72-3.48-3.72-5c6.19-1.9,8.94-3.11,14.51-3.71,29.48-3.2,55.55,15,55.55,15S971.16,109.21,965.74,104.14Z"/><path class="cls-2" d="M1150.47,181c-3.72-3.48-10.12-3.23-10.12-3.23s6.9-1.82,11.63-6.46c3.71-3.64,4.31-11.63,4.31-11.63s-18.23,13.91-38.34,11.2c-3.12-.42-4.19-1-9-2.59h0a142.74,142.74,0,0,0-23.54-6.07c2.92-2.7,3.15-4.12,2.87-4.91-.53-1.48-2.89-.85-5.17-2.8-2.89-2.47-2.31-6.41-3.88-6.47-1.28,0-2.19,1.8-3.45,3.67a32.29,32.29,0,0,1-9,8.83c-20.82-.18-55.29,5.51-55.57,13.57s32.84,17.33,57.29,17.44c1.25,0,2.52,0,3.81,0l-.79,0a32.35,32.35,0,0,0,3.44,8.62c1.33,2.3,2.32,4,3.45,3.88,1.75-.16,2.93-4.55,3-7.76a15,15,0,0,0-.84-5.33c5-.47,9.92-1.15,14.28-1.88l-.51.1a9.44,9.44,0,0,1,4.41,3.13c1.06,1.41.82,2.22,1.62,2.58,1.7.77,3.25-2.58,8.08-4.31,2-.71,3.42-.73,3.66-1.61s-1-2.12-2.26-3c3.76-1.16,5.44-1.89,8.83-2.26,17.94-1.94,33.81,9.16,33.81,9.16S1153.78,184,1150.47,181Z"/><path class="cls-2" d="M304.79,157.49c-3-2.8-8.14-2.6-8.14-2.6A23.76,23.76,0,0,0,306,149.7c3-2.93,3.46-9.35,3.46-9.35s-14.65,11.18-30.81,9c-2.5-.34-3.36-.83-7.27-2.08h0a115.44,115.44,0,0,0-18.92-4.87c2.35-2.17,2.53-3.32,2.31-4-.43-1.19-2.33-.68-4.16-2.25-2.31-2-1.85-5.15-3.11-5.2-1,0-1.76,1.45-2.77,2.95a26.13,26.13,0,0,1-7.27,7.09C220.73,140.9,193,145.48,192.8,152s26.4,13.93,46,14c1,0,2,0,3.06-.05l-.63.05a26.5,26.5,0,0,0,2.76,6.92c1.07,1.85,1.87,3.2,2.77,3.12,1.41-.13,2.36-3.66,2.43-6.23a12,12,0,0,0-.68-4.29c4-.37,8-.93,11.47-1.51l-.41.08a7.6,7.6,0,0,1,3.55,2.51c.85,1.14.66,1.79,1.3,2.08,1.37.62,2.61-2.08,6.49-3.46,1.62-.58,2.75-.59,2.94-1.3s-.84-1.7-1.82-2.42a33.61,33.61,0,0,1,7.1-1.82c14.42-1.56,27.18,7.36,27.18,7.36S307.44,160,304.79,157.49Z"/><path class="cls-3" d="M52.25,113.37a5.91,5.91,0,0,0-3.79-1.21,11.06,11.06,0,0,0,4.36-2.43c1.39-1.36,1.61-4.36,1.61-4.36s-6.83,5.22-14.37,4.2a17.27,17.27,0,0,1-3.39-1h0a53.65,53.65,0,0,0-8.83-2.27c1.09-1,1.18-1.55,1.07-1.85-.2-.55-1.08-.31-1.93-1-1.09-.92-.87-2.4-1.46-2.42s-.82.67-1.29,1.37a12.22,12.22,0,0,1-3.39,3.32C13,105.63.11,107.76,0,110.78s12.32,6.5,21.48,6.54c.47,0,.95,0,1.43,0l-.3,0a12.11,12.11,0,0,0,1.3,3.24c.49.86.87,1.49,1.29,1.45.65-.06,1.1-1.71,1.13-2.91a5.66,5.66,0,0,0-.32-2c1.88-.17,3.72-.43,5.36-.7l-.2,0a3.45,3.45,0,0,1,1.66,1.17c.39.53.31.83.61,1,.63.28,1.21-1,3-1.62.76-.27,1.29-.27,1.38-.6s-.39-.8-.85-1.13a14.68,14.68,0,0,1,3.31-.85C47,113.65,53,117.81,53,117.81S53.49,114.52,52.25,113.37Z"/><path class="cls-3" d="M366.71,94.08c-3.06-2.86-8.31-2.66-8.31-2.66A24.26,24.26,0,0,0,368,86.11c3.05-3,3.54-9.55,3.54-9.55S356.51,88,340,85.76c-2.56-.35-3.44-.85-7.43-2.12h0a117.82,117.82,0,0,0-19.34-5c2.4-2.22,2.58-3.39,2.35-4-.44-1.21-2.37-.69-4.25-2.3-2.37-2-1.89-5.26-3.18-5.31-1,0-1.8,1.48-2.83,3a26.45,26.45,0,0,1-7.43,7.26c-17.11-.15-45.42,4.53-45.65,11.14s27,14.24,47.06,14.33c1,0,2.07,0,3.13,0l-.65,0a26.87,26.87,0,0,0,2.83,7.08c1.09,1.89,1.91,3.27,2.83,3.19,1.44-.13,2.41-3.74,2.48-6.37a12.42,12.42,0,0,0-.69-4.38c4.1-.38,8.14-1,11.72-1.55l-.42.09a7.7,7.7,0,0,1,3.63,2.56c.87,1.16.67,1.83,1.33,2.13,1.4.63,2.66-2.13,6.63-3.54,1.66-.59,2.82-.6,3-1.33s-.86-1.74-1.86-2.48c3.1-1,4.47-1.55,7.26-1.85,14.74-1.6,27.78,7.52,27.78,7.52S369.43,96.61,366.71,94.08Z"/></g></g></g></g></svg>