<svg xmlns="http://www.w3.org/2000/svg" viewBox="0 0 666.05 443.73"><defs><style>.cls-1{fill:#061c27;}.cls-2{fill:#050f1e;}</style></defs><title>Asset 44</title><g id="Layer_2" data-name="Layer 2"><g id="Layer_7" data-name="Layer 7"><g id="Layer_8" data-name="Layer 8"><path class="cls-1" d="M225.05,3.59C34.18-5.84,1.43,5.23.05,14.59s26.12,28.76,201,73c0,0,30,51.34,69,74,62.32,36.21,145,40,145,40s.59,69.24,32,104c39.43,43.65,141,52,141,52-5.72,34.84,8.61,67.11,34,80,18.07,9.17,36.47,5.84,44,4l-6-436Z"/><path class="cls-2" d="M622.05,436.59c18.07,9.17,36.47,5.84,44,4q-2.71-196.93-5.42-393.88L416.8,223.57c2.86,23.33,10.4,59.06,30.25,81,39.43,43.65,141,52,141,52C582.33,391.43,596.66,423.7,622.05,436.59Z"/></g></g></g></svg>