<svg xmlns="http://www.w3.org/2000/svg" xmlns:xlink="http://www.w3.org/1999/xlink" viewBox="0 0 520.2 900"><defs><style>.cls-1{fill:none;}.cls-2{fill:#2e4d83;}.cls-3{clip-path:url(#clip-path);}.cls-4{fill:#535272;}.cls-5{clip-path:url(#clip-path-2);}.cls-6{clip-path:url(#clip-path-3);}.cls-7{fill:#5c2b48;}.cls-8{clip-path:url(#clip-path-4);}.cls-9{fill:#352f53;}.cls-10{fill:#0d1a4f;}.cls-11{clip-path:url(#clip-path-6);}.cls-12{fill:#00417e;}.cls-13{fill:#143060;}.cls-14{fill:#195474;}.cls-15{clip-path:url(#clip-path-7);}.cls-16{fill:#0057ae;}.cls-17{clip-path:url(#clip-path-8);}.cls-18{clip-path:url(#clip-path-9);}.cls-19{fill:#7f381a;}.cls-20{fill:#502e3f;}.cls-21{clip-path:url(#clip-path-10);}.cls-22{clip-path:url(#clip-path-11);}.cls-23{fill:#061c27;}.cls-24{clip-path:url(#clip-path-12);}.cls-25{fill:#465246;}.cls-26{clip-path:url(#clip-path-13);}.cls-27{fill:#0e2b3d;}</style><clipPath id="clip-path"><path class="cls-1" d="M425,126c-4.37-4.37-14.84-14.83-21-12-8.66,4-3.28,31.61-3,33,6.72,33.37,43,60,43,60V159S435.75,136.73,425,126Z"/></clipPath><clipPath id="clip-path-2"><path class="cls-1" d="M267,100c-4.17,1.9-9.35,6.46-10,12-1.47,12.38,20.42,23.55,36,33,43,26.06,84.36,67,79,78-4.3,8.79-42.74,6.53-73-7-16.39-7.34-29.74-17.69-41-12-5,2.51-10.57,8.67-10,15,1.61,17.8,52.34,40.17,97,34,10.94-1.52,23.71-5.05,36,2,10.88,6.24,15.23,17.25,18,24,14,34.11,45,81,45,81V313s-25.62-68.83-43-93C390.8,205.8,302.91,83.56,267,100Z"/></clipPath><clipPath id="clip-path-3"><path class="cls-1" d="M386,322c-159.48-93.65-211-121.91-239-105-2.89,1.73-14,8.42-13,15,1.27,8.6,22.38,11.88,34,14,0,0,35.08,6.38,105,34,46.25,18.26,85.71,46.85,83,53-1,2.31-8,1.42-69-12-55.71-12.26-77.93-17.68-95-5-6.4,4.74-14.1,13.54-12,20,3.3,10.19,30.18,9.14,53,9,81.94-.52,122.91-.78,153,18,39.51,24.65,58,67,58,67V384S402.07,331.43,386,322Z"/></clipPath><clipPath id="clip-path-4"><path class="cls-1" d="M252,411c-8.69,2.19-14.19,13.8-16,21-2.36,9.34,1,13.37-3,18-4.14,4.83-9.26,2.18-16,8-1.65,1.42-7,6-7,12,0,4,2.34,5.46,10,17,3.94,5.94,5.91,8.95,6,11,.29,7.17-7.24,9.41-9,18-.91,4.43-.35,10.84,3,15,9.4,11.67,33.24-3.91,49,9,6.51,5.33,5.43,10.43,13,14,10.42,4.91,22.21-.2,24-1,13.12-5.91,11.56-15.39,25-25,12.47-8.92,17.75-3.57,28-11,16.5-12,24.12-41.29,14-54-9-11.29-26.93-3.17-37-17-5.14-7.07-1.43-10.51-7-21s-18.21-23.6-30-22c-10.76,1.45-11.6,13.75-23,15C265.2,419.18,261.23,408.66,252,411Z"/></clipPath><clipPath id="clip-path-6"><path class="cls-1" d="M385,452c-9.77,3.51-36,12.95-53,1-6.94-4.88-7.79-10.14-19-17-12.2-7.48-16.5-4.52-23-11-9.16-9.14-2.74-20.9-12-28-5.63-4.33-9.8-1.68-13-6-4.8-6.48-1.42-20.45,7-27,8.13-6.33,15.06-1.13,22-7,8.25-7,1.73-17.11,8-28,10-17.44,45.75-24.59,63-12,7,5.09,10.49,13.44,18,13,5.76-.34,7.16-5.46,14-7,9.47-2.14,18.53,5,21,7,10.94,8.67,17.2,24.85,14,38-1.61,6.62-4.77,8.94-4,15,1.06,8.4,7.93,10.31,10,16C443.06,412.91,416.18,440.78,385,452Z"/></clipPath><clipPath id="clip-path-7"><path class="cls-1" d="M320,774s-8.05-15.35-35-44c-15.19-16.15-21.91-24.87-32-24-1,.09-7.48.64-10,5-4.3,7.43,6.18,20,7,21,7,8.27,11.89,6.88,22,16,4.87,4.39,13.93,12.56,12,18-2.22,6.24-18.79,8.41-32,4-12.6-4.21-13-10.76-26-15-12.66-4.12-28.53-3.07-31,3-1.85,4.52,4.11,10.9,7,14,11.71,12.55,27.29,16.84,41,20,39.39,9,70,2,70,2Z"/></clipPath><clipPath id="clip-path-8"><path class="cls-1" d="M272,900s2.29-11,10-48c2.9-13.93,6.43-26.58,0-37-2.72-4.4-5.05-4.91-6-5-6.92-.65-13.39,14.29-15,18-12.72,29.33-3.84,57-8,58-2.67.62-9.5-10-11-22-1.4-11.15,2.8-15.84,0-28-1.14-4.94-2.87-12.46-8-14-5.31-1.6-11.86,3.9-15,9-5,8.13-2.82,17.63-1,25,4.92,19.94,16.07,29.92,14,32s-14.9-6-26-16c-15-13.52-15.09-20-28-29-9.4-6.53-23.94-13.21-28-9-3.88,4,3.11,16.42,4,18,2.39,4.24,6.05,9.17,24,22,15.23,10.88,22.85,16.32,33,20l18,6h43Z"/></clipPath><clipPath id="clip-path-9"><path class="cls-1" d="M334,780s-10.39-31.74-27-54c-12.43-16.66-33-44.27-43-40-3.51,1.49-5.65,6.91-5,11,1,6.28,8.7,9.83,11,11,22.31,11.29,46.26,56.31,40,63-4.74,5.06-31.8-6.5-49-25-5.67-6.1-10-12.67-21-22-8.69-7.38-19.09-16.21-25-13-5,2.73-4.89,13.42-4,19,6.15,38.38,81.47,52.59,79,63-1.51,6.35-31.85,10.45-60,2-20.32-6.11-32.73-16.72-51-12-1.08.27-14.63,3.9-15,10-.49,8.12,22.57,15.61,33,19,16.14,5.24,39.78,12.92,72,10,0,0,8.06-.73,61-14h0Z"/></clipPath><clipPath id="clip-path-10"><path class="cls-1" d="M444,436s-7.5-29.59-15-50c-4.36-11.88-9.92-25.36-22-31-1.9-.89-6.29-2.87-9-1-3,2-2.92,8,0,20,3.37,13.88,7.71,24.09,16,43a257,257,0,0,1,11,29c4.93,15.94,3.66,17.61,3,18-2.75,1.61-11.69-8.89-16-14-14.49-17.18-27.14-38-41-61-6.81-11.29-10.54-17.5-15-17-5.33.59-9.55,10.52-10,19-.37,6.81,1.62,14.16,22,40,12,15.2,18.63,23.62,30,35,13.55,13.56,20.17,17.66,19,20-2.17,4.33-29.1-1.69-53-14-28.29-14.58-42.44-21.87-56-34-2.82-2.53-9.88-9.06-14-7-3.55,1.77-3.5,9.21-3,13,2.37,17.89,24.75,29,45,39,18.15,9,31.1,15.4,48,15,3.17-.08,8.62-.45,9,1,.63,2.41-13,10.12-28,13-9.6,1.83-22.73,1.22-49,0-6.55-.31-15.07-.77-18,4-1.72,2.79-1.1,6.7,0,9,6,12.54,40.9,8,64,5a250.72,250.72,0,0,0,60-16,118.83,118.83,0,0,0,22-12Z"/></clipPath><clipPath id="clip-path-11"><path class="cls-1" d="M444,462a192.62,192.62,0,0,0-21-45c-12.77-19.66-30.16-46.43-45-43-.42.09-5.84,1.43-8,6-4.32,9.14,8.76,22.1,30,48,17.49,21.33,33.66,41.05,31,44-2.37,2.62-20.24-7.5-35-20-24-20.32-28.87-37.73-50-43-2.5-.63-13-3.26-16,1-4.87,7,13.84,27.64,16,30,26.33,28.74,57.37,34.57,56,40-1.11,4.39-22.55,5-40,2-10.7-1.87-20.06-5.16-34-3-11.15,1.72-13.38,5.09-14,7-1.11,3.38,1.31,7,2,8,5.09,7.56,16.41,8.79,48,10,17.86.68,30.85.92,48,0,24.6-1.32,32-7,32-7Z"/></clipPath><clipPath id="clip-path-12"><path class="cls-1" d="M377,630s-9.6-41.35-15-55a276.3,276.3,0,0,0-14-30c-5.83-.81-12.12-.7-15,3-6.49,8.31,9.48,28.1,6,31-3.83,3.18-26.11-18.31-63-40-10.69-6.29-20.37-11.28-24-8-3.88,3.5,1,14.77,2,17,12,27.47,40.43,30.27,78,64,8.37,7.52,16.09,15.57,15,17-1.75,2.28-25.47-13.41-66-33-26.79-13-37.67-16.37-42-12-3.8,3.83-1.56,12.65,1,18,9.16,19.13,37.84,26,59,31a82.86,82.86,0,0,1,24,9c5.53,3.18,17.26,10.87,16,14-2.63,6.52-60-11.07-63-12-20-6.19-33.13-19.06-39-14-2.62,2.25-2.77,6.88-2,10,5.88,23.86,81.28,23.45,81,28-.14,2.25-18.92,5.66-40,4-17.41-1.38-27.94-5.55-36,1-3.63,2.94-7.54,8.69-6,13,2.74,7.68,21.33,6.64,54,6,67.2-1.32,84-8,84-8Z"/></clipPath><clipPath id="clip-path-13"><path class="cls-1" d="M444,513a299.71,299.71,0,0,0-80,70c-52.53,66-93,316-93,316H444Z"/></clipPath></defs><title>Asset 2</title><g id="Layer_2" data-name="Layer 2"><g id="Layer_7" data-name="Layer 7"><g id="Layer_9" data-name="Layer 9"><path class="cls-2" d="M444,159s-8.26-22.27-19-33c-4.37-4.37-14.84-14.83-21-12-8.66,4-3.28,31.61-3,33,6.72,33.37,43,60,43,60Z"/><path class="cls-2" d="M444,313s-25.62-68.83-43-93c-10.21-14.2-98.1-136.44-134-120-4.17,1.9-9.35,6.46-10,12-1.47,12.38,20.42,23.55,36,33,43,26.06,84.36,67,79,78-4.3,8.79-42.74,6.53-73-7-16.39-7.34-29.74-17.69-41-12-5,2.51-10.57,8.67-10,15,1.61,17.8,52.34,40.17,97,34,10.94-1.52,23.71-5.05,36,2,10.88,6.24,15.23,17.25,18,24,14,34.11,45,81,45,81Z"/><path class="cls-2" d="M444,384s-41.94-52.57-58-62c-159.48-93.65-211-121.91-239-105-2.89,1.73-14,8.42-13,15,1.27,8.6,22.38,11.88,34,14,0,0,35.08,6.38,105,34,46.25,18.26,85.71,46.85,83,53-1,2.31-8,1.42-69-12-55.71-12.26-77.93-17.68-95-5-6.4,4.74-14.1,13.54-12,20,3.3,10.19,30.18,9.14,53,9,81.94-.52,122.91-.78,153,18,39.51,24.65,58,67,58,67Z"/><g class="cls-3"><rect class="cls-4" x="-11.99" y="141" width="480" height="162" rx="12" ry="12" transform="translate(-90.19 226.25) rotate(-45)"/></g><g class="cls-5"><rect class="cls-4" x="-12.99" y="142" width="480" height="162" rx="12" ry="12" transform="translate(-91.19 225.83) rotate(-45)"/></g><g class="cls-6"><rect class="cls-4" x="-11.99" y="141" width="480" height="162" rx="12" ry="12" transform="translate(-90.19 226.25) rotate(-45)"/></g></g><g id="Layer_11" data-name="Layer 11"><path class="cls-7" d="M252,411c-8.69,2.19-14.19,13.8-16,21-2.36,9.34,1,13.37-3,18-4.14,4.83-9.26,2.18-16,8-1.65,1.42-7,6-7,12,0,4,2.34,5.46,10,17,3.94,5.94,5.91,8.95,6,11,.29,7.17-7.24,9.41-9,18-.91,4.43-.35,10.84,3,15,9.4,11.67,33.24-3.91,49,9,6.51,5.33,5.43,10.43,13,14,10.42,4.91,22.21-.2,24-1,13.12-5.91,11.56-15.39,25-25,12.47-8.92,17.75-3.57,28-11,16.5-12,24.12-41.29,14-54-9-11.29-26.93-3.17-37-17-5.14-7.07-1.43-10.51-7-21s-18.21-23.6-30-22c-10.76,1.45-11.6,13.75-23,15C265.2,419.18,261.23,408.66,252,411Z"/><g class="cls-8"><rect class="cls-9" x="210.01" y="393" width="211" height="105" rx="12" ry="12" transform="translate(373.54 -97.31) rotate(41.41)"/></g><path class="cls-9" d="M337.83,529.23A227.12,227.12,0,0,0,226,498a232.89,232.89,0,0,1,59.86,1.63,235.43,235.43,0,0,1,29.6,6.66,239,239,0,0,1,28.72,10.47Z"/><path class="cls-9" d="M336.18,528a248.56,248.56,0,0,0-91.85-50.66,256.49,256.49,0,0,0-34.82-7.84A256.42,256.42,0,0,1,344.84,517Z"/><path class="cls-10" d="M336.36,524.23a156.91,156.91,0,0,0-16.12-31.17,153.92,153.92,0,0,0-22.87-26.91,167.39,167.39,0,0,0-13.74-11.28,149,149,0,0,0-15-9.63,155.08,155.08,0,0,0-33.1-13.74,156.42,156.42,0,0,1,34.13,11.74,154,154,0,0,1,15.89,8.83,173,173,0,0,1,14.8,10.69,159.35,159.35,0,0,1,25.4,26.37,165.17,165.17,0,0,1,18.93,31.63Z"/><path class="cls-10" d="M336,523.05a298.73,298.73,0,0,0-4.43-31.3A296.11,296.11,0,0,0,323.82,461a297.44,297.44,0,0,0-25.31-58.48,299.6,299.6,0,0,1,29.56,57,300.49,300.49,0,0,1,10.11,30.71A305,305,0,0,1,345,521.94Z"/><g class="cls-8"><rect class="cls-10" x="269.37" y="485.94" width="148.48" height="64" rx="12" ry="12" transform="translate(-276.6 477.05) rotate(-52.67)"/></g><path class="cls-10" d="M443.34,453.66c-7.3-9.1-17.79-17-27.78-15.65-12.15,1.64-13.1,15.54-26,16.95-12.21,1.34-16.7-10.54-27.12-7.91-9.82,2.48-16,15.6-18.08,23.73-2.66,10.56,1.1,15.1-3.39,20.34-4.68,5.46-10.45,2.46-18.07,9-1.86,1.61-7.87,6.78-7.91,13.56,0,4.55,2.65,6.17,11.3,19.21,4.45,6.71,6.68,10.12,6.78,12.43.33,8.11-8.18,10.63-10.17,20.33-1,5-.4,12.26,3.39,17,10.62,13.18,37.55-4.41,55.36,10.17,7.35,6,6.14,11.79,14.68,15.82,11.78,5.55,25.11-.23,27.12-1.13,11.12-5,12.91-12.29,19.51-20.19"/></g><g id="Layer_10" data-name="Layer 10"><path class="cls-7" d="M385,452c-9.77,3.51-36,12.95-53,1-6.94-4.88-7.79-10.14-19-17-12.2-7.48-16.5-4.52-23-11-9.16-9.14-2.74-20.9-12-28-5.63-4.33-9.8-1.68-13-6-4.8-6.48-1.42-20.45,7-27,8.13-6.33,15.06-1.13,22-7,8.25-7,1.73-17.11,8-28,10-17.44,45.75-24.59,63-12,7,5.09,10.49,13.44,18,13,5.76-.34,7.16-5.46,14-7,9.47-2.14,18.53,5,21,7,10.94,8.67,17.2,24.85,14,38-1.61,6.62-4.77,8.94-4,15,1.06,8.4,7.93,10.31,10,16C443.06,412.91,416.18,440.78,385,452Z"/><g class="cls-11"><rect class="cls-9" x="370.29" y="281.37" width="104.2" height="194.36" rx="12" ry="12" transform="translate(89.63 -80.78) rotate(12.21)"/></g><path class="cls-9" d="M381.62,455a162.87,162.87,0,0,0-21-21.48c-3.82-3.27-7.84-6.32-12-9.21s-8.44-5.57-12.85-8.06a158.33,158.33,0,0,0-27.85-12.33A161.75,161.75,0,0,0,278,397a162.85,162.85,0,0,1,59.81,15.21,156.25,156.25,0,0,1,13.83,7.33c4.49,2.67,8.89,5.53,13.11,8.63A170.7,170.7,0,0,1,388.39,449Z"/><path class="cls-9" d="M381.06,453.15A744.62,744.62,0,0,0,350.51,311.5,748.74,748.74,0,0,1,390,451.84Z"/><path class="cls-9" d="M367.44,375.67a132.73,132.73,0,0,0-14.56-12.94,129.1,129.1,0,0,0-16.4-10.67,131.2,131.2,0,0,0-37-13.56,133.81,133.81,0,0,1,56,20.56,137.09,137.09,0,0,1,16.1,12.27Z"/></g><g id="Layer_15" data-name="Layer 15"><path class="cls-12" d="M164,900s-49.4-19.17-56-23c-15.78-9.16-17.74-12.9-29-16-7.12-2-25.19-7-44,0-10.16,3.75-16,9.31-25,7-4.27-1.11-9.76-4.14-10-8-.08-1.22.21-4.84,10-10,24.65-13,49-3.83,52-11,2.25-5.36-8.38-17.46-20-23-11.1-5.3-19.7-3-24-10-2.58-4.21-2.82-10.46,0-13,3.41-3.09,10.58-.08,20,4,6.72,2.9,14.21,6.15,23,13,7.54,5.88,11.2,11,21,23,6.2,7.58,9.3,11.37,10,12,8.28,7.41,16.86,10,31,14,12.33,3.52,18.5,5.28,21,3,7.33-6.69-5.82-34.41-8-39-4.32-9.1-10.24-18.64-10-31,0-2.37.21-7.88,3-9,2.52-1,5.93,2,7,3,6.38,5.72,6.89,13.07,10,25s5.93,22.76,10,23c4.29.24,8.67-11.46,10-15,3.51-9.39,2.35-13.87,7-19,2.49-2.75,7.26-6.38,10-5,4.25,2.12,1.84,15.38,0,22-4.27,15.28-17,17.87-16,27,.52,4.87,4.43,10,9,11,10,2.1,24.85-15.35,30-33,3.53-12.12.83-18.65,7-31,2.83-5.67,8-15.82,11-15,3.55,1,2.3,16.24,2,20-2.73,33.42-20.09,60.59-21,62-5.59,8.56-9.33,12.16-8,14,2.65,3.67,24.46-1.24,34-16,8.33-12.9,3.84-28,13-32,.19-.09,4.47-1.91,7,0,4.53,3.42,2,17.74-5,28-4.2,6.18-7.66,7.44-7,10,1.25,4.84,15.82,8.33,26,3,7.91-4.15,9.55-11.72,14-11,3.43.55,6.47,5.69,6,10-.86,7.83-13.39,13.39-23,15-14.59,2.43-19.39-4.78-34-1-2.64.68-14.33,4-15,10-.63,5.58,8,12,8,12Z"/></g><g id="Layer_14" data-name="Layer 14"><path class="cls-13" d="M334,780s-10.39-31.74-27-54c-12.43-16.66-33-44.27-43-40-3.51,1.49-5.65,6.91-5,11,1,6.28,8.7,9.83,11,11,22.31,11.29,46.26,56.31,40,63-4.74,5.06-31.8-6.5-49-25-5.67-6.1-10-12.67-21-22-8.69-7.38-19.09-16.21-25-13-5,2.73-4.89,13.42-4,19,6.15,38.38,81.47,52.59,79,63-1.51,6.35-31.85,10.45-60,2-20.32-6.11-32.73-16.72-51-12-1.08.27-14.63,3.9-15,10-.49,8.12,22.57,15.61,33,19,16.14,5.24,39.78,12.92,72,10,0,0,8.06-.73,61-14h0Z"/><path class="cls-14" d="M320,774s-8.05-15.35-35-44c-15.19-16.15-21.91-24.87-32-24-1,.09-7.48.64-10,5-4.3,7.43,6.18,20,7,21,7,8.27,11.89,6.88,22,16,4.87,4.39,13.93,12.56,12,18-2.22,6.24-18.79,8.41-32,4-12.6-4.21-13-10.76-26-15-12.66-4.12-28.53-3.07-31,3-1.85,4.52,4.11,10.9,7,14,11.71,12.55,27.29,16.84,41,20,39.39,9,70,2,70,2Z"/><path class="cls-14" d="M272,900s2.29-11,10-48c2.9-13.93,6.43-26.58,0-37-2.72-4.4-5.05-4.91-6-5-6.92-.65-13.39,14.29-15,18-12.72,29.33-3.84,57-8,58-2.67.62-9.5-10-11-22-1.4-11.15,2.8-15.84,0-28-1.14-4.94-2.87-12.46-8-14-5.31-1.6-11.86,3.9-15,9-5,8.13-2.82,17.63-1,25,4.92,19.94,16.07,29.92,14,32s-14.9-6-26-16c-15-13.52-15.09-20-28-29-9.4-6.53-23.94-13.21-28-9-3.88,4,3.11,16.42,4,18,2.39,4.24,6.05,9.17,24,22,15.23,10.88,22.85,16.32,33,20l18,6h43Z"/><g class="cls-15"><rect class="cls-16" x="161.01" y="699" width="125" height="59" rx="12" ry="12" transform="translate(-501.4 493.62) rotate(-54.99)"/></g><g class="cls-17"><rect class="cls-16" x="121.01" y="801" width="192" height="43" rx="12" ry="12" transform="translate(-108.47 36.59) rotate(-7.72)"/></g><g class="cls-18"><rect class="cls-16" x="114.01" y="720" width="189" height="36" rx="12" ry="12" transform="translate(-474.68 389.62) rotate(-47.21)"/></g></g><g id="Layer_12" data-name="Layer 12"><path class="cls-19" d="M444,436s-7.5-29.59-15-50c-4.36-11.88-9.92-25.36-22-31-1.9-.89-6.29-2.87-9-1-3,2-2.92,8,0,20,3.37,13.88,7.71,24.09,16,43a257,257,0,0,1,11,29c4.93,15.94,3.66,17.61,3,18-2.75,1.61-11.69-8.89-16-14-14.49-17.18-27.14-38-41-61-6.81-11.29-10.54-17.5-15-17-5.33.59-9.55,10.52-10,19-.37,6.81,1.62,14.16,22,40,12,15.2,18.63,23.62,30,35,13.55,13.56,20.17,17.66,19,20-2.17,4.33-29.1-1.69-53-14-28.29-14.58-42.44-21.87-56-34-2.82-2.53-9.88-9.06-14-7-3.55,1.77-3.5,9.21-3,13,2.37,17.89,24.75,29,45,39,18.15,9,31.1,15.4,48,15,3.17-.08,8.62-.45,9,1,.63,2.41-13,10.12-28,13-9.6,1.83-22.73,1.22-49,0-6.55-.31-15.07-.77-18,4-1.72,2.79-1.1,6.7,0,9,6,12.54,40.9,8,64,5a250.72,250.72,0,0,0,60-16,118.83,118.83,0,0,0,22-12Z"/><path class="cls-20" d="M444,462a192.62,192.62,0,0,0-21-45c-12.77-19.66-30.16-46.43-45-43-.42.09-5.84,1.43-8,6-4.32,9.14,8.76,22.1,30,48,17.49,21.33,33.66,41.05,31,44-2.37,2.62-20.24-7.5-35-20-24-20.32-28.87-37.73-50-43-2.5-.63-13-3.26-16,1-4.87,7,13.84,27.64,16,30,26.33,28.74,57.37,34.57,56,40-1.11,4.39-22.55,5-40,2-10.7-1.87-20.06-5.16-34-3-11.15,1.72-13.38,5.09-14,7-1.11,3.38,1.31,7,2,8,5.09,7.56,16.41,8.79,48,10,17.86.68,30.85.92,48,0,24.6-1.32,32-7,32-7Z"/><g class="cls-21"><rect class="cls-20" x="351.01" y="443" width="187" height="77" rx="12" ry="12" transform="translate(-194.73 625.7) rotate(-60)"/></g><g class="cls-22"><rect class="cls-19" x="202.01" y="430" width="245" height="41" rx="12" ry="12" transform="translate(-227.89 506.28) rotate(-60)"/></g></g><g id="Layer_13" data-name="Layer 13"><path class="cls-23" d="M377,630s-9.6-41.35-15-55a276.3,276.3,0,0,0-14-30c-5.83-.81-12.12-.7-15,3-6.49,8.31,9.48,28.1,6,31-3.83,3.18-26.11-18.31-63-40-10.69-6.29-20.37-11.28-24-8-3.88,3.5,1,14.77,2,17,12,27.47,40.43,30.27,78,64,8.37,7.52,16.09,15.57,15,17-1.75,2.28-25.47-13.41-66-33-26.79-13-37.67-16.37-42-12-3.8,3.83-1.56,12.65,1,18,9.16,19.13,37.84,26,59,31a82.86,82.86,0,0,1,24,9c5.53,3.18,17.26,10.87,16,14-2.63,6.52-60-11.07-63-12-20-6.19-33.13-19.06-39-14-2.62,2.25-2.77,6.88-2,10,5.88,23.86,81.28,23.45,81,28-.14,2.25-18.92,5.66-40,4-17.41-1.38-27.94-5.55-36,1-3.63,2.94-7.54,8.69-6,13,2.74,7.68,21.33,6.64,54,6,67.2-1.32,84-8,84-8Z"/><g class="cls-24"><rect class="cls-25" x="152.95" y="546.4" width="221" height="117.3" rx="12" ry="12" transform="translate(-386.57 491.17) rotate(-56.53)"/></g></g><g id="Layer_8" data-name="Layer 8"><path class="cls-23" d="M444,816a341,341,0,0,0-171,51c-37.5.49-68.07,2.9-89,5,0,0-42.82,4.29-170,28H444Z"/></g><g id="Layer_16" data-name="Layer 16"><path class="cls-23" d="M444,514a299.71,299.71,0,0,0-80,70c-52.53,66-93,316-93,316H444Z"/><g class="cls-26"><path class="cls-27" d="M476.46,551.06c-3.25-2-7.92-.47-10.38,3.47l-133,212.56c-2.46,3.94-1.83,8.82,1.42,10.85l12,7.53L486,557Z"/><path class="cls-27" d="M460.81,514.1,355.18,448,157.94,772.86l101.34,63.4a12,12,0,0,0,16.54-3.81l188.8-301.81A12,12,0,0,0,460.81,514.1Z"/></g></g></g></g></svg>