<svg xmlns="http://www.w3.org/2000/svg" viewBox="0 0 963.5 309"><defs><style>.cls-1{opacity:0.45;}.cls-2,.cls-5,.cls-6{fill:none;stroke-linecap:round;stroke-miterlimit:10;}.cls-2{stroke:#0081bf;stroke-width:25px;}.cls-3{fill:#0081bf;}.cls-4{opacity:0.69;}.cls-5,.cls-6{stroke:#0f8bbe;}.cls-5{stroke-width:38px;}.cls-6{stroke-width:26px;}.cls-7{fill:#0f8bbe;}</style></defs><title>Asset 8</title><g id="Layer_2" data-name="Layer 2"><g id="Layer_17" data-name="Layer 17"><g class="cls-1"><line class="cls-2" x1="581.5" y1="12.5" x2="844.5" y2="12.5"/><line class="cls-2" x1="12.5" y1="194.5" x2="275.5" y2="194.5"/><line class="cls-2" x1="47.5" y1="263.5" x2="310.5" y2="263.5"/><line class="cls-2" x1="379.5" y1="296.5" x2="467.5" y2="296.5"/><path class="cls-3" d="M227.06,231.5c0-10,6.21-18.71,15.44-23.38V204.5h-47v3.62c9.23,4.67,15.44,13.39,15.44,23.38s-6.21,18.71-15.44,23.38v3.62h47v-3.62C233.27,250.21,227.06,241.49,227.06,231.5Z"/><line class="cls-2" x1="663" y1="80" x2="926" y2="80"/><g class="cls-4"><line class="cls-5" x1="529.5" y1="158.5" x2="944.5" y2="158.5"/><line class="cls-6" x1="550.5" y1="227.5" x2="794.5" y2="227.5"/><path class="cls-7" d="M681.06,194.5c0-10,6.21-18.71,15.44-23.38V167.5h-47v3.62c9.23,4.67,15.44,13.39,15.44,23.38s-6.21,18.71-15.44,23.38v3.62h47v-3.62C687.27,213.21,681.06,204.49,681.06,194.5Z"/></g></g></g></g></svg>