<svg xmlns="http://www.w3.org/2000/svg" viewBox="0 0 1511.49 228.01"><defs><style>.cls-1{fill:#004374;}</style></defs><title>Asset 12</title><g id="Layer_2" data-name="Layer 2"><g id="Layer_29" data-name="Layer 29"><g id="Layer_32" data-name="Layer 32"><path class="cls-1" d="M492,173.48c-3-2.79-8.14-2.59-8.14-2.59a23.7,23.7,0,0,0,9.35-5.2c3-2.92,3.46-9.34,3.46-9.34s-14.65,11.18-30.81,9c-2.5-.34-3.36-.83-7.27-2.08h0a116.08,116.08,0,0,0-18.92-4.88c2.35-2.17,2.53-3.31,2.31-3.95-.43-1.19-2.33-.68-4.16-2.25-2.31-2-1.85-5.15-3.11-5.19-1,0-1.76,1.44-2.77,2.94a26.28,26.28,0,0,1-7.27,7.1c-16.73-.14-44.43,4.43-44.66,10.9s26.4,13.93,46,14c1,0,2,0,3.06,0l-.63,0a26.55,26.55,0,0,0,2.76,6.93c1.07,1.85,1.87,3.19,2.77,3.11,1.41-.12,2.36-3.65,2.43-6.23a12,12,0,0,0-.68-4.28c4-.38,8-.93,11.47-1.51l-.41.08a7.6,7.6,0,0,1,3.55,2.51c.85,1.13.66,1.79,1.3,2.08,1.37.61,2.61-2.08,6.49-3.46,1.62-.58,2.75-.59,2.94-1.3s-.84-1.71-1.82-2.43c3-.93,4.38-1.52,7.1-1.81,14.42-1.57,27.18,7.35,27.18,7.35S494.64,176,492,173.48Z" transform="translate(0 0)"/><path class="cls-1" d="M978.84,52.66c-4.26-4-11.57-3.69-11.57-3.69s7.89-2.07,13.3-7.38c4.23-4.17,4.92-13.3,4.92-13.3s-20.84,15.9-43.82,12.8c-3.56-.48-4.78-1.17-10.33-3h0a164.44,164.44,0,0,0-26.91-6.94c3.34-3.09,3.6-4.71,3.27-5.61-.6-1.7-3.3-1-5.9-3.2-3.3-2.83-2.64-7.33-4.43-7.39-1.47-.05-2.51,2.05-3.94,4.19a37,37,0,0,1-10.34,10.09c-23.79-.2-63.19,6.3-63.51,15.51s37.54,19.81,65.48,19.93q2.15,0,4.35-.06l-.91.06a37.83,37.83,0,0,0,3.94,9.85c1.52,2.63,2.66,4.55,3.94,4.43,2-.18,3.35-5.19,3.45-8.86a17.11,17.11,0,0,0-1-6.09c5.71-.54,11.34-1.32,16.32-2.15l-.58.12a10.65,10.65,0,0,1,5,3.57c1.21,1.61.94,2.54,1.85,3,1.94.87,3.71-3,9.23-4.92,2.31-.82,3.92-.84,4.19-1.85s-1.2-2.42-2.59-3.45c4.3-1.32,6.22-2.16,10.09-2.58,20.51-2.22,38.65,10.46,38.65,10.46S982.62,56.19,978.84,52.66Z" transform="translate(0 0)"/><path class="cls-1" d="M228.94,190.14c-6.13-5.72-16.63-5.31-16.63-5.31s11.33-3,19.1-10.61c6.09-6,7.08-19.11,7.08-19.11s-30,22.85-63,18.4c-5.12-.69-6.89-1.69-14.86-4.25h0a235.82,235.82,0,0,0-38.68-10c4.8-4.44,5.17-6.77,4.71-8.07-.88-2.44-4.75-1.4-8.49-4.6-4.74-4.06-3.8-10.53-6.37-10.62-2.11-.07-3.6,2.95-5.67,6a53.16,53.16,0,0,1-14.86,14.5C57.09,156.23.46,165.58,0,178.82c-.45,13.07,54,28.47,94.12,28.66,2.06,0,4.15,0,6.26-.1l-1.3.1a53.74,53.74,0,0,0,5.66,14.15c2.18,3.78,3.81,6.54,5.66,6.37,2.88-.26,4.82-7.47,4.95-12.74A24.69,24.69,0,0,0,114,206.5c8.2-.76,16.29-1.9,23.45-3.09l-.84.17a15.39,15.39,0,0,1,7.26,5.14c1.73,2.31,1.34,3.65,2.65,4.24,2.8,1.26,5.34-4.25,13.27-7.08,3.31-1.18,5.63-1.2,6-2.65s-1.72-3.48-3.72-4.95c6.19-1.91,8.94-3.12,14.51-3.72,29.48-3.19,55.55,15,55.55,15S234.36,195.21,228.94,190.14Z" transform="translate(0 0)"/><path class="cls-1" d="M1337.67,197c-3.72-3.49-10.12-3.24-10.12-3.24s6.9-1.81,11.63-6.46c3.71-3.64,4.31-11.63,4.31-11.63s-18.23,13.91-38.34,11.2c-3.12-.42-4.19-1-9.05-2.58h0a142.74,142.74,0,0,0-23.54-6.07c2.92-2.71,3.15-4.13,2.87-4.92-.53-1.48-2.89-.84-5.17-2.8-2.89-2.47-2.31-6.41-3.88-6.46-1.28,0-2.19,1.79-3.45,3.66a32.29,32.29,0,0,1-9,8.83c-20.82-.17-55.29,5.52-55.57,13.57s32.84,17.34,57.29,17.45q1.88,0,3.81-.06l-.79.06a32.35,32.35,0,0,0,3.44,8.62c1.33,2.3,2.32,4,3.45,3.87,1.75-.16,2.93-4.54,3-7.75a15,15,0,0,0-.84-5.33c5-.47,9.92-1.16,14.28-1.89l-.51.11a9.41,9.41,0,0,1,4.41,3.12c1.06,1.41.82,2.23,1.62,2.59,1.7.76,3.25-2.59,8.08-4.31,2-.72,3.42-.73,3.66-1.62s-1-2.12-2.26-3c3.76-1.16,5.44-1.9,8.83-2.26,17.94-2,33.81,9.15,33.81,9.15S1341,200,1337.67,197Z" transform="translate(0 0)"/><path class="cls-1" d="M1506.71,27.07c-3.06-2.86-8.31-2.65-8.31-2.65a24.26,24.26,0,0,0,9.55-5.31c3-3,3.54-9.56,3.54-9.56s-15,11.43-31.49,9.21c-2.56-.35-3.44-.85-7.43-2.13h0a118.33,118.33,0,0,0-19.34-5c2.4-2.22,2.58-3.39,2.35-4-.44-1.22-2.37-.7-4.25-2.3-2.37-2-1.89-5.27-3.18-5.31-1.05,0-1.8,1.47-2.83,3a26.58,26.58,0,0,1-7.43,7.25c-17.11-.14-45.42,4.53-45.65,11.15s27,14.24,47.06,14.33c1,0,2.07,0,3.13-.05l-.65.05a27,27,0,0,0,2.83,7.08c1.09,1.89,1.91,3.27,2.83,3.18,1.44-.13,2.41-3.73,2.48-6.37a12.5,12.5,0,0,0-.69-4.38c4.1-.38,8.14-1,11.72-1.54l-.42.08a7.73,7.73,0,0,1,3.63,2.57c.87,1.16.67,1.83,1.33,2.12,1.4.63,2.66-2.12,6.63-3.54,1.66-.59,2.82-.6,3-1.32s-.86-1.74-1.86-2.48c3.1-.95,4.47-1.56,7.26-1.86,14.74-1.6,27.78,7.52,27.78,7.52S1509.43,29.6,1506.71,27.07Z" transform="translate(0 0)"/><path class="cls-1" d="M322.25,72.35c-2.42-2.25-6.56-2.09-6.56-2.09a19.12,19.12,0,0,0,7.54-4.18c2.4-2.36,2.79-7.54,2.79-7.54s-11.82,9-24.84,7.26c-2-.28-2.71-.67-5.86-1.68h0a93.35,93.35,0,0,0-15.25-3.93c1.89-1.75,2-2.67,1.86-3.18-.35-1-1.87-.55-3.35-1.82-1.87-1.6-1.5-4.15-2.51-4.18-.83,0-1.42,1.16-2.24,2.37A21,21,0,0,1,268,59.1c-13.49-.12-35.82,3.57-36,8.79s21.28,11.23,37.11,11.3c.81,0,1.63,0,2.47,0l-.52,0a21.3,21.3,0,0,0,2.24,5.58c.86,1.49,1.5,2.58,2.23,2.51,1.13-.1,1.9-2.94,1.95-5a9.74,9.74,0,0,0-.54-3.45c3.23-.31,6.42-.75,9.24-1.22l-.33.07a6,6,0,0,1,2.86,2c.69.91.53,1.44,1.05,1.67,1.1.5,2.1-1.67,5.23-2.79,1.31-.46,2.22-.47,2.37-1s-.67-1.38-1.46-2a26.89,26.89,0,0,1,5.72-1.46C313.22,72.84,323.5,80,323.5,80S324.39,74.35,322.25,72.35Z" transform="translate(0 0)"/></g></g></g></svg>