<svg xmlns="http://www.w3.org/2000/svg" xmlns:xlink="http://www.w3.org/1999/xlink" viewBox="0 0 362.79 811.17"><defs><style>.cls-1{fill:none;}.cls-2{fill:#006466;}.cls-3{clip-path:url(#clip-path);}.cls-4{fill:#00394c;}</style><clipPath id="clip-path"><path class="cls-1" d="M133.48,352.17l5.28-11.28c6.53-13.56,13.14-27.09,20-40.49a231.14,231.14,0,0,1,32.67-10.92c26.45-6.69,46.32-6.67,53.28-7.1,22.77-1.42,55.91-17,100.34-80.81,0,0-23.86,13.3-76.37,31.08-32.62,11-38.4,8.19-59.49,18.65-18.43,9.14-33,22.95-42.6,34,13.52-25.76,27.84-51.11,42.76-76.12q3.51-5.82,7.05-11.6a270.71,270.71,0,0,0,86-67C352.2,72,362.84,0,362.84,0s-10.58,21-37.3,53.28C292,93.78,272.69,97,247.4,130.53c-9.83,13-22.68,33.47-32.18,63.3q-4.46,6.71-8.85,13.44c-18.09,28-35.42,56.51-51.72,85.63-8.22,14.53-16.07,29.26-23.84,44l-5.71,11.14c-1.9,3.71-3.81,7.43-5.65,11.18l-5.56,11.22c-1.88,3.73-3.6,7.54-5.4,11.3L97.78,404.44c-1.83,3.76-3.45,7.61-5.16,11.42l-5.08,11.46C80.6,442.53,74.41,458.06,68,473.49l-1.2,2.9-1.13,2.92-2.27,5.85-4.54,11.7-4.54,11.69c-1.48,3.91-2.86,7.86-4.3,11.79L41.44,544l-8,23.79c-2.75,7.91-5.16,15.93-7.69,23.91s-5.08,16-7.35,24l-7,24.14L4.83,664.08Q2.39,673.46.05,682.84L1.51,802.38Q8.2,753.52,17.93,705.1a55.49,55.49,0,0,1,19,2.62c18,5.87,18.32,20.34,37.3,29.3,13.78,6.51,27,5.2,34.63,4.44,31.2-3.1,55.05-31.08,55.05-31.08s-21.65,7.43-50.61,1.78c-33.84-6.61-39.3-29.88-65.71-29.31-10.56.24-20,5-27.23,10.28q2.51-12,5.16-24L31.13,645l6.07-24.06c.93-3.83,1.94-7.65,3-11.46a190.51,190.51,0,0,1,46.51,4.16c27.1,5.86,33,13.44,54.17,14.21,29.67,1.08,52.49-12.53,60.38-17.76a108,108,0,0,0,40-48.84s-29.64,14.12-82.58,21.31c-27.86,3.79-31.93-.38-61.28,4.44-21.49,3.54-43,12-55.82,17.61.7-2.55,1.41-5.1,2.1-7.64,2.22-8,4.31-16,6.75-23.89l7.1-23.8,7.61-23.65c1.28-3.94,2.51-7.89,3.84-11.81L73,502l.17-.47a242.32,242.32,0,0,1,40.16-7.84c43.55-4.9,56,12.16,90.57,8.88,44.29-4.21,77.26-46.18,77.26-46.18s-27.6,3.4-92.35,5.33c-35.32,1.05-42.33-1.5-61.27,3.55-22.34,6-40.55,18.81-51.56,28.16l1.1-3.17,2-5.87,1-2.93,1.09-2.91c5.85-15.5,11.44-31.12,17.78-46.44l4.63-11.55c1.56-3.84,3-7.72,4.72-11.51l9.82-22.86c.08-.18.16-.36.23-.54,7-1.4,19.28-3.61,35.77-5.63,38.66-4.73,47.46,8,84.35,2.67,11.42-1.65,26.3-3.94,42.63-13.32,23.06-13.26,35.24-32.77,40.84-43.51-33.72,17.34-58.65,18.88-75.48,16.87-11.88-1.42-33.39-4.43-63.83-2.31a72.13,72.13,0,0,0-13.42,2.31c-18.93,5-34.18,17.43-44.24,27.88l3.24-7.17C130,359.68,131.72,355.93,133.48,352.17Z"/></clipPath></defs><title>Asset 26</title><g id="Layer_2" data-name="Layer 2"><g id="Layer_6" data-name="Layer 6"><path class="cls-2" d="M133.43,352.17l5.28-11.28c6.53-13.56,13.14-27.09,20-40.49a231.14,231.14,0,0,1,32.67-10.92c26.45-6.69,46.32-6.67,53.28-7.1,22.77-1.42,55.91-17,100.34-80.81,0,0-23.86,13.3-76.37,31.08-32.62,11-38.4,8.19-59.49,18.65-18.43,9.14-33,22.95-42.6,34,13.52-25.76,27.84-51.11,42.76-76.12q3.51-5.82,7-11.6a270.71,270.71,0,0,0,86-67C352.15,72,362.79,0,362.79,0s-10.58,21-37.3,53.28C292,93.78,272.64,97,247.35,130.53c-9.83,13-22.68,33.47-32.18,63.3q-4.46,6.71-8.85,13.44c-18.09,28-35.43,56.51-51.72,85.63-8.22,14.53-16.07,29.26-23.84,44l-5.71,11.14c-1.9,3.71-3.81,7.43-5.65,11.18l-5.56,11.22c-1.88,3.73-3.6,7.54-5.4,11.3L97.73,404.44c-1.83,3.76-3.45,7.61-5.16,11.42l-5.08,11.46c-6.94,15.21-13.13,30.74-19.59,46.17l-1.2,2.9-1.13,2.92-2.27,5.85-4.54,11.7-4.54,11.69c-1.49,3.91-2.87,7.86-4.3,11.79L41.39,544l-8,23.79c-2.75,7.91-5.16,15.93-7.69,23.91s-5.08,16-7.35,24l-7,24.14L4.78,664.08Q2.34,673.46,0,682.84L1.45,802.38q6.7-48.86,16.43-97.28a55.49,55.49,0,0,1,19,2.62c18,5.87,18.32,20.34,37.3,29.3,13.78,6.51,27,5.2,34.63,4.44,31.2-3.1,55.05-31.08,55.05-31.08s-21.65,7.43-50.61,1.78c-33.84-6.61-39.3-29.88-65.71-29.31-10.56.24-20,5-27.23,10.28q2.51-12,5.16-24L31.08,645l6.07-24.06c.93-3.83,1.94-7.65,3-11.46a190.51,190.51,0,0,1,46.51,4.16c27.09,5.86,33,13.44,54.16,14.21,29.68,1.08,52.5-12.53,60.39-17.76a108.11,108.11,0,0,0,40-48.84s-29.64,14.12-82.59,21.31c-27.86,3.79-31.92-.38-61.27,4.44-21.49,3.54-43,12-55.82,17.61.7-2.55,1.41-5.1,2.1-7.64,2.22-8,4.31-16,6.75-23.89l7.1-23.8L65,525.58c1.28-3.94,2.51-7.89,3.84-11.81L72.94,502l.17-.47a242.32,242.32,0,0,1,40.16-7.84c43.54-4.9,56,12.16,90.57,8.88,44.29-4.21,77.26-46.18,77.26-46.18s-27.6,3.4-92.35,5.33c-35.32,1.05-42.33-1.5-61.27,3.55-22.34,6-40.55,18.81-51.56,28.16l1.1-3.17,2-5.87,1-2.93,1.09-2.91C87,463.08,92.61,447.46,99,432.14l4.63-11.55c1.56-3.84,3-7.72,4.72-11.51l9.82-22.86c.08-.18.16-.36.23-.54,7-1.4,19.28-3.61,35.76-5.63,38.67-4.73,47.47,8,84.36,2.67,11.42-1.65,26.3-3.94,42.63-13.32,23.06-13.26,35.24-32.77,40.84-43.51-33.72,17.34-58.66,18.88-75.48,16.87-11.88-1.42-33.39-4.43-63.83-2.31a72.13,72.13,0,0,0-13.42,2.31c-18.93,5-34.18,17.43-44.24,27.88l3.24-7.17C129.9,359.68,131.67,355.93,133.43,352.17Z"/><g class="cls-3"><rect class="cls-4" x="0.05" y="294.36" width="120.88" height="516.8"/><rect class="cls-4" x="128.04" y="285.48" width="14.09" height="516.8"/></g></g></g></svg>