<svg xmlns="http://www.w3.org/2000/svg" xmlns:xlink="http://www.w3.org/1999/xlink" viewBox="0 0 422.37 346.89"><defs><style>.cls-1{fill:none;}.cls-2{fill:#016e8b;}.cls-3{clip-path:url(#clip-path);}.cls-4{fill:#033f63;}</style><clipPath id="clip-path"><path id="_Clipping_Path_" data-name="&lt;Clipping Path&gt;" class="cls-1" d="M1,286.39a380.44,380.44,0,0,1,78.36-45.86c2.09-.92,4.19-1.8,6.3-2.67-3.29,7.21-5.41,16.27-1.57,25.43,4.84,11.53,14.63,12.41,22.31,24.86,11.53,18.69,5.87,38.18,5.87,38.18s7.76-9,10.56-18.65c6-20.66.74-43.28-11.74-54.16-1.32-1.16-7.17-6.05-10.56-8.88-4.06-3.38-7.6-6.3-10.38-8.58a379.59,379.59,0,0,1,49.27-15.61c10.3-2.53,20.73-4.64,31.26-6.65l.72-.14c-2.92,10.14,15,42.51,41.83,60.28,41.63,27.6,93.17,12.39,106.56,8,0,0-28,1.2-57.72-16.87-20.25-12.32-21.43-22.56-45.29-37.29-1.76-1.09-20.53-12.75-33.41-16.41l3.19-.62,4-.83c1.34-.28,2.67-.56,4-.9l8-1.95c2.65-.69,5.27-1.51,7.9-2.26l3.94-1.15,3.88-1.33,7.75-2.67,7.61-3,3.8-1.51,3.73-1.68,7.45-3.38c1.25-.54,2.45-1.19,3.66-1.8l3.63-1.87,4.19-2.15c.79,10.9,34.24,40.51,70.36,39.09,18-.71,33.76-9,48.85-16.93a187,187,0,0,0,32-21.26c-37,15.1-55.6,14-65.71,9.77-2.63-1.11-14.26-5.61-30.63-11.14a88.9,88.9,0,0,0-12-3.07c-8.76-1.64-22.64-3.21-32.22-2.37A364.75,364.75,0,0,0,316.81,146l.31-.26c12.75-2.75,60-30,86.6-78.29C421.59,35.13,422.37,0,422.37,0s-11.59,28.07-40.85,64.82c-10.79,13.56-14.44,15.57-38.18,43.51-12.94,15.23-21.76,25.61-26.15,31.51-1.09.85-2.17,1.71-3.27,2.54a351.56,351.56,0,0,1-54,34.06c-2.38,1.19-4.8,2.27-7.2,3.41l-3.6,1.69c-1.21.56-2.39,1.15-3.63,1.63l-7.35,3-3.68,1.5L230.71,189l-7.47,2.66L215.65,194l-3.79,1.15-3.83,1c-2.57.63-5.11,1.33-7.68,1.91l-7.74,1.59c-1.29.28-2.59.51-3.9.73l-3.91.67-15.89,2.47c-10.65,1.63-21.37,3.4-32,5.61a383,383,0,0,0-62.83,18.51,395.27,395.27,0,0,0-73.21,38"/></clipPath></defs><title>Asset 27</title><g id="Layer_2" data-name="Layer 2"><g id="Layer_6" data-name="Layer 6"><path id="_Path_" data-name="&lt;Path&gt;" class="cls-2" d="M.84,286.53a380.26,380.26,0,0,1,78.54-46c2.09-.92,4.19-1.8,6.3-2.67-3.29,7.21-5.41,16.27-1.57,25.43,4.84,11.53,14.63,12.41,22.31,24.86,11.53,18.69,5.87,38.18,5.87,38.18s7.76-9,10.56-18.65c6-20.66.74-43.28-11.74-54.16-1.32-1.16-7.17-6.05-10.56-8.88-4.06-3.38-7.6-6.3-10.38-8.58a379.59,379.59,0,0,1,49.27-15.61c10.3-2.53,20.73-4.64,31.26-6.65l.72-.14c-2.92,10.14,15,42.51,41.83,60.28,41.63,27.6,93.17,12.39,106.56,8,0,0-28,1.2-57.72-16.87-20.25-12.32-21.43-22.56-45.29-37.29-1.76-1.09-20.53-12.75-33.41-16.41l3.19-.62,4-.83c1.34-.28,2.67-.56,4-.9l8-1.95c2.65-.69,5.27-1.51,7.9-2.26l3.94-1.15,3.88-1.33,7.75-2.67,7.61-3,3.8-1.51,3.73-1.68,7.45-3.38c1.25-.54,2.45-1.19,3.66-1.8l3.63-1.87,4.19-2.15c.79,10.9,34.24,40.51,70.36,39.09,18-.71,33.76-9,48.85-16.93a187,187,0,0,0,32-21.26c-37,15.1-55.6,14-65.71,9.77-2.63-1.11-14.26-5.61-30.63-11.14a88.9,88.9,0,0,0-12-3.07c-8.76-1.64-22.64-3.21-32.22-2.37A364.75,364.75,0,0,0,316.81,146l.31-.26c12.75-2.75,60-30,86.6-78.29C421.59,35.13,422.37,0,422.37,0s-11.59,28.07-40.85,64.82c-10.79,13.56-14.44,15.57-38.18,43.51-12.94,15.23-21.76,25.61-26.15,31.51-1.09.85-2.17,1.71-3.27,2.54a351.56,351.56,0,0,1-54,34.06c-2.38,1.19-4.8,2.27-7.2,3.41l-3.6,1.69c-1.21.56-2.39,1.15-3.63,1.63l-7.35,3-3.68,1.5L230.71,189l-7.47,2.66L215.65,194l-3.79,1.15-3.83,1c-2.57.63-5.11,1.33-7.68,1.91l-7.74,1.59c-1.29.28-2.59.51-3.9.73l-3.91.67-15.89,2.47c-10.65,1.63-21.37,3.4-32,5.61a383,383,0,0,0-62.83,18.51A394.21,394.21,0,0,0,1,265.46"/><g class="cls-3"><path class="cls-4" d="M.9,146.58l177.68,20.23L157,346.58,0,328.86Z"/><polyline class="cls-4" points="190.13 164.14 215.2 167 194.72 346.89 168.57 343.92"/></g></g></g></svg>