<svg xmlns="http://www.w3.org/2000/svg" viewBox="0 0 527 492.39"><defs><style>.cls-1{fill:none;stroke:#f2f2f2;stroke-miterlimit:10;stroke-width:11px;}.cls-1,.cls-2{opacity:0.66;}.cls-3{fill:#df70ef;}.cls-3,.cls-6{opacity:0.53;}.cls-4{fill:#72d3ed;opacity:0.47;}.cls-5{opacity:0.42;}.cls-6,.cls-8{fill:#fff;}.cls-7{fill:#b1a7f2;opacity:0.38;}.cls-8{opacity:0.64;}.cls-9{opacity:0.55;}.cls-10{fill:#f2f2f2;}</style></defs><title>Asset 46</title><g id="Layer_2" data-name="Layer 2"><g id="Layer_51" data-name="Layer 51"><path class="cls-1" d="M516.67,238c-13.18,63.37-54.34,103.62-85,133.56C359,442.69,255.15,484.91,254.29,485.4h0C213.55,470.17,140.44,436.29,78.8,363.2,50.15,329.21,14.13,286.49,6.89,223c-8.41-73.72,20.72-186.8,106.2-210C191.74-8.27,264,61.16,269.59,66.67c51.28-43.41,117.7-60,170.16-37C519.34,64.44,530,174,516.67,238Z"/><g class="cls-2"><path class="cls-3" d="M180.43,5.1c-20.73-5.69-43.62-7.4-67.07-1C81.9,12.58,58.08,33.3,40.94,59.74A244.94,244.94,0,0,1,180.43,5.1Z"/><path class="cls-3" d="M440,20.65c-40.08-17.52-88.3-12-131.7,10.94A246.11,246.11,0,0,1,396.42,393.5,430.38,430.38,0,0,0,432,362.56c30.62-29.95,71.78-70.19,84.95-133.57C530.23,165,519.6,55.44,440,20.65Z"/></g><path class="cls-4" d="M507.31,112.84c-5.57,149.67-130.82,267.1-280.8,262.69a272.51,272.51,0,0,1-213.26-113c13.49,46.13,41.89,79.82,65.35,107.64,61.63,73.09,134.74,107,175.49,122.2.86-.48,104.67-42.7,177.42-113.84,30.62-29.94,71.78-70.19,85-133.56C524.08,208.36,523.84,156.77,507.31,112.84Z"/><g class="cls-5"><path class="cls-6" d="M358.66,14.26A244.27,244.27,0,0,1,481.43,51.35,115.29,115.29,0,0,0,440,20.65c-26.11-11.42-55.69-13-85.13-6.46C356.14,14.21,357.4,14.22,358.66,14.26Z"/><path class="cls-6" d="M106.07,252.45a245.47,245.47,0,0,1,140-214.58c-28.6-20.8-79.17-48.33-132.7-33.82C27.87,27.23-1.26,140.31,7.15,214,14.39,277.5,50.41,320.22,79.07,354.2a412.64,412.64,0,0,0,116.58,95.17A245.08,245.08,0,0,1,106.07,252.45Z"/></g><ellipse class="cls-7" cx="361.66" cy="295.19" rx="146.06" ry="83.11" transform="translate(-102.35 346.44) rotate(-45.52)"/><ellipse class="cls-8" cx="149.77" cy="80.17" rx="29.06" ry="53.4" transform="translate(14.69 183.19) rotate(-65.49)"/><g class="cls-9"><path class="cls-10" d="M150.81,147.31a196.92,196.92,0,0,0-21.73,34.1,203.77,203.77,0,0,0-8.39,19.19c-1.29,3.3-2.39,6.66-3.53,10.06s-2.11,6.85-3,10.34a212.44,212.44,0,0,0-6.8,43.68,226.39,226.39,0,0,0,2.33,46.08,237.74,237.74,0,0,1-22-42.67A243.16,243.16,0,0,1,74.18,220c-.77-4.19-1.33-8.41-1.89-12.68s-1-8.55-1.22-12.87c-.6-8.64-.8-17.39-.53-26.2a268.81,268.81,0,0,1,7.11-53.3Z"/></g></g></g></svg>