<svg xmlns="http://www.w3.org/2000/svg" viewBox="0 0 736 262"><defs><style>.cls-1{opacity:0.16;}.cls-2,.cls-5,.cls-9{fill:#fff;}.cls-3{fill:#df70ef;opacity:0.25;}.cls-4{fill:#72d3ed;opacity:0.31;}.cls-5,.cls-6{opacity:0.2;}.cls-7{fill:#b1a7f2;}.cls-8,.cls-9{opacity:0.58;}</style></defs><title>Asset 37</title><g id="Layer_2" data-name="Layer 2"><g id="Layer_49" data-name="Layer 49"><g class="cls-1"><path class="cls-2" d="M683,12c8.56,0,18.67,11.83,26.38,30.87C718.8,66.22,724,97.52,724,131s-5.2,64.78-14.65,88.13C701.64,238.17,691.53,250,683,250H53c-8.56,0-18.67-11.83-26.38-30.87C17.2,195.78,12,164.48,12,131s5.2-64.78,14.65-88.13C34.36,23.83,44.47,12,53,12H683m0-12H53C23.74,0,0,58.65,0,131S23.74,262,53,262H683c29.29,0,53-58.65,53-131S712.26,0,683,0Z"/></g><path class="cls-3" d="M683,0H201c71.3,12.53,227.17,40.07,282.1,49.78,90.33,16,163.91,29,171.8,104.8,3.84,36.95-9.06,77.7-21.21,107.42H683c29.29,0,53-58.65,53-131S712.26,0,683,0Z"/><path class="cls-4" d="M683,262H201c71.3-12.53,227.17-40.07,282.1-49.78,90.33-16,163.91-29,171.8-104.8,3.84-36.95-9.06-77.7-21.21-107.42H683c29.29,0,53,58.65,53,131S712.26,262,683,262Z"/><path class="cls-5" d="M53,262H535c-71.3-12.53-227.17-40.07-282.1-49.78-90.33-16-163.91-29-171.8-104.8C77.29,70.47,90.19,29.72,102.34,0H53C23.74,0,0,58.65,0,131S23.74,262,53,262Z"/><g class="cls-6"><path class="cls-7" d="M677.9,222.7H469.83c-9.68,0-17.52-24.63-17.52-55s7.84-55,17.52-55H677.9c9.67,0,17.51,24.63,17.51,55S687.57,222.7,677.9,222.7Z"/></g><g class="cls-8"><path class="cls-2" d="M241.32,78.6h-138c-6.42,0-11.62-6.46-11.62-14.43s5.2-14.43,11.62-14.43h138c6.41,0,11.61,6.46,11.61,14.43S247.73,78.6,241.32,78.6Z"/></g><ellipse class="cls-9" cx="72.91" cy="62.88" rx="6.36" ry="15.72"/></g></g></svg>