<svg xmlns="http://www.w3.org/2000/svg" xmlns:xlink="http://www.w3.org/1999/xlink" viewBox="0 0 507.98 495.99"><defs><style>.cls-1,.cls-4,.cls-5,.cls-6,.cls-7{fill:none;}.cls-2{clip-path:url(#clip-path);}.cls-3{fill:#11395c;}.cls-4,.cls-5,.cls-6,.cls-7,.cls-8,.cls-9{stroke:#041541;stroke-miterlimit:10;}.cls-4,.cls-5,.cls-6,.cls-7,.cls-8{stroke-linecap:round;}.cls-4{stroke-width:8px;}.cls-5,.cls-8{stroke-width:10px;}.cls-6{stroke-width:13px;}.cls-7{stroke-width:12px;}.cls-11,.cls-8,.cls-9{fill:#041541;}.cls-9{stroke-width:3px;}.cls-10{fill:#352f53;}.cls-12{fill:#5c2b48;}.cls-13{fill:#7f381a;}.cls-14{fill:#502e3f;}.cls-15{clip-path:url(#clip-path-2);}.cls-16{fill:#0d1a4f;}</style><clipPath id="clip-path"><path class="cls-1" d="M498,427.86c-5.78,4.29-21.81,22.07-37.13,38.15-7.94.16-15.71.54-22.42,2.65a58.81,58.81,0,0,0-6.55,2.48c9.93-14.66,20.42-33.12,28.2-45.57,17.64-19.46,37.87-34.3,51.59-29.67C539.19,405.18,509.69,419.16,498,427.86Zm-59.55,40.8a58.81,58.81,0,0,0-6.55,2.48c9.93-14.66,20.42-33.12,28.2-45.57-14.06,15.52-26.47,34-32.62,47.86a63.75,63.75,0,0,0-3,8c-2.24,7.84-1.24,12.89,4.43,12.89,4.27,0,17.81-13.44,32-28.32C452.9,466.17,445.13,466.55,438.42,468.66Zm-34.18-127.3C372.73,320.52,358.06,473,388.93,473c3.09,0,6-4,8.59-10.7-1-19.48,4.1-51,12.2-79.17h0C410.39,361.86,408.83,344.39,404.24,341.36Zm-6.72,121c6.67-17.07,11.33-51.36,12.2-79.17C401.62,411.3,396.51,442.84,397.52,462.32ZM548.1,443c-10.37-1.17-48.91,18.72-61.51,21.27-8,1.63-17,1.52-25.75,1.7-14.15,14.88-27.69,28.32-32,28.32-5.67,0-6.67-5.05-4.43-12.89a72.19,72.19,0,0,1-7.37,8.31c2.05,4.34,9.18,7.52,22.94,7.52,32.42,0,76.73-4.33,105.4-21.62C565,463.84,580.84,446.73,548.1,443ZM438.42,468.66a58.81,58.81,0,0,0-6.55,2.48,45.7,45.7,0,0,0-4.42,2.29c-8.49,5-12.7,11.4-10.37,16.32a72.19,72.19,0,0,0,7.37-8.31c-2.24,7.84-1.24,12.89,4.43,12.89,4.27,0,17.81-13.44,32-28.32C452.9,466.17,445.13,466.55,438.42,468.66Zm48.52-104c-14.68.19-37.23,25.34-55.37,53.43,0,0,0,0,0,0-4.38,26.9-11.12,62.85-25.29,62.85a5.42,5.42,0,0,1-3.49-1.24c-1.59,8.92,0,14.56,6.12,14.56,2.32,0,5.1-1.69,8.18-4.58-2.33-4.92,1.88-11.34,10.37-16.32,6.15-13.88,18.56-32.34,32.62-47.86a102,102,0,0,1,8.22-11.88C472.24,409.22,520.47,364.28,486.94,364.71ZM402.78,479.77a5.42,5.42,0,0,0,3.49,1.24c14.17,0,20.91-35.95,25.29-62.85C417.1,440.54,405.44,464.78,402.78,479.77Zm24.67-6.34c-8.49,5-12.7,11.4-10.37,16.32a72.19,72.19,0,0,0,7.37-8.31c2.41-3.08,4.9-6.56,7.42-10.3,9.93-14.66,20.42-33.12,28.2-45.57C446,441.09,433.6,459.55,427.45,473.43ZM443.7,323.05c-12.11,1.29-24.9,28.55-34,60.09h0c-.87,27.81-5.53,62.1-12.2,79.17.45,8.65,2.11,14.91,5.26,17.45,2.66-15,14.32-39.23,28.78-61.61,0,0,0,0,0,0,1.88-11.6,3.33-21.52,4.75-26.15C439.49,381.65,471.36,320.09,443.7,323.05ZM397.52,462.32c6.67-17.07,11.33-51.36,12.2-79.17C401.62,411.3,396.51,442.84,397.52,462.32Zm5.26,17.45a5.42,5.42,0,0,0,3.49,1.24c14.17,0,20.91-35.95,25.29-62.85C417.1,440.54,405.44,464.78,402.78,479.77Z"/></clipPath><clipPath id="clip-path-2"><path class="cls-1" d="M131.42,154.23c4.91,2.34,13.13-6,14.21-7.1h0c12.17-9.4,18.25-14.09,22.2-17.76,4.61-4.29,13.95-13.45,25.75-30.19l21.51,16.45c-2,3.2-3.64,5.94-7.3,11.08-15,21.07-20.4,24.4-18.65,28.41,3.92,9,36.2,4.66,57.72-2.66a133.91,133.91,0,0,0,21.36-8.83l22.72,17.71a134.8,134.8,0,0,1-46.75,21.31c-12.92,2.81-62,2.42-73.7,3.55a63.7,63.7,0,0,0-24.86,8c-1.15.66-26.19,15.36-23.09,27.53S154.74,235,156.28,235c13,.57,23.56-3,30.2-5.33l35.62,12.83a124.54,124.54,0,0,1-12.54,5.82c-15,6.26-27.16,6.9-47.95,8-14.81.78-43.59-7.53-49.72-7.1-9.7.67-15.48,9-24.87,20.42-6.29,7.65-11.58,14.08-16.2,19.34l-15.31-64.8a116.57,116.57,0,0,1,8.42-11.37,155.18,155.18,0,0,1,16-16c11.22-10.12,13.16-10,17.76-16,4.33-5.66,9.31-12.16,8.88-20.42"/></clipPath></defs><title>Asset 28</title><g id="Layer_2" data-name="Layer 2"><g id="Layer_2-2" data-name="Layer 2"><g id="Layer_3" data-name="Layer 3"><g class="cls-2"><path id="_Path_" data-name="&lt;Path&gt;" class="cls-3" d="M408.46,495.22c-35.51-17.77-56.61-46.91-47.77-67.54,9.47-22.09,49.66-26.06,89.78-8.86s65,49,55.5,71.12a24.13,24.13,0,0,1-3.16,5.37"/></g></g><line class="cls-4" x1="348.09" y1="361.13" x2="337.43" y2="395.76"/><line class="cls-4" x1="428.89" y1="430.39" x2="384.49" y2="428.62"/><line class="cls-4" x1="397.81" y1="387.77" x2="363.18" y2="409.97"/><line class="cls-5" x1="246.86" y1="370.9" x2="287.7" y2="404.64"/><line class="cls-4" x1="324.11" y1="347.81" x2="324.11" y2="388.66"/><line class="cls-6" x1="282.34" y1="346.91" x2="301.95" y2="395.78"/><line class="cls-7" x1="377.39" y1="434.83" x2="433.33" y2="458.81"/><line class="cls-5" x1="372.95" y1="412.63" x2="429.78" y2="408.19"/><line class="cls-8" x1="348.37" y1="405.82" x2="379.77" y2="358.18"/><ellipse class="cls-9" cx="331.03" cy="430.15" rx="45.29" ry="64.82" transform="translate(-174.27 628.36) rotate(-73.84)"/><g id="Layer_5" data-name="Layer 5"><path class="cls-10" d="M73.93,363.93c-27-14.47-45.09-27.56-42.85-34.77,3.63-11.68,65.39-22.17,85.25-24.86,4.68-.63,12-1.5,16.87-7.1,7.83-9,2.05-21.65,4.44-43.51,2.56-23.54,5.07-25.39,6.21-25.75,4.09-1.29,10.21,4.28,13.32,9.76,3.63,6.4,2.59,11.66,1.78,35.52-.46,13.48-.23,14.69.89,16,1.63,1.9,7.71,6.93,55-10.66,7-2.59,12.07-4.64,16.33-6.39l29,17c-19,5-28.46,7.62-28.42,10.65.08,5.49,27.25,9.17,32,9.77a169.07,169.07,0,0,0,42.62,0l42.47,18.85c-4.06,1.42-8.7,3.14-14.05,5.12-16.23,6-19.1,8.88-25.18,11.49,0,0-2.46,1-5,1.83-12.12,3.91-46.84-4.56-62.16,6.22"/><path class="cls-11" d="M242.42,353.14c-8.76,6.16-10.24,18-10.66,21.31-3.59,28.7,31.86,48.24,28.42,55.06-6,11.86-121.53-30.83-186.25-65.58"/><path class="cls-10" d="M386.63,330.86c14.68,12.23,21.44,35,33.38,32.94,6.2-1.08,11-8.38,11.55-14.21.22-2.45-.08-7.33-13.32-21.31"/><path class="cls-12" d="M418.24,328.28c-14.19-15-20.94-16.14-21.31-23.09-.36-6.59,3.91-9.93,12.43-22.2,11.45-16.51,24.11-34.75,18.65-45.29-2.89-5.55-10.67-8.7-16-7.1-5.63,1.69-7.5,8.4-10.65,16-2.58,6.2-11.82,28.39-26.64,39.07-9.56,6.89-11.56,1.88-36.41,10.66-19.59,6.92-18.69,10.15-32,13.32l42.47,18.85c11-3.87,17.78-5.58,23.24-4.64a30.62,30.62,0,0,1,14.57,7"/><path class="cls-12" d="M231.22,272.16c5.61-2.31,9.76-4.1,14.87-5.94,4.09-1.46,7.28-2.47,11.42-3.65,12.87-3.67,40.2-11.48,46.18-2.67,3.11,4.59-.69,12.06-.89,12.43-4.72,9-15.59,9.68-42.62,16.88"/></g><g id="Layer_4" data-name="Layer 4"><path class="cls-13" d="M215.09,115.63c2.63-4.33,5.75-9.52,14.9-22.67,11.55-16.6,17.37-25,19.53-28.41,15.8-25.09,18.42-36,18.65-45.29.11-4.25.52-15.85-5.33-18.65C258.09-1.66,251.52,3,248.63,5.05c-13,9.42-17.3,23.18-22.2,35.52C215.58,68,202.23,86.91,193.58,99.18"/><path class="cls-11" d="M70.82,289c-9.91,11.26-16.74,17.12-23.76,18C31.3,308.85,12,292.07,12.43,278.55c.4-12.74,19-15.59,19.54-30.19.32-8.09-5.27-8.88-11.55-26.64-3.89-11-6.47-18.63-3.55-26.64,3.56-9.77,14.31-17.47,19.54-15.1,3.21,1.47,3.83,6.52,4.44,11.55,1.47,12.18-3.27,16.27-1.78,26.64.8,5.55,3.64,14.6,8,15.09,2.78.32,4.49-3,8.45-9"/><path class="cls-13" d="M106.56,160.45c-.62-11.85-12.06-21.54-16-24.86-4.54-3.86-7-4.62-9.76-8.88-4.14-6.42-5.67-15.78-2.67-17.76,5.52-3.64,23.7,19.31,28.42,16,2.32-1.64-1.2-7.84-3.55-20.42a114.05,114.05,0,0,1,.88-40.85C105.1,58,108.29,43,114.55,42.35c4.59-.44,8.77,7.08,9.77,8.88,4.76,8.58,3.22,15.61.88,44.4-1,12.06-1.26,17.61-.88,24.86.2,4,1,9.17,2.66,19.54,1.73,10.95,2.47,13.27,4.44,14.2"/><path class="cls-13" d="M268.22,143.63a83.24,83.24,0,0,0,13.27-8.93c13.19-10.82,16.53-19.94,22.2-18.65s9.21,11.85,8,20.42c-.89,6.22-4.43,12.25-16,21.32-1.59,1.24-3.17,2.42-4.76,3.55"/><path class="cls-13" d="M222.1,242.54c7.16-4,13.91-9.45,17.65-18.16.54-1.25,6.86-13.71,2.67-17.76-1.66-1.6-5.26-1.59-30.19,10.66-17.31,8.5-18.14,9.77-25.75,12.43Z"/><path class="cls-14" d="M131.42,154.23c4.91,2.34,13.13-6,14.21-7.1h0c12.17-9.4,18.25-14.09,22.2-17.76,4.61-4.29,13.95-13.45,25.75-30.19l21.51,16.45c-2,3.2-3.64,5.94-7.3,11.08-15,21.07-20.4,24.4-18.65,28.41,3.92,9,36.2,4.66,57.72-2.66a133.91,133.91,0,0,0,21.36-8.83l22.72,17.71a134.8,134.8,0,0,1-46.75,21.31c-12.92,2.81-62,2.42-73.7,3.55a63.7,63.7,0,0,0-24.86,8c-1.15.66-26.19,15.36-23.09,27.53S154.74,235,156.28,235c13,.57,23.56-3,30.2-5.33l35.62,12.83a124.54,124.54,0,0,1-12.54,5.82c-15,6.26-27.16,6.9-47.95,8-14.81.78-43.59-7.53-49.72-7.1-9.7.67-15.48,9-24.87,20.42-6.29,7.65-11.58,14.08-16.2,19.34l-15.31-64.8a116.57,116.57,0,0,1,8.42-11.37,155.18,155.18,0,0,1,16-16c11.22-10.12,13.16-10,17.76-16,4.33-5.66,9.31-12.16,8.88-20.42"/><g class="cls-15"><path id="_Path_2" data-name="&lt;Path&gt;" class="cls-13" d="M87,269.67A131.51,131.51,0,0,1,89.69,235c3.52-16.55,11.3-37.15,16-36.41,3,.48,4,9.8,5.33,23.09a199.37,199.37,0,0,1,.89,27.53"/></g></g><path id="_Path_3" data-name="&lt;Path&gt;" class="cls-11" d="M222.1,496H0V253.57s34,8.26,71,34.64c44.79,31.89,83.47,71.92,83.47,71.92"/><path id="_Path_4" data-name="&lt;Path&gt;" class="cls-16" d="M222.1,496H484.84s-31.84-21.5-95.91-48.84c-19.85-8.47-63.9-26.72-134.08-50.61-78.24-26.63-100.34-36.41-100.34-36.41Z"/></g></g></svg>