<svg xmlns="http://www.w3.org/2000/svg" viewBox="0 0 1388 200"><defs><style>.cls-1{opacity:0.16;}.cls-2,.cls-5,.cls-9{fill:#fff;}.cls-3{fill:#df70ef;opacity:0.25;}.cls-4{fill:#72d3ed;opacity:0.31;}.cls-5,.cls-6{opacity:0.2;}.cls-7{fill:#b1a7f2;}.cls-8,.cls-9{opacity:0.58;}</style></defs><title>Asset 35</title><g id="Layer_2" data-name="Layer 2"><g id="Layer_47" data-name="Layer 47"><g class="cls-1"><path class="cls-2" d="M1288,12a88,88,0,0,1,0,176H100a88,88,0,0,1,0-176H1288m0-12H100a100,100,0,0,0,0,200H1288a100,100,0,0,0,0-200Z"/></g><path class="cls-3" d="M1288,0H379C513.47,9.57,807.41,30.59,911,38c170.35,12.18,309.12,22.1,324,80,7.25,28.21-17.09,59.31-40,82h93a100,100,0,0,0,0-200Z"/><path class="cls-4" d="M1288,200H379c134.47-9.57,428.41-30.59,532-38,170.35-12.18,309.12-22.1,324-80,7.25-28.21-17.09-59.31-40-82h93a100,100,0,0,1,0,200Z"/><path class="cls-5" d="M100,200h909c-134.47-9.57-428.41-30.59-532-38-170.35-12.18-309.12-22.1-324-80-7.25-28.21,17.09-59.31,40-82H100a100,100,0,0,0,0,200Z"/><g class="cls-6"><path class="cls-7" d="M1278.43,170H886c-18.24,0-33-18.8-33-42s14.79-42,33-42h392.4c18.24,0,33,18.8,33,42S1296.67,170,1278.43,170Z"/></g><g class="cls-8"><path class="cls-2" d="M455.1,60H194.9C182.81,60,173,55.07,173,49s9.81-11,21.9-11H455.1C467.19,38,477,42.9,477,49S467.19,60,455.1,60Z"/></g><circle class="cls-9" cx="137.5" cy="48" r="12"/></g></g></svg>