<svg xmlns="http://www.w3.org/2000/svg" xmlns:xlink="http://www.w3.org/1999/xlink" viewBox="0 0 1227.5 599.14"><defs><style>.cls-1{opacity:0.73;}.cls-10,.cls-11,.cls-2,.cls-23,.cls-24,.cls-26,.cls-27,.cls-3,.cls-5,.cls-7{fill:none;}.cls-10,.cls-11,.cls-2,.cls-3,.cls-5{stroke:#0f8bbe;}.cls-10,.cls-11,.cls-2,.cls-20,.cls-21,.cls-23,.cls-24,.cls-26,.cls-27,.cls-3,.cls-5,.cls-7{stroke-linecap:round;stroke-miterlimit:10;}.cls-2{stroke-width:54px;}.cls-3{stroke-width:40px;}.cls-4{fill:#0f8bbe;}.cls-5{stroke-width:34px;}.cls-6{opacity:0.45;}.cls-7{stroke:#0081bf;}.cls-23,.cls-7{stroke-width:25px;}.cls-8{fill:#0081bf;}.cls-9{opacity:0.69;}.cls-10{stroke-width:38px;}.cls-11{stroke-width:26px;}.cls-12{opacity:0.83;}.cls-13{fill:url(#linear-gradient);}.cls-14{fill:url(#linear-gradient-2);}.cls-15{opacity:0.8;fill:url(#linear-gradient-3);}.cls-16{fill:url(#linear-gradient-4);}.cls-17{opacity:0.84;fill:url(#linear-gradient-5);}.cls-18{opacity:0.62;fill:url(#linear-gradient-6);}.cls-19{opacity:0.88;}.cls-20,.cls-21{fill:#5db5c9;stroke:#54c4d6;}.cls-20{stroke-width:47px;opacity:0.77;}.cls-21{stroke-width:41px;}.cls-22{fill:#54c4d6;}.cls-23,.cls-24{stroke:#47a3ba;}.cls-24{stroke-width:19px;}.cls-25{opacity:0.36;}.cls-26,.cls-27{stroke:#a9e4f6;}.cls-26{stroke-width:8px;}.cls-27{stroke-width:13px;}</style><linearGradient id="linear-gradient" x1="750.5" y1="69" x2="750.5" y2="503" gradientUnits="userSpaceOnUse"><stop offset="0" stop-color="#a9e4f6" stop-opacity="0"/><stop offset="0.01" stop-color="#a9e4f6" stop-opacity="0.03"/><stop offset="0.02" stop-color="#a9e4f6" stop-opacity="0.1"/><stop offset="0.03" stop-color="#a9e4f6" stop-opacity="0.22"/><stop offset="0.05" stop-color="#a9e4f6" stop-opacity="0.38"/><stop offset="0.07" stop-color="#a9e4f6" stop-opacity="0.59"/><stop offset="0.08" stop-color="#a9e4f6" stop-opacity="0.85"/><stop offset="0.09" stop-color="#a9e4f6"/><stop offset="0.19" stop-color="#a6e0f3" stop-opacity="0.98"/><stop offset="0.31" stop-color="#9cd6ea" stop-opacity="0.92"/><stop offset="0.43" stop-color="#8cc5dc" stop-opacity="0.83"/><stop offset="0.56" stop-color="#76adc7" stop-opacity="0.7"/><stop offset="0.69" stop-color="#598dad" stop-opacity="0.53"/><stop offset="0.82" stop-color="#37678d" stop-opacity="0.32"/><stop offset="0.96" stop-color="#0e3b68" stop-opacity="0.08"/><stop offset="1" stop-color="#012d5c" stop-opacity="0"/></linearGradient><linearGradient id="linear-gradient-2" x1="555.24" y1="55.48" x2="555.24" y2="615.48" gradientTransform="matrix(1.06, 0.01, -0.25, 0.94, 47.6, 10.47)" gradientUnits="userSpaceOnUse"><stop offset="0" stop-color="#a9e4f6" stop-opacity="0"/><stop offset="0.01" stop-color="#a9e4f6" stop-opacity="0.03"/><stop offset="0.02" stop-color="#a9e4f6" stop-opacity="0.1"/><stop offset="0.03" stop-color="#a9e4f6" stop-opacity="0.22"/><stop offset="0.05" stop-color="#a9e4f6" stop-opacity="0.38"/><stop offset="0.07" stop-color="#a9e4f6" stop-opacity="0.59"/><stop offset="0.08" stop-color="#a9e4f6" stop-opacity="0.85"/><stop offset="0.09" stop-color="#a9e4f6"/><stop offset="0.17" stop-color="#a5e1f3" stop-opacity="0.98"/><stop offset="0.26" stop-color="#99d8eb" stop-opacity="0.92"/><stop offset="0.37" stop-color="#85c9dd" stop-opacity="0.83"/><stop offset="0.48" stop-color="#6ab5ca" stop-opacity="0.7"/><stop offset="0.6" stop-color="#479ab2" stop-opacity="0.54"/><stop offset="0.73" stop-color="#1d7b95" stop-opacity="0.34"/><stop offset="0.8" stop-color="#006581" stop-opacity="0.2"/><stop offset="1" stop-color="#012d5c" stop-opacity="0"/></linearGradient><linearGradient id="linear-gradient-3" x1="344.17" y1="-2.13" x2="225.87" y2="498.89" gradientTransform="matrix(1.08, 0.02, -0.27, 0.92, 141.19, 42.4)" gradientUnits="userSpaceOnUse"><stop offset="0" stop-color="#a9e4f6" stop-opacity="0"/><stop offset="0.02" stop-color="#a9e4f6" stop-opacity="0.03"/><stop offset="0.04" stop-color="#a9e4f6" stop-opacity="0.1"/><stop offset="0.07" stop-color="#a9e4f6" stop-opacity="0.22"/><stop offset="0.1" stop-color="#a9e4f6" stop-opacity="0.38"/><stop offset="0.13" stop-color="#a9e4f6" stop-opacity="0.59"/><stop offset="0.17" stop-color="#a9e4f6" stop-opacity="0.85"/><stop offset="0.19" stop-color="#a9e4f6"/><stop offset="0.25" stop-color="#a5e1f3" stop-opacity="0.98"/><stop offset="0.34" stop-color="#99d8eb" stop-opacity="0.92"/><stop offset="0.43" stop-color="#85c9dd" stop-opacity="0.83"/><stop offset="0.53" stop-color="#6ab5ca" stop-opacity="0.7"/><stop offset="0.63" stop-color="#479ab2" stop-opacity="0.54"/><stop offset="0.74" stop-color="#1d7b95" stop-opacity="0.34"/><stop offset="0.8" stop-color="#006581" stop-opacity="0.2"/><stop offset="1" stop-color="#012d5c" stop-opacity="0"/></linearGradient><linearGradient id="linear-gradient-4" x1="204.53" y1="62.05" x2="97.92" y2="513.55" gradientTransform="matrix(0.97, 0, -0.32, 1.03, 179.14, -18.7)" gradientUnits="userSpaceOnUse"><stop offset="0" stop-color="#a9e4f6" stop-opacity="0"/><stop offset="0.02" stop-color="#a9e4f6" stop-opacity="0.03"/><stop offset="0.04" stop-color="#a9e4f6" stop-opacity="0.1"/><stop offset="0.07" stop-color="#a9e4f6" stop-opacity="0.22"/><stop offset="0.1" stop-color="#a9e4f6" stop-opacity="0.38"/><stop offset="0.13" stop-color="#a9e4f6" stop-opacity="0.59"/><stop offset="0.17" stop-color="#a9e4f6" stop-opacity="0.85"/><stop offset="0.19" stop-color="#a9e4f6"/><stop offset="0.33" stop-color="#81b9d2" stop-opacity="0.76"/><stop offset="0.51" stop-color="#5488a8" stop-opacity="0.5"/><stop offset="0.68" stop-color="#306187" stop-opacity="0.28"/><stop offset="0.82" stop-color="#174570" stop-opacity="0.13"/><stop offset="0.93" stop-color="#073361" stop-opacity="0.03"/><stop offset="1" stop-color="#012d5c" stop-opacity="0"/></linearGradient><linearGradient id="linear-gradient-5" x1="855.85" y1="70.83" x2="761.82" y2="469.06" gradientTransform="matrix(0.97, 0.01, -0.26, 1.03, 163.18, -26.17)" xlink:href="#linear-gradient-4"/><linearGradient id="linear-gradient-6" x1="916.54" y1="97.45" x2="869.53" y2="296.56" gradientTransform="matrix(0.97, 0.01, -0.26, 1.03, 163.18, -26.17)" xlink:href="#linear-gradient-4"/></defs><title>Asset 18</title><g id="Layer_2" data-name="Layer 2"><g id="Layer_17" data-name="Layer 17"><g class="cls-1"><line class="cls-2" x1="27" y1="54.5" x2="637.5" y2="54.5"/><line class="cls-3" x1="278" y1="151.5" x2="537.5" y2="151.5"/><path class="cls-4" d="M433.13,106.5c0-11.66,8.2-21.83,20.37-27.28V75h-62v4.22c12.17,5.45,20.37,15.62,20.37,27.28s-8.2,21.83-20.37,27.28V138h62v-4.22C441.33,128.33,433.13,118.16,433.13,106.5Z"/><line class="cls-5" x1="162.5" y1="234" x2="459.5" y2="234"/><path class="cls-4" d="M340.06,193c0-10,6.21-18.71,15.44-23.38V166h-47v3.62c9.23,4.67,15.44,13.39,15.44,23.38s-6.21,18.71-15.44,23.38V220h47v-3.62C346.27,211.71,340.06,203,340.06,193Z"/></g><g class="cls-6"><line class="cls-7" x1="845.5" y1="39" x2="1108.5" y2="39"/><line class="cls-7" x1="276.5" y1="221" x2="539.5" y2="221"/><line class="cls-7" x1="311.5" y1="290" x2="574.5" y2="290"/><line class="cls-7" x1="643.5" y1="323" x2="731.5" y2="323"/><path class="cls-8" d="M491.06,258c0-10,6.21-18.71,15.44-23.38V231h-47v3.62c9.23,4.67,15.44,13.39,15.44,23.38s-6.21,18.71-15.44,23.38V285h47v-3.62C497.27,276.71,491.06,268,491.06,258Z"/><line class="cls-7" x1="927" y1="106.5" x2="1190" y2="106.5"/><g class="cls-9"><line class="cls-10" x1="793.5" y1="185" x2="1208.5" y2="185"/><line class="cls-11" x1="814.5" y1="254" x2="1058.5" y2="254"/><path class="cls-4" d="M945.06,221c0-10,6.21-18.71,15.44-23.38V194h-47v3.62c9.23,4.67,15.44,13.39,15.44,23.38s-6.21,18.71-15.44,23.38V248h47v-3.62C951.27,239.71,945.06,231,945.06,221Z"/></g></g><g id="Layer_18" data-name="Layer 18" class="cls-12"><polygon class="cls-13" points="752.5 503 632.5 503 748.5 69 868.5 69 752.5 503"/><polygon class="cls-14" points="546.89 599.13 407.5 597.51 550.11 68.86 689.5 70.49 546.89 599.13"/><polygon class="cls-15" points="363.45 511.47 262.87 509.19 400.55 43.53 501.13 45.81 363.45 511.47"/><polygon class="cls-16" points="177.34 517.47 137.48 517.33 288.66 37.53 328.52 37.67 177.34 517.47"/><polygon class="cls-17" points="840.53 473.3 805.5 472.88 912.47 48.92 947.5 49.34 840.53 473.3"/><polygon class="cls-18" points="959.01 293.11 941.5 292.9 994.99 80.92 1012.5 81.13 959.01 293.11"/></g><g class="cls-19"><line class="cls-20" x1="357.5" y1="84" x2="1009.5" y2="84"/><line class="cls-21" x1="484" y1="172.5" x2="810" y2="172.5"/><path class="cls-22" d="M564.5,130c0-10,9.25-18.71,23-23.38V103h-70v3.62c13.75,4.67,23,13.39,23,23.38s-9.25,18.71-23,23.38V157h70v-3.62C573.75,148.71,564.5,140,564.5,130Z"/><line class="cls-23" x1="218" y1="137.5" x2="325" y2="137.5"/><line class="cls-24" x1="778" y1="230.5" x2="840" y2="230.5"/></g><g class="cls-25"><line class="cls-26" x1="769" y1="48.5" x2="982.5" y2="48.5"/><line class="cls-26" x1="240" y1="86.5" x2="453.5" y2="86.5"/><line class="cls-26" x1="180.5" y1="68.5" x2="346.5" y2="68.5"/><line class="cls-26" x1="723" y1="137.5" x2="814.5" y2="137.5"/><line class="cls-27" x1="376" y1="6.5" x2="685.5" y2="6.5"/><line class="cls-26" x1="453.5" y1="198" x2="571.5" y2="198"/></g></g></g></svg>