<svg xmlns="http://www.w3.org/2000/svg" viewBox="0 0 1350.52 215.01"><defs><style>.cls-1{fill:#083964;}</style></defs><title>Asset 11</title><g id="Layer_2" data-name="Layer 2"><g id="Layer_29" data-name="Layer 29"><g id="Layer_31" data-name="Layer 31"><path class="cls-1" d="M900,104.14c-6.12-5.72-16.63-5.3-16.63-5.3s11.33-3,19.11-10.62c6.09-6,7.08-19.11,7.08-19.11s-30,22.86-63,18.4c-5.12-.69-6.88-1.69-14.86-4.24h0a236.52,236.52,0,0,0-38.67-10c4.79-4.44,5.17-6.77,4.7-8.07-.87-2.43-4.74-1.39-8.49-4.6-4.74-4.06-3.79-10.53-6.37-10.61-2.11-.07-3.6,2.94-5.66,6a53,53,0,0,1-14.86,14.51c-34.2-.29-90.83,9.06-91.29,22.29-.46,13.07,54,28.48,94.12,28.66,2.05,0,4.14,0,6.25-.09l-1.3.09a53.82,53.82,0,0,0,5.66,14.15c2.19,3.79,3.82,6.54,5.67,6.37,2.87-.26,4.81-7.46,5-12.73a24.62,24.62,0,0,0-1.39-8.76c8.21-.77,16.29-1.9,23.45-3.1l-.83.18a15.46,15.46,0,0,1,7.25,5.13c1.73,2.31,1.35,3.66,2.66,4.25,2.79,1.25,5.33-4.25,13.27-7.08,3.31-1.18,5.63-1.21,6-2.66s-1.71-3.48-3.71-5c6.18-1.9,8.94-3.11,14.5-3.71,29.48-3.2,55.56,15,55.56,15S905.39,109.21,900,104.14Z"/><path class="cls-1" d="M448.31,36.55C444.18,32.69,437.1,33,437.1,33s7.64-2,12.89-7.14c4.11-4,4.78-12.87,4.78-12.87s-20.2,15.38-42.46,12.36c-3.45-.46-4.64-1.14-10-2.87h0a161,161,0,0,0-26.06-6.74c3.23-3,3.49-4.56,3.17-5.44-.58-1.64-3.19-.94-5.72-3.1C370.5,4.42,371.14.06,369.41,0,368,0,367,2,365.59,4.05a36,36,0,0,1-10,9.77c-23.05-.21-61.22,6.06-61.54,15S330.38,48,357.44,48.16c1.39,0,2.8,0,4.22-.06l-.88.06a36.17,36.17,0,0,0,3.81,9.55c1.47,2.55,2.57,4.4,3.81,4.29,1.94-.17,3.25-5,3.35-8.58a16.64,16.64,0,0,0-.93-5.9c5.53-.52,11-1.27,15.8-2.08l-.56.12A10.43,10.43,0,0,1,391,49c1.16,1.56.9,2.47,1.78,2.87,1.89.84,3.6-2.86,8.95-4.77,2.23-.79,3.8-.8,4.06-1.78S404.58,43,403.23,42c4.18-1.28,6-2.09,9.78-2.5,19.87-2.13,37.43,10.17,37.43,10.17S452,40,448.31,36.55Z"/><path class="cls-1" d="M147,108.14c-4-3.57-10.74-3.16-10.74-3.16s7.22-2.07,12.1-7.08c3.82-3.92,4.26-12.35,4.26-12.35s-18.88,15.08-40.12,12.7c-3.29-.37-4.44-1-9.59-2.51h0A151.59,151.59,0,0,0,77.92,89.9c3-2.91,3.22-4.41,2.9-5.24-.59-1.55-3.06-.82-5.51-2.83-3.09-2.53-2.58-6.69-4.24-6.71-1.35,0-2.26,1.94-3.54,3.94a34,34,0,0,1-9.32,9.51C36.28,88.88.1,95.69,0,104.18s35,17.48,60.76,17c1.32,0,2.66-.07,4-.15l-.83.08a34.16,34.16,0,0,0,3.83,9c1.46,2.4,2.54,4.14,3.72,4,1.84-.21,3-4.86,3-8.24a15.88,15.88,0,0,0-1-5.6c5.25-.61,10.42-1.45,15-2.32l-.53.12a10,10,0,0,1,4.72,3.19c1.15,1.46.92,2.33,1.77,2.68,1.81.77,3.35-2.8,8.4-4.72,2.11-.81,3.59-.86,3.82-1.79s-1.15-2.21-2.45-3.12c3.94-1.32,5.69-2.13,9.25-2.6,18.85-2.47,35.83,8.85,35.83,8.85S150.5,111.31,147,108.14Z"/><path class="cls-1" d="M1039.66,73.84c-4.39-4.1-11.93-3.8-11.93-3.8s8.13-2.14,13.71-7.62c4.37-4.29,5.08-13.71,5.08-13.71s-21.5,16.4-45.19,13.2c-3.67-.49-4.94-1.21-10.66-3h0a169.22,169.22,0,0,0-27.75-7.16c3.45-3.18,3.71-4.86,3.38-5.79-.63-1.74-3.41-1-6.09-3.3-3.4-2.91-2.73-7.55-4.57-7.62-1.51,0-2.59,2.12-4.06,4.32a38.27,38.27,0,0,1-10.67,10.41c-24.53-.21-65.16,6.5-65.49,16S914.13,86.15,943,86.28c1.47,0,3,0,4.48-.06l-.93.06a38.61,38.61,0,0,0,4.06,10.16c1.57,2.71,2.74,4.69,4.06,4.57,2.07-.19,3.46-5.36,3.56-9.14a17.63,17.63,0,0,0-1-6.29c5.89-.55,11.69-1.36,16.83-2.21l-.6.12a11.07,11.07,0,0,1,5.2,3.68c1.24,1.66,1,2.62,1.9,3,2,.9,3.83-3,9.52-5.08,2.38-.85,4-.86,4.32-1.9s-1.23-2.5-2.67-3.56c4.44-1.36,6.42-2.23,10.41-2.66,21.15-2.3,39.86,10.79,39.86,10.79S1043.56,77.48,1039.66,73.84Z"/><path class="cls-1" d="M1342.62,183.73c-5.06-4.73-13.74-4.39-13.74-4.39s9.37-2.46,15.79-8.77c5-4.94,5.85-15.78,5.85-15.78s-24.75,18.88-52,15.2c-4.23-.57-5.68-1.4-12.27-3.51h0a194.79,194.79,0,0,0-32-8.24c4-3.66,4.27-5.59,3.89-6.67-.73-2-3.92-1.15-7-3.8-3.91-3.35-3.13-8.7-5.26-8.76-1.74-.06-3,2.43-4.68,5a43.92,43.92,0,0,1-12.27,12c-28.26-.24-75,7.48-75.42,18.41s44.58,23.53,77.75,23.68c1.7,0,3.43,0,5.17-.08l-1.07.08a44.26,44.26,0,0,0,4.67,11.69c1.81,3.13,3.15,5.4,4.68,5.26,2.38-.21,4-6.16,4.09-10.52a20.36,20.36,0,0,0-1.14-7.23c6.78-.64,13.45-1.57,19.37-2.56l-.69.15a12.68,12.68,0,0,1,6,4.23c1.43,1.92,1.12,3,2.2,3.51,2.3,1,4.4-3.51,11-5.84,2.73-1,4.65-1,5-2.2s-1.42-2.87-3.07-4.09c5.11-1.57,7.38-2.57,12-3.07,24.36-2.64,45.89,12.42,45.89,12.42S1347.11,187.91,1342.62,183.73Z"/><path class="cls-1" d="M347.84,80.49c-3-2.8-8.13-2.6-8.13-2.6a23.75,23.75,0,0,0,9.34-5.19c3-2.93,3.47-9.35,3.47-9.35s-14.66,11.18-30.81,9c-2.51-.34-3.37-.83-7.27-2.08h0a116.11,116.11,0,0,0-18.92-4.87c2.35-2.17,2.53-3.32,2.3-4-.43-1.19-2.32-.68-4.15-2.25-2.32-2-1.86-5.15-3.12-5.2-1,0-1.76,1.45-2.77,3A25.85,25.85,0,0,1,280.51,64c-16.73-.14-44.43,4.44-44.65,10.91s26.39,13.93,46,14c1,0,2,0,3.06,0l-.64,0a26.24,26.24,0,0,0,2.77,6.92c1.07,1.85,1.86,3.2,2.77,3.12,1.41-.13,2.35-3.66,2.42-6.23a12,12,0,0,0-.68-4.29c4-.37,8-.93,11.47-1.51l-.4.08a7.58,7.58,0,0,1,3.54,2.51c.85,1.14.66,1.79,1.3,2.08,1.37.62,2.61-2.08,6.49-3.46,1.62-.58,2.76-.59,2.95-1.3s-.84-1.7-1.82-2.42c3-.93,4.37-1.52,7.1-1.82C336.65,81.09,349.4,90,349.4,90S350.5,83,347.84,80.49Z"/></g></g></g></svg>