<svg xmlns="http://www.w3.org/2000/svg" viewBox="0 0 1049 861.72"><defs><style>.cls-1{fill:#040f21;}.cls-2,.cls-5,.cls-8,.cls-9{fill:none;stroke-miterlimit:10;}.cls-2{stroke:#0b192c;stroke-width:5px;}.cls-3{fill:#0b192c;}.cls-4{fill:#020a17;}.cls-5{stroke:#183c65;stroke-width:4px;}.cls-6{fill:#183c65;}.cls-7{fill:#172d4d;}.cls-8{stroke:#172d4d;stroke-width:6px;}.cls-9{stroke:#1a5aaa;stroke-width:10px;}.cls-10{fill:#1a5aaa;}</style></defs><title>Asset 36</title><g id="Layer_2" data-name="Layer 2"><g id="Layer_48" data-name="Layer 48"><path class="cls-1" d="M0,246.72c130.28,1.68,208.67-25.41,257-52,2.95-1.62,52.62-29,123-44,54.36-11.58,76.23-6.21,91,2,25.43,14.14,27.82,30.41,48,72,25.65,52.86,139,126,139,126s37.77-21.56,104-45c91.67-32.44,166-30,166-30,41.52-62.79,53.82-115.44,57-153,3.12-36.88-.51-83.46,30-108,11.66-9.37,24.75-12.67,34-14v861H0Z"/><rect class="cls-1" x="609" y="250.72" width="41" height="102" rx="12" ry="12" transform="translate(235.2 -274.33) rotate(30)"/><rect class="cls-1" x="648.01" y="296.98" width="30.99" height="102" rx="12" ry="12" transform="translate(186.96 -230.15) rotate(22.83)"/><path class="cls-2" d="M372,185.72l79.36,20a29.78,29.78,0,0,1,21.14,11.46q8,34.5,16,69c2.91,6.35,6.31,8.73,9,9.69l9.5,1.51h0l105.53,16.8,30-51,24,15"/><line class="cls-2" x1="335.5" y1="213.22" x2="479.44" y2="248.03"/><path class="cls-2" d="M87.5,373.22l232.42,47.42a18,18,0,0,0,10.66,2.17,18.41,18.41,0,0,0,11.92-6.59q28-44.49,56-89c.27-.53,3.16-6.11,8.5-6.5a8.48,8.48,0,0,1,3.5.5l5.39.78L549.5,342.22"/><circle class="cls-2" cx="557" cy="343.72" r="8.5"/><circle class="cls-2" cx="328.5" cy="211.22" r="7"/><circle class="cls-3" cx="367" cy="184.72" r="6"/><line class="cls-2" x1="115.5" y1="335.22" x2="307.5" y2="372.22"/><line class="cls-2" x1="138.5" y1="307.22" x2="264.5" y2="328.22"/><circle class="cls-3" cx="314" cy="373.72" r="9.5"/><circle class="cls-3" cx="269.5" cy="329.22" r="7"/><path class="cls-4" d="M1049,224.72s-68.85,43.86-88,70c-34,46.48-64,93-64,93a100.84,100.84,0,0,0-18-13c-5.43-3.06-23.81-13.46-39-12-13.9,1.34-19.33,12.06-44,43-10,12.6,21.18-27.21-64,74h0s-17.13-8.6-50-30c0,0-43.39-28.24-90-42-59.49-17.55-117,10.26-142,21-170,73-450,82-450,82v345l1049,6Z"/><path class="cls-4" d="M765,456.72c-1-2-14-120-14-120l45-16,16,7,13,114Z"/><rect class="cls-4" x="705" y="384.72" width="49" height="97" rx="12" ry="12" transform="translate(-46.82 90.91) rotate(-6.91)"/><ellipse class="cls-5" cx="779" cy="357.72" rx="8" ry="10" transform="translate(-37.38 96.31) rotate(-6.91)"/><path class="cls-5" d="M780,367.72q2.5,28,5,56l-31,47,8,36-33,45"/><polyline class="cls-5" points="835 411.72 804 449.72 768.97 448.03"/><polyline class="cls-5" points="732 420.72 736 463.72 725.5 473.22 733 504.72 706 537.72"/><ellipse class="cls-5" cx="837.5" cy="407.72" rx="9.5" ry="5"/><circle class="cls-6" cx="731" cy="415.72" r="6"/><path class="cls-1" d="M1049,375.72c-13.77,14.07-31.16,20.34-41,15-12.3-6.66-19.67,1-32,14-6.7,7-11.82,10.3-25,24a431.59,431.59,0,0,0-35,42,556.31,556.31,0,0,0-48,78c-81,22.17-118.6,8.78-138-8-16.35-14.14-28.31-38.11-59-46-11.74-3-20.82-2.29-41,0-48.62,5.53-72.93,8.29-95,13-84.26,18-79.36,29-111,27-34.78-2.24-40.27-16.27-88-24a331.79,331.79,0,0,0-81-3c-45-13.58-77.86-31.09-100-45-32.82-20.61-47.77-36.89-77-42-30.95-5.4-58.9,5-78,15v426H1049Z"/><path class="cls-7" d="M887.76,585.15l-3.52-4.85c46.17-33.53,71.2-51.45,76.54-54.8a32.8,32.8,0,0,0,5.17-4,33.52,33.52,0,0,0,6.14-7.75l8-70,.28-.52a38.63,38.63,0,0,1,19.51-17.34l.12-.05,49-17.17v6l-46.94,16.81a32.68,32.68,0,0,0-16.15,14.13l-8,70-.29.52a39.43,39.43,0,0,1-7.57,9.73,38.43,38.43,0,0,1-6,4.64C958.75,533.86,933.82,551.71,887.76,585.15Z"/><path class="cls-7" d="M980.15,481.49l-2.3-5.54L1049,446.72v6Z"/><path class="cls-7" d="M1011,538l-6-.58,3-31.39.14-.38a21.38,21.38,0,0,1,5.3-7.92,22.1,22.1,0,0,1,8.53-4.85c5.7-1.88,9.17-3.31,15.27-5.23,2.72-.86,6.77-2.18,11.71-3.94v6c-4,1.66-7.42,2.84-9.75,3.61s-8.33,2.94-15.31,5.24a16.23,16.23,0,0,0-6.35,3.55,15.09,15.09,0,0,0-3.64,5.31Z"/><path class="cls-4" d="M1049,519.72s-93.2,6.81-220,54c-107.22,39.9-186,56-186,56a1173.77,1173.77,0,0,0-214-21c-180.42-1.05-328.31,39.93-429,78v175H1049Z"/><circle class="cls-8" cx="242.81" cy="539.72" r="10"/><line class="cls-8" x1="234.13" y1="536.99" x2="81.71" y2="504.32"/><circle class="cls-8" cx="197.29" cy="552.13" r="9.6"/><line class="cls-8" x1="188.84" y1="550.66" x2="55.48" y2="522.07"/><path d="M0,120.72l60-91a47.9,47.9,0,0,1,33-19,437.28,437.28,0,0,1,49-10c5.28-.75,11.62-1.5,19,1a36.42,36.42,0,0,1,19.46,16.2L265,126.72a54.84,54.84,0,0,1-7,42l-198,300a92.86,92.86,0,0,1,22,22c13.83,19.21,18,46,18,46,15.42,7.12,38.67,17.86,67,31,44.54,20.67,66.81,31,75,35,30.53,14.92,73.52,39.67,124,82a1412.51,1412.51,0,0,1,148,26c104,24.14,156,54,156,54q79.68-26.06,164-51,110.18-32.49,215-59v207H0Z"/><path class="cls-4" d="M865,153.72l136-107,27,12v9l-133,105-30-10Z"/><polygon class="cls-4" points="1049 162.72 1007 74.72 979 98.72 1032 210.72 1049 195.72 1049 162.72"/><polygon class="cls-4" points="979 243.72 931 126.72 906 149.72 951 266.72 979 243.72"/><path class="cls-4" d="M1049,293.72l-78,43q-15.5-37-31-74c-.27-.57-2.5-5.39,0-10a10.34,10.34,0,0,1,4-4l105-62.5Z"/><circle class="cls-9" cx="171.43" cy="130.23" r="34"/><path class="cls-10" d="M0,375.72v-17L147.48,154.88l8.11,5.86Z"/><circle class="cls-10" cx="148.92" cy="238.33" r="18.5"/><path class="cls-9" d="M158.1,226.06,80,331.72a22.53,22.53,0,0,1-11,9,22.28,22.28,0,0,1-12,1L22.74,336.8"/></g></g></svg>