<svg xmlns="http://www.w3.org/2000/svg" viewBox="0 0 1508.29 257.49"><defs><style>.cls-1{fill:#024f7d;}.cls-2{fill:#083964;}.cls-3{fill:#004374;}</style></defs><title>Asset 24</title><g id="Layer_2" data-name="Layer 2"><g id="Layer_29" data-name="Layer 29"><g id="Layer_35" data-name="Layer 35"><g id="Layer_37" data-name="Layer 37"><path class="cls-1" d="M59.72,100.13a6.86,6.86,0,0,0-4.34-1.39,12.54,12.54,0,0,0,5-2.76c1.59-1.57,1.85-5,1.85-5s-7.81,6-16.43,4.8a20.23,20.23,0,0,1-3.88-1.11h0a61.86,61.86,0,0,0-10.08-2.6c1.25-1.16,1.35-1.77,1.22-2.1-.22-.64-1.23-.37-2.21-1.2-1.24-1.06-1-2.75-1.66-2.77s-.94.77-1.48,1.57a13.77,13.77,0,0,1-3.88,3.78C14.89,91.28.12,93.72,0,97.18s14.08,7.42,24.55,7.47c.54,0,1.08,0,1.63,0l-.34,0a13.91,13.91,0,0,0,1.48,3.69c.57,1,1,1.71,1.48,1.66.75-.06,1.25-1.94,1.29-3.32a6.3,6.3,0,0,0-.36-2.28c2.14-.2,4.25-.5,6.12-.81l-.22,0A4.1,4.1,0,0,1,37.52,105c.45.61.35,1,.69,1.11.73.33,1.39-1.11,3.46-1.84.87-.31,1.47-.32,1.57-.7s-.44-.91-1-1.29a17.78,17.78,0,0,1,3.79-1c7.69-.83,14.49,3.93,14.49,3.93S61.13,101.45,59.72,100.13Z"/><path class="cls-1" d="M1317.94,54.14c-6.13-5.72-16.63-5.31-16.63-5.31s11.33-3,19.1-10.61c6.09-6,7.08-19.11,7.08-19.11s-30,22.85-63,18.4c-5.12-.69-6.89-1.69-14.86-4.25h0a235.82,235.82,0,0,0-38.68-10c4.8-4.44,5.17-6.77,4.71-8.07-.88-2.44-4.75-1.4-8.49-4.6-4.74-4.06-3.8-10.53-6.37-10.62-2.11-.07-3.6,3-5.67,6a53.16,53.16,0,0,1-14.86,14.5c-34.2-.29-90.83,9.06-91.29,22.3-.45,13.07,54,28.47,94.12,28.66,2.06,0,4.15,0,6.26-.1l-1.3.1a53.74,53.74,0,0,0,5.66,14.15c2.18,3.78,3.81,6.54,5.66,6.37,2.88-.26,4.82-7.47,4.95-12.74A24.69,24.69,0,0,0,1203,70.5c8.2-.76,16.29-1.9,23.45-3.09l-.84.17a15.39,15.39,0,0,1,7.26,5.14c1.73,2.31,1.34,3.65,2.65,4.24,2.8,1.26,5.34-4.25,13.27-7.08,3.31-1.18,5.63-1.2,6-2.65s-1.72-3.48-3.72-5c6.19-1.91,8.94-3.12,14.51-3.72,29.48-3.19,55.55,15,55.55,15S1323.36,59.21,1317.94,54.14Z"/><path class="cls-2" d="M1500.4,196.72c-5.06-4.72-13.74-4.38-13.74-4.38s9.36-2.46,15.78-8.77c5-4.94,5.85-15.78,5.85-15.78s-24.75,18.87-52,15.2c-4.23-.58-5.69-1.4-12.28-3.51h0a194.79,194.79,0,0,0-32-8.24c4-3.67,4.28-5.6,3.89-6.67-.72-2-3.92-1.15-7-3.8-3.92-3.35-3.14-8.7-5.27-8.77-1.74-.06-3,2.43-4.67,5a43.84,43.84,0,0,1-12.28,12c-28.25-.24-75,7.49-75.41,18.42s44.57,23.53,77.75,23.68c1.7,0,3.42,0,5.17-.08l-1.08.08a44.34,44.34,0,0,0,4.68,11.69c1.8,3.13,3.15,5.4,4.68,5.26,2.37-.21,4-6.17,4.09-10.52a20.43,20.43,0,0,0-1.15-7.24c6.78-.63,13.46-1.57,19.38-2.55l-.69.14a12.87,12.87,0,0,1,6,4.24c1.43,1.91,1.11,3,2.19,3.51,2.31,1,4.41-3.51,11-5.85,2.74-1,4.65-1,5-2.19s-1.41-2.88-3.07-4.09c5.11-1.58,7.39-2.57,12-3.07,24.35-2.64,45.89,12.42,45.89,12.42S1504.88,200.91,1500.4,196.72Z"/><path class="cls-2" d="M304.72,121.14C300.71,117.56,294,118,294,118s7.23-2.08,12.1-7.08c3.82-3.93,4.26-12.36,4.26-12.36s-18.87,15.09-40.11,12.71c-3.3-.37-4.44-1-9.59-2.51h0a150.75,150.75,0,0,0-24.94-5.84c3-2.91,3.22-4.42,2.9-5.24-.6-1.55-3.07-.83-5.51-2.83-3.1-2.53-2.59-6.7-4.24-6.71-1.35,0-2.27,1.94-3.54,3.93a34,34,0,0,1-9.32,9.52c-21.94.31-58.11,7.12-58.21,15.61s35,17.48,60.76,17c1.31,0,2.65-.08,4-.15l-.83.08a34.59,34.59,0,0,0,3.84,9c1.45,2.39,2.53,4.14,3.72,4,1.84-.21,3-4.85,3-8.24a16,16,0,0,0-1-5.59c5.24-.61,10.41-1.45,15-2.32l-.54.12a9.87,9.87,0,0,1,4.73,3.19c1.14,1.46.91,2.32,1.76,2.68,1.81.77,3.36-2.8,8.41-4.73,2.1-.8,3.59-.85,3.82-1.79s-1.15-2.21-2.46-3.12c3.94-1.31,5.69-2.12,9.25-2.59,18.86-2.47,35.84,8.84,35.84,8.84S308.28,124.31,304.72,121.14Z"/><path class="cls-3" d="M883.64,49.66c-4.26-4-11.57-3.69-11.57-3.69s7.89-2.07,13.3-7.38c4.23-4.17,4.92-13.3,4.92-13.3s-20.84,15.9-43.82,12.8c-3.56-.48-4.78-1.17-10.33-3h0a164.44,164.44,0,0,0-26.91-6.94c3.34-3.09,3.6-4.71,3.27-5.61-.6-1.7-3.3-1-5.9-3.2-3.3-2.83-2.64-7.33-4.43-7.39-1.47-.05-2.51,2.05-3.94,4.19a37,37,0,0,1-10.34,10.09c-23.79-.2-63.19,6.3-63.51,15.51s37.54,19.81,65.48,19.93q2.14,0,4.35-.06l-.91.06a37.83,37.83,0,0,0,3.94,9.85c1.52,2.63,2.66,4.55,3.94,4.43,2-.18,3.35-5.19,3.45-8.86a17.11,17.11,0,0,0-1-6.09c5.71-.54,11.34-1.32,16.32-2.15l-.58.12a10.65,10.65,0,0,1,5,3.57c1.21,1.61.94,2.54,1.85,3,1.94.87,3.71-3,9.23-4.92,2.31-.82,3.92-.84,4.19-1.85s-1.2-2.42-2.59-3.45c4.3-1.32,6.22-2.16,10.09-2.58,20.51-2.22,38.65,10.46,38.65,10.46S887.42,53.19,883.64,49.66Z"/><path class="cls-1" d="M206.34,243.71c-2.23-2.08-6.06-1.93-6.06-1.93a17.7,17.7,0,0,0,7-3.87c2.22-2.18,2.58-6.95,2.58-6.95s-10.91,8.32-22.93,6.69c-1.87-.25-2.51-.61-5.41-1.54h0a85.6,85.6,0,0,0-14.08-3.63c1.75-1.62,1.88-2.47,1.71-2.94-.31-.89-1.72-.51-3.09-1.68-1.72-1.47-1.38-3.83-2.32-3.86-.76,0-1.31,1.07-2.06,2.19a19.19,19.19,0,0,1-5.41,5.28c-12.45-.1-33.06,3.3-33.23,8.12S142.64,250,157.26,250l2.28,0-.47,0a19.36,19.36,0,0,0,2.06,5.15c.79,1.38,1.39,2.38,2.06,2.32,1.05-.1,1.75-2.72,1.8-4.64a9,9,0,0,0-.5-3.19c3-.27,5.93-.69,8.53-1.12l-.3.06a5.64,5.64,0,0,1,2.64,1.87c.63.84.49,1.33,1,1.55,1,.45,1.94-1.55,4.83-2.58,1.2-.43,2.05-.44,2.19-1s-.63-1.26-1.36-1.8a25,25,0,0,1,5.28-1.35c10.74-1.17,20.23,5.47,20.23,5.47S208.31,245.55,206.34,243.71Z"/><path class="cls-1" d="M1054.75,67.19c-2.4-2.24-6.51-2.08-6.51-2.08a19,19,0,0,0,7.48-4.15c2.38-2.35,2.77-7.48,2.77-7.48s-11.72,8.94-24.65,7.2c-2-.27-2.69-.66-5.81-1.66h0a92.24,92.24,0,0,0-15.14-3.91c1.88-1.73,2-2.65,1.84-3.16-.34-1-1.85-.54-3.32-1.8-1.85-1.58-1.49-4.12-2.49-4.15-.83,0-1.41,1.15-2.22,2.35a20.82,20.82,0,0,1-5.81,5.68c-13.39-.11-35.55,3.55-35.73,8.73S986.28,73.9,1002,74c.81,0,1.62,0,2.45,0l-.51,0a21.31,21.31,0,0,0,2.22,5.54c.85,1.48,1.49,2.56,2.21,2.49,1.13-.1,1.89-2.92,1.94-5a9.66,9.66,0,0,0-.54-3.43c3.21-.3,6.37-.74,9.18-1.21l-.33.07a6,6,0,0,1,2.84,2c.67.9.53,1.43,1,1.66,1.09.49,2.08-1.66,5.19-2.77,1.3-.46,2.2-.47,2.35-1s-.67-1.36-1.45-1.94a26.37,26.37,0,0,1,5.68-1.45c11.53-1.25,21.74,5.88,21.74,5.88S1056.88,69.17,1054.75,67.19Z"/><path class="cls-1" d="M400.39,65.19c-2.39-2.24-6.5-2.08-6.5-2.08A19,19,0,0,0,401.36,59c2.39-2.35,2.77-7.48,2.77-7.48s-11.72,8.94-24.65,7.2c-2-.27-2.69-.66-5.81-1.66h0a92.24,92.24,0,0,0-15.14-3.91c1.88-1.73,2-2.65,1.84-3.16-.34-1-1.85-.54-3.32-1.8-1.85-1.58-1.48-4.12-2.49-4.15-.83,0-1.41,1.15-2.22,2.35A20.68,20.68,0,0,1,346.53,52c-13.39-.11-35.55,3.55-35.73,8.73S331.92,71.9,347.64,72c.8,0,1.62,0,2.44,0l-.51,0a21.31,21.31,0,0,0,2.22,5.54c.85,1.48,1.49,2.56,2.21,2.49,1.13-.1,1.89-2.92,1.94-5a9.66,9.66,0,0,0-.54-3.43c3.21-.3,6.38-.74,9.18-1.21l-.33.07a6,6,0,0,1,2.84,2c.68.9.53,1.43,1,1.66,1.09.49,2.09-1.66,5.19-2.77,1.3-.46,2.21-.47,2.36-1S375,69,374.22,68.37a26.37,26.37,0,0,1,5.68-1.45c11.54-1.25,21.74,5.88,21.74,5.88S402.52,67.17,400.39,65.19Z"/></g></g></g></g></svg>