<svg xmlns="http://www.w3.org/2000/svg" viewBox="0 0 357.21 357.36"><defs><style>.cls-1{fill:#7498bc;}.cls-2{opacity:0.15;}.cls-3,.cls-6,.cls-8{fill:#fff;}.cls-4{fill:#df70ef;opacity:0.25;}.cls-5{fill:#72d3ed;opacity:0.31;}.cls-6,.cls-7{opacity:0.2;}.cls-7{fill:#b1a7f2;}.cls-8{opacity:0.58;}</style></defs><title>Asset 38</title><g id="Layer_2" data-name="Layer 2"><g id="Layer_50" data-name="Layer 50"><polyline class="cls-1" points="129 83.26 130.02 269.51 272 176.38"/><g class="cls-2"><path class="cls-3" d="M178,10.39a168,168,0,0,1,118.79,286.8A168,168,0,1,1,59.21,59.6,166.9,166.9,0,0,1,178,10.39m0-10a178,178,0,1,0,178,178A178,178,0,0,0,178,.39Z"/></g><path class="cls-4" d="M106,57.39c114.88,0,208,93.13,208,208a208.92,208.92,0,0,1-2.22,30.41A178,178,0,1,0,37.66,68.89,207.8,207.8,0,0,1,106,57.39Z"/><path class="cls-5" d="M314.28,139.7C285.69,251,172.32,318,61.06,289.38a209.39,209.39,0,0,1-28.89-9.71,178,178,0,1,0,288-209A207.74,207.74,0,0,1,314.28,139.7Z"/><path class="cls-6" d="M67.1,264.48c-14.25-114,66.59-217.95,180.58-232.21a210,210,0,0,1,30.44-1.57A178,178,0,1,0,87,330.86,207.88,207.88,0,0,1,67.1,264.48Z"/><ellipse class="cls-7" cx="214.18" cy="239.32" rx="108.08" ry="90.62" transform="translate(-90.96 139.15) rotate(-30)"/><rect class="cls-8" x="61.15" y="68.57" width="42.23" height="42.23" transform="translate(33.24 -21.71) rotate(18.78)"/><path class="cls-8" d="M51.58,245.55a228.3,228.3,0,0,1-3.09-122.11l40,13.59Z"/></g></g></svg>