<svg xmlns="http://www.w3.org/2000/svg" viewBox="0 0 225.59 860.02"><defs><style>.cls-1{fill:#052a47;}</style></defs><title>Asset 29</title><g id="Layer_2" data-name="Layer 2"><g id="Layer_2-2" data-name="Layer 2"><path class="cls-1" d="M.5,812.09,11.31,860q-3.63-49.18-4.19-98.57a55.41,55.41,0,0,1,19.15-1.4c18.83,2,22.15,16.08,42.58,20.9,14.84,3.5,27.48-.53,34.8-2.87,29.87-9.52,47.38-41.86,47.38-41.86S131.39,748,101.89,748.5c-34.47.58-44.66-21-70.37-15C21.24,735.94,13,742.6,7,749.23c0-8.18,0-16.37,0-24.55l.44-24.81.92-24.79c.11-4,.3-7.9.52-11.84a190.51,190.51,0,0,1,46.36-5.61c27.72.1,35.05,6.29,55.94,2.63,29.25-5.13,48.73-23.19,55.36-29.94a108.1,108.1,0,0,0,28.92-56.09s-26,20-76.34,38c-26.46,9.5-31.3,6.26-59,17.09C39.91,637.29,20.58,650,9.26,658.2c.15-2.64.31-5.27.46-7.91.51-8.26.89-16.53,1.64-24.77l2-24.76,2.51-24.71c.44-4.12.81-8.25,1.3-12.36l1.55-12.32.06-.5a242.47,242.47,0,0,1,37.65-16c41.58-13.85,57.29.25,90.44-10.17,42.44-13.33,65.95-61.24,65.95-61.24s-26.28,9.06-89.22,24.43c-34.32,8.38-41.71,7.34-59.19,16.23-20.61,10.48-35.74,26.84-44.56,38.27l.42-3.32.77-6.17.39-3.08.46-3.08c2.49-16.38,4.71-32.82,7.72-49.12l2.13-12.26c.73-4.08,1.36-8.18,2.21-12.24l4.86-24.4c0-.19.07-.38.11-.58,6.59-2.84,18.1-7.54,33.81-12.95,36.83-12.68,48.08-2.07,83.06-15,10.83-4,24.9-9.32,38.92-21.9,19.79-17.77,27.65-39.39,30.89-51.06-29.38,24-53.44,30.68-70.31,32.21-11.92,1.09-33.59,2.62-62.91,11a71.33,71.33,0,0,0-12.65,5c-17.48,8.82-29.8,24.17-37.47,36.48l1.68-7.68c.87-4.06,1.81-8.1,2.75-12.14l2.82-12.13c3.56-14.63,7.21-29.24,11.16-43.77a231.28,231.28,0,0,1,29.68-17.49c24.48-12.05,43.92-16.16,50.64-18,22-6.13,51.14-28.25,81.32-99.92,0,0-20.57,18-68.23,46.3-29.61,17.59-35.85,16-54.31,30.62-16.12,12.77-27.46,29.31-34.59,42.09,7.86-28,16.59-55.79,26-83.35q2.22-6.42,4.48-12.81a270.53,270.53,0,0,0,70.19-83.46C202.28,72.59,197.71,0,197.71,0s-6,22.73-25.38,59.87C148,106.47,129.73,113.66,112,151.7c-6.9,14.8-15.22,37.46-18.3,68.62q-3,7.47-5.86,15C76,266.45,64.93,298,55.05,329.82c-5,15.92-9.62,32-14.15,48l-3.27,12.09c-1.09,4-2.18,8.06-3.2,12.11l-3.1,12.13c-1.06,4-1.95,8.12-2.93,12.18l-5.76,24.39c-1,4.06-1.79,8.16-2.67,12.25l-2.58,12.26C13.77,491.59,11,508.07,7.84,524.5l-.57,3.09-.5,3.09-1,6.19-2,12.39-2,12.38C1.12,565.78.59,569.93,0,574.07"/></g></g></svg>