<svg xmlns="http://www.w3.org/2000/svg" xmlns:xlink="http://www.w3.org/1999/xlink" viewBox="0 0 246.23 366.34"><defs><style>.cls-1,.cls-13,.cls-14,.cls-15{fill:none;}.cls-2{fill:#544758;}.cls-3{clip-path:url(#clip-path);}.cls-4{fill:#272c3f;}.cls-5{clip-path:url(#clip-path-2);}.cls-6{fill:#546c9a;}.cls-7{fill:#1d559f;}.cls-8{fill:#9f646a;}.cls-9{clip-path:url(#clip-path-3);}.cls-10{fill:#cb9885;}.cls-11{fill:#ba5d64;}.cls-12{fill:#e1c8cb;}.cls-13{stroke:#544758;stroke-linejoin:round;}.cls-13,.cls-14,.cls-15{stroke-linecap:round;}.cls-13,.cls-14{stroke-width:4px;}.cls-14{stroke:#9f646a;}.cls-14,.cls-15{stroke-miterlimit:10;}.cls-15{stroke:#e1c8cb;stroke-width:3px;}</style><clipPath id="clip-path"><ellipse class="cls-1" cx="66.18" cy="114.72" rx="17.32" ry="42.86" transform="matrix(0.85, -0.52, 0.52, 0.85, -50.16, 51.43)"/></clipPath><clipPath id="clip-path-2"><ellipse class="cls-1" cx="200.9" cy="162.62" rx="17.22" ry="43.11" transform="translate(-36.1 59.48) rotate(-15.47)"/></clipPath><clipPath id="clip-path-3"><polygon class="cls-1" points="75.3 94.62 172.6 162.19 202.54 95.47 202.54 68.1 75.3 68.1 75.3 94.62"/></clipPath></defs><title>Asset 42</title><g id="Layer_2" data-name="Layer 2"><g id="Layer_24" data-name="Layer 24"><g id="Layer_25" data-name="Layer 25"><g id="Layer_28" data-name="Layer 28"><ellipse class="cls-2" cx="66.18" cy="114.72" rx="17.32" ry="42.86" transform="matrix(0.85, -0.52, 0.52, 0.85, -50.16, 51.43)"/><g class="cls-3"><polygon class="cls-4" points="30.23 121.53 12.81 93.39 65.84 58.66 83.25 86.81 30.23 121.53"/></g><ellipse class="cls-2" cx="200.9" cy="162.62" rx="17.22" ry="43.11" transform="translate(-36.1 59.48) rotate(-15.47)"/><g class="cls-5"><polygon class="cls-4" points="237.26 166.54 246.23 198.6 185.83 216.48 176.85 184.42 237.26 166.54"/></g><path class="cls-6" d="M196.1,83.78c.6-2.85,2.52-9.92,8.76-14.79,7.38-5.74,21-3.07,21-3.07s-4.19,13.27-12.4,17.14C206,86.56,198.7,84.62,196.1,83.78Z"/><path class="cls-7" d="M193.11,82.6c2.51-1.36,9-4.41,16.63-2.64,9,2.09,15.81,14.51,15.81,14.51S213,99.72,204.81,95.76C197.41,92.16,194.16,85.18,193.11,82.6Z"/><path class="cls-2" d="M105.91,260.62a106.68,106.68,0,0,1-34.12,29.59c-32,17.18-69.65-1.61-71.7,4.56-1.53,4.59,17.07,16.64,35.66,21.73C55.65,322,73,318.75,82.07,317a118.78,118.78,0,0,0,24.37-7.55Z"/><path class="cls-2" d="M129.35,339.83l-54.06,1.42V287.08h43Q123.81,313.45,129.35,339.83Z"/><path class="cls-4" d="M129.35,339.11c0,14.57-12.1,26.38-27,26.38s-27-11.81-27-26.38"/><path class="cls-2" d="M148.48,340.68l54.06,1.43V287.93h-43Q154,314.31,148.48,340.68Z"/><path class="cls-4" d="M148.48,340c0,14.56,12.1,26.37,27,26.37s27-11.81,27-26.37"/><rect class="cls-8" x="75.3" y="68.1" width="127.24" height="248.91"/><polygon class="cls-6" points="75.3 94.62 172.6 162.19 202.54 95.47 202.54 68.1 75.3 68.1 75.3 94.62"/><g class="cls-9"><polygon class="cls-7" points="213.4 61.39 145.42 162.2 59.37 100.8 127.34 0 213.4 61.39"/></g></g><g id="Layer_27" data-name="Layer 27"><path class="cls-2" d="M74,68.1a9.84,9.84,0,1,1,0-19.67"/><path class="cls-2" d="M204.88,68.1a9.84,9.84,0,1,0,0-19.67"/><ellipse class="cls-10" cx="139.02" cy="62.12" rx="68" ry="53.89"/><path class="cls-11" d="M127.9,97.61a13.56,13.56,0,0,0,2.56,2.57,10.66,10.66,0,0,0,6,2.57,10.25,10.25,0,0,0,6-1.71c1.52-.91,3.53-2.11,3.42-3.43-.16-1.93-4.85-3.42-8.55-3.42A15.69,15.69,0,0,0,127.9,97.61Z"/><path class="cls-12" d="M163.89,85c-.16,1.11-1.29,7.86-7.21,11.43a15.53,15.53,0,0,1-8.8,2,20.23,20.23,0,0,1-10.8-4h0A17,17,0,0,1,126,98.14a16.56,16.56,0,0,1-7.53-2.39c-4.18-2.55-7.6-7.19-8-11.44-.94-9.49,12.74-20.6,26.26-20.94,10.76-.28,22.31,6.31,26,16A19.65,19.65,0,0,1,163.89,85Z"/><path class="cls-4" d="M147.74,82.5l-20.83-.41s1.8-7.52,8.26-16.86c.46-.67,1.42-2,2.68-2s2.15,1.41,2.6,2.11C146.44,74.76,147.74,82.5,147.74,82.5Z"/><path class="cls-13" d="M121.48,95.48A10.17,10.17,0,0,0,127.81,98C132,98,137,94.62,137,94.62s4.69,3,9.14,3.42a11.93,11.93,0,0,0,7-1.71"/><line class="cls-14" x1="83.85" y1="73.24" x2="92.4" y2="76.66"/><line class="cls-14" x1="194.19" y1="73.24" x2="185.64" y2="76.66"/><line class="cls-15" x1="158.69" y1="83.07" x2="193.76" y2="83.07"/><line class="cls-15" x1="81.71" y1="83.07" x2="116.78" y2="83.07"/><line class="cls-15" x1="88.98" y1="94.62" x2="113.78" y2="86.92"/><line class="cls-15" x1="186.49" y1="95.48" x2="161.69" y2="87.78"/><circle class="cls-4" cx="177.94" cy="67.25" r="5.13"/><circle class="cls-4" cx="97.53" cy="67.25" r="5.13"/></g></g></g></g></svg>