<svg xmlns="http://www.w3.org/2000/svg" xmlns:xlink="http://www.w3.org/1999/xlink" viewBox="0 0 689.5 1343.2"><defs><style>.cls-1,.cls-10,.cls-7,.cls-8,.cls-9{fill:none;}.cls-2{fill:#052a47;}.cls-3{fill:#3a7fa9;}.cls-4{fill:#1c5e9a;}.cls-5{clip-path:url(#clip-path);}.cls-6{fill:#11395c;}.cls-10,.cls-11,.cls-12,.cls-7,.cls-8,.cls-9{stroke:#041541;stroke-miterlimit:10;}.cls-10,.cls-11,.cls-7,.cls-8,.cls-9{stroke-linecap:round;}.cls-7{stroke-width:8px;}.cls-11,.cls-8{stroke-width:10px;}.cls-9{stroke-width:13px;}.cls-10{stroke-width:12px;}.cls-11,.cls-12,.cls-14{fill:#041541;}.cls-12{stroke-width:3px;}.cls-13{fill:#352f53;}.cls-15{fill:#5c2b48;}.cls-16{fill:#7f381a;}.cls-17{fill:#502e3f;}.cls-18{clip-path:url(#clip-path-2);}.cls-19{fill:#0d1a4f;}.cls-20{fill:#016e8b;}.cls-21{clip-path:url(#clip-path-3);}.cls-22{fill:#033f63;}.cls-23{fill:#006466;}.cls-24{clip-path:url(#clip-path-4);}.cls-25{fill:#00394c;}</style><clipPath id="clip-path"><path class="cls-1" d="M611.79,1251.27c-6.51,4.83-24.56,24.85-41.81,43-8.94.18-17.69.61-25.25,3a64.82,64.82,0,0,0-7.38,2.8c11.19-16.51,23-37.3,31.76-51.32,19.87-21.92,42.65-38.63,58.1-33.42C658.21,1225.72,625,1241.47,611.79,1251.27Zm-67.06,45.94a64.82,64.82,0,0,0-7.38,2.8c11.19-16.51,23-37.3,31.76-51.32-15.83,17.47-29.81,38.26-36.73,53.89a71,71,0,0,0-3.38,9c-2.53,8.82-1.4,14.51,5,14.51,4.8,0,20-15.13,36-31.89C561,1294.41,552.29,1294.84,544.73,1297.21Zm-38.49-143.36c-35.49-23.47-52,148.27-17.25,148.27,3.49,0,6.76-4.55,9.68-12-1.14-21.93,4.62-57.45,13.74-89.15v0C513.16,1176.94,511.41,1157.27,506.24,1153.85Zm-7.57,136.22c7.51-19.22,12.76-57.84,13.74-89.15C503.29,1232.62,497.53,1268.14,498.67,1290.07Zm169.58-21.71c-11.68-1.32-55.08,21.08-69.27,24-9,1.83-19.12,1.71-29,1.91-15.94,16.76-31.19,31.89-36,31.89-6.39,0-7.52-5.69-5-14.51a82.26,82.26,0,0,1-8.3,9.35c2.3,4.89,10.33,8.47,25.83,8.47,36.51,0,86.41-4.87,118.7-24.34C687.3,1291.78,705.12,1272.52,668.25,1268.36Zm-123.52,28.85a64.82,64.82,0,0,0-7.38,2.8,51.33,51.33,0,0,0-5,2.57c-9.57,5.61-14.31,12.84-11.68,18.38a82.26,82.26,0,0,0,8.3-9.35c-2.53,8.82-1.4,14.51,5,14.51,4.8,0,20-15.13,36-31.89C561,1294.41,552.29,1294.84,544.73,1297.21Zm54.64-117.06c-16.53.21-41.93,28.54-62.36,60.17,0,0,0,0,0,0-4.93,30.3-12.52,70.78-28.48,70.78a6.08,6.08,0,0,1-3.93-1.4c-1.79,10,0,16.4,6.9,16.4,2.61,0,5.74-1.9,9.21-5.16-2.63-5.54,2.11-12.77,11.68-18.38,6.92-15.63,20.9-36.42,36.73-53.89a115.65,115.65,0,0,1,9.26-13.38C582.81,1230.27,637.13,1179.66,599.37,1180.15Zm-94.78,129.57a6.08,6.08,0,0,0,3.93,1.4c16,0,23.55-40.48,28.48-70.78C520.72,1265.55,507.59,1292.84,504.59,1309.72Zm27.79-7.14c-9.57,5.61-14.31,12.84-11.68,18.38a82.26,82.26,0,0,0,8.3-9.35c2.71-3.47,5.51-7.39,8.35-11.6,11.19-16.51,23-37.3,31.76-51.32C553.28,1266.16,539.3,1287,532.38,1302.58Zm18.29-169.35c-13.63,1.46-28,32.16-38.26,67.67v0c-1,31.31-6.23,69.93-13.74,89.15.51,9.74,2.38,16.8,5.92,19.65,3-16.88,16.13-44.17,32.41-69.38,0,0,0,0,0,0,2.12-13.06,3.75-24.23,5.35-29.45C545.93,1199.23,581.82,1129.9,550.67,1133.23Zm-52,156.84c7.51-19.22,12.76-57.84,13.74-89.15C503.29,1232.62,497.53,1268.14,498.67,1290.07Zm5.92,19.65a6.08,6.08,0,0,0,3.93,1.4c16,0,23.55-40.48,28.48-70.78C520.72,1265.55,507.59,1292.84,504.59,1309.72Z"/></clipPath><clipPath id="clip-path-2"><path class="cls-1" d="M199,943.12c5.53,2.63,14.78-6.74,16-8h0c13.7-10.58,20.55-15.87,25-20,5.2-4.82,15.71-15.14,29-34l24.22,18.53c-2.19,3.6-4.09,6.69-8.22,12.47-16.93,23.74-23,27.49-21,32,4.41,10.12,40.77,5.25,65-3,8-2.73,16-5.54,24.06-9.93l25.59,19.93a151.62,151.62,0,0,1-52.65,24c-14.56,3.17-69.8,2.73-83,4a72,72,0,0,0-28,9c-1.29.75-29.49,17.3-26,31s36.26,14.93,38,15c14.67.65,26.53-3.39,34-6l40.12,14.45a139.08,139.08,0,0,1-14.12,6.55c-16.85,7.05-30.59,7.78-54,9-16.68.88-49.1-8.47-56-8-10.92.76-17.43,10.15-28,23-7.09,8.62-13.05,15.87-18.25,21.78l-17.24-73a131.86,131.86,0,0,1,9.49-12.81,176.37,176.37,0,0,1,18-18c12.64-11.39,14.82-11.23,20-18,4.88-6.37,10.49-13.69,10-23"/></clipPath><clipPath id="clip-path-3"><path id="_Clipping_Path_" data-name="&lt;Clipping Path&gt;" class="cls-1" d="M51,1152.14a428.8,428.8,0,0,1,88.23-51.65q3.54-1.53,7.1-3c-3.7,8.12-6.09,18.33-1.76,28.63,5.45,13,16.47,14,25.12,28,13,21.06,6.61,43,6.61,43s8.74-10.16,11.9-21c6.78-23.27.83-48.74-13.22-61-1.5-1.3-8.08-6.81-11.9-10-4.57-3.8-8.55-7.09-11.69-9.66a426.17,426.17,0,0,1,55.48-17.57c11.61-2.85,23.35-5.23,35.21-7.49l.81-.16c-3.29,11.42,16.92,47.87,47.11,67.88,46.88,31.09,104.92,14,120,9,0,0-31.56,1.35-65-19-22.81-13.87-24.13-25.4-51-42-2-1.22-23.12-14.35-37.63-18.47L260,1067l4.51-.94c1.5-.32,3-.63,4.5-1l9-2.19c3-.78,5.92-1.71,8.88-2.55l4.44-1.3,4.37-1.49,8.73-3,8.57-3.4,4.28-1.7,4.2-1.89,8.39-3.81c1.41-.6,2.76-1.34,4.12-2l4.09-2.1,4.72-2.42c.89,12.27,38.55,45.62,79.24,44,20.25-.79,38-10.13,55-19.06a210.56,210.56,0,0,0,36-23.94c-41.73,17-62.61,15.82-74,11-3-1.25-16.06-6.32-34.49-12.54a99.57,99.57,0,0,0-13.51-3.46c-9.86-1.85-25.5-3.61-36.28-2.67a411.76,411.76,0,0,0,51.91-36.36l.35-.3c14.35-3.09,67.52-33.83,97.52-88.17,20.12-36.44,21-76,21-76s-13,31.62-46,73c-12.16,15.28-16.26,17.54-43,49-14.57,17.16-24.5,28.84-29.45,35.48-1.23,1-2.44,1.93-3.68,2.87a395.17,395.17,0,0,1-60.83,38.35c-2.67,1.35-5.4,2.56-8.1,3.84l-4.06,1.91c-1.35.62-2.69,1.29-4.09,1.83l-8.28,3.4-4.14,1.69-4.21,1.49-8.42,3-8.54,2.6-4.26,1.29-4.32,1.09c-2.89.71-5.75,1.5-8.65,2.15l-8.72,1.8c-1.45.31-2.91.57-4.38.82L258,1056l-17.89,2.78c-12,1.83-24.07,3.83-36.08,6.32a430.91,430.91,0,0,0-70.75,20.85,443.94,443.94,0,0,0-82.44,42.75"/></clipPath><clipPath id="clip-path-4"><path class="cls-1" d="M200.26,534.22l6-12.7c7.35-15.27,14.8-30.51,22.55-45.59a259.65,259.65,0,0,1,36.8-12.31c29.79-7.53,52.16-7.51,60-8,25.64-1.6,63-19.13,113-91,0,0-26.87,15-86,35-36.74,12.44-43.25,9.22-67,21-20.76,10.3-37.13,25.85-48,38.26q22.85-43.51,48.16-85.72,3.94-6.54,7.94-13.07a304.52,304.52,0,0,0,96.88-75.47c56-66,68-147,68-147s-11.91,23.64-42,60c-37.75,45.62-59.53,49.26-88,87-11.08,14.69-25.55,37.69-36.25,71.29q-5,7.54-10,15.13c-20.38,31.53-39.9,63.64-58.25,96.44-9.26,16.35-18.09,32.95-26.84,49.59l-6.43,12.55c-2.15,4.18-4.3,8.36-6.37,12.58l-6.26,12.64c-2.12,4.2-4,8.49-6.08,12.73l-12.07,25.52c-2.05,4.23-3.88,8.57-5.81,12.86l-5.72,12.9c-7.81,17.14-14.78,34.62-22.05,52l-1.35,3.26-1.28,3.3L121.28,684l-5.11,13.17-5.11,13.18c-1.67,4.4-3.23,8.84-4.85,13.27l-9.6,26.59-9,26.79c-3.1,8.91-5.81,17.93-8.66,26.92s-5.73,18-8.28,27.06l-7.89,27.18-7.35,27.33Q52.63,896,50,906.61l1.64,134.62q7.55-55,18.5-109.55a62.52,62.52,0,0,1,21.42,2.94c20.26,6.62,20.63,22.91,42,33,15.52,7.34,30.39,5.86,39,5,35.13-3.49,62-35,62-35s-24.39,8.38-57,2c-38.11-7.44-44.26-33.65-74-33-11.89.26-22.53,5.67-30.66,11.58q2.82-13.55,5.81-27L85,863.94l6.83-27.09c1-4.33,2.19-8.62,3.35-12.91a214.43,214.43,0,0,1,52.38,4.68c30.51,6.61,37.13,15.14,61,16,33.42,1.22,59.12-14.11,68-20a121.54,121.54,0,0,0,45-55s-33.38,15.9-93,24c-31.38,4.27-35.95-.43-69,5-24.21,4-48.48,13.48-62.87,19.83l2.37-8.6c2.49-9,4.85-18,7.6-26.91l8-26.8,8.56-26.63c1.45-4.43,2.83-8.89,4.33-13.31L132.14,703l.19-.54a274.17,274.17,0,0,1,45.23-8.83c49-5.5,63,13.7,102,10,49.87-4.73,87-52,87-52s-31.08,3.83-104,6c-39.77,1.19-47.67-1.68-69,4-25.16,6.71-45.67,21.19-58.06,31.71l1.24-3.56,2.3-6.61,1.15-3.31,1.22-3.27c6.59-17.46,12.88-35.05,20-52.3l5.22-13c1.76-4.33,3.41-8.7,5.31-13L183,572.57l.27-.61c7.92-1.58,21.7-4.06,40.27-6.34,43.54-5.33,53.45,9,95,3,12.86-1.85,29.61-4.43,48-15,26-14.93,39.69-36.9,46-49-38,19.53-66.06,21.27-85,19-13.39-1.6-37.61-5-71.89-2.59a81.26,81.26,0,0,0-15.11,2.59c-21.32,5.61-38.49,19.63-49.82,31.4l3.65-8.07C196.29,542.68,198.28,538.45,200.26,534.22Z"/></clipPath></defs><title>Asset 1</title><g id="Layer_2" data-name="Layer 2"><g id="Layer_2-2" data-name="Layer 2"><path class="cls-2" d="M49.94,914.54l12.18,54q-4.08-55.38-4.71-111A62.62,62.62,0,0,1,79,855.93c21.2,2.25,25,18.11,48,23.54,16.71,3.94,31-.6,39.19-3.23,33.64-10.73,53.35-47.14,53.35-47.14s-22.1,13.27-55.33,13.82c-38.82.65-50.29-23.7-79.25-16.87C73.3,828.78,64,836.28,57.3,843.75c0-9.22,0-18.43.06-27.65l.49-27.94,1-27.92c.12-4.45.34-8.89.59-13.33a214.45,214.45,0,0,1,52.2-6.31c31.22.1,39.47,7.07,63,2.95,32.94-5.77,54.88-26.11,62.34-33.71a121.57,121.57,0,0,0,32.57-63.17s-29.33,22.5-86,42.84c-29.8,10.7-35.25,7-66.45,19.25C94.32,717.69,72.56,732,59.81,741.23c.18-3,.36-5.93.52-8.9.57-9.3,1-18.62,1.84-27.9l2.24-27.88,2.84-27.83c.49-4.64.91-9.28,1.46-13.92l1.75-13.88.07-.56a272.27,272.27,0,0,1,42.4-18.05c46.82-15.59,64.51.28,101.84-11.45,47.8-15,74.27-69,74.27-69s-29.59,10.21-100.47,27.52c-38.65,9.44-47,8.27-66.66,18.27-23.21,11.8-40.25,30.23-50.18,43.1L72.2,607l.87-6.95.44-3.47.51-3.46c2.81-18.44,5.3-37,8.7-55.32L85.11,524c.83-4.6,1.54-9.22,2.5-13.78l5.47-27.49c0-.21.08-.43.13-.65,7.42-3.2,20.38-8.49,38.07-14.58,41.48-14.28,54.15-2.34,93.54-16.84,12.19-4.49,28-10.5,43.83-24.66,22.29-20,31.14-44.36,34.79-57.5-33.09,27-60.19,34.55-79.18,36.27-13.43,1.22-37.83,2.95-70.86,12.43a80.42,80.42,0,0,0-14.24,5.68C119.48,432.85,105.6,450.13,97,464l1.89-8.66c1-4.57,2-9.12,3.1-13.67L105.13,428c4-16.47,8.12-32.93,12.57-49.3A260.75,260.75,0,0,1,151.12,359c27.57-13.57,49.46-18.2,57-20.31,24.75-6.9,57.6-31.82,91.58-112.53,0,0-23.16,20.25-76.83,52.14-33.35,19.81-40.38,18-61.16,34.48-18.16,14.39-30.94,33-39,47.4,8.85-31.54,18.68-62.82,29.25-93.86q2.5-7.23,5.05-14.43a304.74,304.74,0,0,0,79-94C277.19,81.75,272,0,272,0s-6.73,25.6-28.59,67.43c-27.42,52.47-48,60.57-68,103.41-7.78,16.67-17.15,42.18-20.62,77.27q-3.33,8.43-6.6,16.87c-13.36,35.08-25.77,70.55-36.89,106.45-5.65,17.92-10.84,36-15.94,54.09l-3.67,13.61c-1.23,4.54-2.46,9.08-3.61,13.64l-3.5,13.67c-1.19,4.54-2.19,9.14-3.29,13.71l-6.49,27.47c-1.13,4.57-2,9.19-3,13.79L69,535.22c-4.07,18.38-7.25,36.94-10.74,55.45l-.65,3.47L57,597.63l-1.13,7-2.26,13.95-2.26,14c-.72,4.65-1.31,9.32-2,14"/><path class="cls-3" d="M562,1308.12c-29.76,0,49.48-118.22,70.32-118.86C661.29,1188.36,590.14,1308.12,562,1308.12Z"/><path class="cls-3" d="M526.51,1269.13c-29.61,0,15.68-127.45,40.87-132.64C597.55,1130.27,543.33,1269.13,526.51,1269.13Z"/><path class="cls-3" d="M531,1281.63c-29.59,0,39-124.91,60.7-127.81C626.16,1149.21,551.94,1281.63,531,1281.63Z"/><path class="cls-3" d="M533,1326.63c-44.14,0,26.41-35.51,31.11-37.63,19.35-8.74,80.58-82.42,89.62-81.33,35.18,4.26-18,62.18-26.21,70.2C605.81,1298.91,565.64,1326.63,533,1326.63Z"/><path class="cls-4" d="M534,1326.13c-29.79,0,54.62-123.88,93.22-110.86,31,10.46-2.22,26.2-15.42,36C599.26,1260.57,544,1326.13,534,1326.13Z"/><path class="cls-4" d="M489,1302.12c-34.76,0-18.24-171.74,17.25-148.27C520.79,1163.47,508.27,1302.12,489,1302.12Z"/><path class="cls-4" d="M546.53,1329.44c-39.5,0-30.52-23.25-1.8-32.23,15.9-5,37.09-1.41,54.25-4.89,14.19-2.88,57.59-25.28,69.27-24,36.87,4.16,19,23.42-3,36.73C632.94,1324.57,583,1329.44,546.53,1329.44Z"/><path class="cls-4" d="M511.49,1326.13c-32.93,0,50.34-145.5,87.88-146,37.76-.48-16.56,50.12-21,55.16C565.64,1249.76,528,1326.13,511.49,1326.13Z"/><path class="cls-4" d="M508.52,1311.13c-28.32,0,9.21-174.38,42.15-177.9,31.15-3.33-4.74,66-8.31,77.64C537.06,1228.21,531.36,1311.13,508.52,1311.13Z"/><g id="Layer_3" data-name="Layer 3"><g class="cls-5"><ellipse id="_Ellipse_" data-name="&lt;Ellipse&gt;" class="cls-6" cx="539" cy="1286.12" rx="49" ry="89" transform="translate(-855.46 1274.91) rotate(-66.8)"/></g></g><line class="cls-7" x1="443" y1="1176.12" x2="431" y2="1215.12"/><line class="cls-7" x1="534" y1="1254.12" x2="484" y2="1252.12"/><line class="cls-7" x1="499" y1="1206.12" x2="460" y2="1231.12"/><line class="cls-8" x1="329" y1="1187.12" x2="375" y2="1225.12"/><line class="cls-7" x1="416" y1="1161.12" x2="416" y2="1207.12"/><line class="cls-9" x1="368.95" y1="1160.11" x2="391.05" y2="1215.14"/><line class="cls-10" x1="476" y1="1259.12" x2="539" y2="1286.12"/><line class="cls-8" x1="471" y1="1234.12" x2="535" y2="1229.12"/><line class="cls-11" x1="443.32" y1="1226.45" x2="478.68" y2="1172.8"/><ellipse class="cls-12" cx="423.79" cy="1253.85" rx="51" ry="73" transform="matrix(0.28, -0.96, 0.96, 0.28, -898.47, 1311.88)"/><g id="Layer_5" data-name="Layer 5"><path class="cls-13" d="M134.26,1179.28c-30.35-16.3-50.78-31-48.26-39.16,4.09-13.16,73.64-25,96-28,5.28-.71,13.5-1.69,19-8,8.82-10.11,2.32-24.37,5-49,2.89-26.51,5.71-28.59,7-29,4.61-1.44,11.5,4.83,15,11,4.08,7.2,2.91,13.13,2,40-.51,15.18-.25,16.55,1,18,1.85,2.15,8.69,7.81,62-12,7.86-2.92,13.6-5.22,18.38-7.2l32.62,19.2c-21.34,5.68-32.05,8.59-32,12,.09,6.19,30.69,10.33,36,11a189.8,189.8,0,0,0,48,0l47.82,21.23c-4.57,1.6-9.79,3.54-15.82,5.77-18.27,6.78-21.5,10-28.35,12.94,0,0-2.78,1.14-5.65,2.06-13.65,4.4-52.75-5.13-70,7"/><path class="cls-14" d="M324,1167.12c-9.87,6.94-11.53,20.23-12,24-4,32.32,35.88,54.32,32,62-6.75,13.36-136.85-34.71-209.74-73.84"/><path class="cls-13" d="M486.4,1142c16.53,13.77,24.15,39.44,37.6,37.09,7-1.21,12.41-9.43,13-16,.25-2.75-.09-8.25-15-24"/><path class="cls-15" d="M522,1139.12c-16-16.86-23.58-18.16-24-26-.4-7.41,4.41-11.18,14-25,12.9-18.58,27.16-39.13,21-51-3.25-6.25-12-9.79-18-8-6.35,1.91-8.45,9.47-12,18-2.9,7-13.3,32-30,44-10.76,7.76-13,2.12-41,12-22.06,7.8-21.05,11.44-36,15l47.82,21.23c12.4-4.35,20-6.28,26.18-5.23a34.6,34.6,0,0,1,16.4,7.91"/><path class="cls-15" d="M311.38,1075.92c6.33-2.6,11-4.61,16.76-6.68,4.61-1.65,8.19-2.78,12.86-4.12,14.48-4.13,45.27-12.92,52-3,3.51,5.17-.78,13.58-1,14-5.31,10.13-17.56,10.91-48,19"/></g><g id="Layer_4" data-name="Layer 4"><path class="cls-16" d="M293.22,899.65c3-4.88,6.48-10.72,16.78-25.53,13-18.7,19.56-28.12,22-32,17.79-28.25,20.74-40.6,21-51,.12-4.78.59-17.84-6-21-5.35-2.56-12.75,2.66-16,5-14.68,10.61-19.49,26.1-25,40-12.23,30.84-27.26,52.18-37,66"/><path class="cls-14" d="M130.75,1094.9c-11.15,12.68-18.84,19.28-26.75,20.22-17.75,2.13-39.48-16.78-39-32,.45-14.35,21.35-17.55,22-34,.36-9.1-5.93-10-13-30-4.39-12.41-7.29-21-4-30,4-11,16.12-19.67,22-17,3.62,1.65,4.31,7.35,5,13,1.66,13.72-3.68,18.33-2,30,.9,6.26,4.1,16.45,9,17,3.12.36,5-3.41,9.51-10.19"/><path class="cls-16" d="M171,950.12c-.7-13.34-13.58-24.25-18-28-5.12-4.33-7.91-5.19-11-10-4.66-7.23-6.38-17.76-3-20,6.21-4.09,26.69,21.76,32,18,2.62-1.84-1.35-8.83-4-23a128.55,128.55,0,0,1,1-46c1.36-6.39,4.95-23.32,12-24,5.17-.49,9.87,8,11,10,5.37,9.67,3.63,17.59,1,50-1.1,13.59-1.43,19.84-1,28,.23,4.49,1.16,10.33,3,22,1.95,12.34,2.78,15,5,16"/><path class="cls-16" d="M353.06,931.19A94.47,94.47,0,0,0,368,921.12c14.85-12.17,18.61-22.45,25-21s10.38,13.35,9,23c-1,7-5,13.8-18,24-1.78,1.4-3.57,2.73-5.35,4"/><path class="cls-16" d="M301.12,1042.57c8.06-4.48,15.66-10.64,19.88-20.45.61-1.4,7.72-15.43,3-20-1.87-1.8-5.92-1.79-34,12-19.48,9.58-20.43,11-29,14Z"/><path class="cls-17" d="M199,943.12c5.53,2.63,14.78-6.74,16-8h0c13.7-10.58,20.55-15.87,25-20,5.2-4.82,15.71-15.14,29-34l24.22,18.53c-2.19,3.6-4.09,6.69-8.22,12.47-16.93,23.74-23,27.49-21,32,4.41,10.12,40.77,5.25,65-3,8-2.73,16-5.54,24.06-9.93l25.59,19.93a151.62,151.62,0,0,1-52.65,24c-14.56,3.17-69.8,2.73-83,4a72,72,0,0,0-28,9c-1.29.75-29.49,17.3-26,31s36.26,14.93,38,15c14.67.65,26.53-3.39,34-6l40.12,14.45a139.08,139.08,0,0,1-14.12,6.55c-16.85,7.05-30.59,7.78-54,9-16.68.88-49.1-8.47-56-8-10.92.76-17.43,10.15-28,23-7.09,8.62-13.05,15.87-18.25,21.78l-17.24-73a131.86,131.86,0,0,1,9.49-12.81,176.37,176.37,0,0,1,18-18c12.64-11.39,14.82-11.23,20-18,4.88-6.37,10.49-13.69,10-23"/><g class="cls-18"><path id="_Path_" data-name="&lt;Path&gt;" class="cls-16" d="M149,1073.12a148.43,148.43,0,0,1,3-39c4-18.64,12.73-41.83,18-41,3.41.54,4.48,11,6,26a224.11,224.11,0,0,1,1,31"/></g></g><path id="_Path_2" data-name="&lt;Path&gt;" class="cls-14" d="M301.12,1329.12H51v-273s38.28,9.3,80,39c50.44,35.92,94,81,94,81"/><path id="_Path_3" data-name="&lt;Path&gt;" class="cls-19" d="M301.12,1329.12H597s-35.86-24.21-108-55c-22.36-9.54-72-30.09-151-57-88.11-30-113-41-113-41Z"/></g><g id="Layer_6" data-name="Layer 6"><path id="_Path_4" data-name="&lt;Path&gt;" class="cls-20" d="M50.8,1152.3a428.33,428.33,0,0,1,88.43-51.81q3.54-1.53,7.1-3c-3.7,8.12-6.09,18.33-1.76,28.63,5.45,13,16.47,14,25.12,28,13,21.06,6.61,43,6.61,43s8.74-10.16,11.9-21c6.78-23.27.83-48.74-13.22-61-1.5-1.3-8.08-6.81-11.9-10-4.57-3.8-8.55-7.09-11.69-9.66a426.17,426.17,0,0,1,55.48-17.57c11.61-2.85,23.35-5.23,35.21-7.49l.81-.16c-3.29,11.42,16.92,47.87,47.11,67.88,46.88,31.09,104.92,14,120,9,0,0-31.56,1.35-65-19-22.81-13.87-24.13-25.4-51-42-2-1.22-23.12-14.35-37.63-18.47L260,1067l4.51-.94c1.5-.32,3-.63,4.5-1l9-2.19c3-.78,5.92-1.71,8.88-2.55l4.44-1.3,4.37-1.49,8.73-3,8.57-3.4,4.28-1.7,4.2-1.89,8.39-3.81c1.41-.6,2.76-1.34,4.12-2l4.09-2.1,4.72-2.42c.89,12.27,38.55,45.62,79.24,44,20.25-.79,38-10.13,55-19.06a210.56,210.56,0,0,0,36-23.94c-41.73,17-62.61,15.82-74,11-3-1.25-16.06-6.32-34.49-12.54a99.57,99.57,0,0,0-13.51-3.46c-9.86-1.85-25.5-3.61-36.28-2.67a411.76,411.76,0,0,0,51.91-36.36l.35-.3c14.35-3.09,67.52-33.83,97.52-88.17,20.12-36.44,21-76,21-76s-13,31.62-46,73c-12.16,15.28-16.26,17.54-43,49-14.57,17.16-24.5,28.84-29.45,35.48-1.23,1-2.44,1.93-3.68,2.87a395.17,395.17,0,0,1-60.83,38.35c-2.67,1.35-5.4,2.56-8.1,3.84l-4.06,1.91c-1.35.62-2.69,1.29-4.09,1.83l-8.28,3.4-4.14,1.69-4.21,1.49-8.42,3-8.54,2.6-4.26,1.29-4.32,1.09c-2.89.71-5.75,1.5-8.65,2.15l-8.72,1.8c-1.45.31-2.91.57-4.38.82L258,1056l-17.89,2.78c-12,1.83-24.07,3.83-36.08,6.32a430.91,430.91,0,0,0-70.75,20.85A443.62,443.62,0,0,0,51,1128.57"/><g class="cls-21"><polyline class="cls-22" points="226.68 1219.93 0 1194.12 23.06 991.53 250.96 1017.47"/><polyline class="cls-22" points="263.96 1014.47 292.19 1017.69 269.13 1220.28 239.68 1216.93"/></g><path class="cls-23" d="M200.21,534.22l5.94-12.7c7.36-15.27,14.8-30.51,22.55-45.59a260.09,260.09,0,0,1,36.8-12.31c29.79-7.53,52.16-7.51,60-8,25.65-1.6,63-19.13,113-91,0,0-26.87,15-86,35-36.74,12.44-43.25,9.22-67,21-20.75,10.3-37.12,25.85-48,38.26,15.22-29,31.35-57.56,48.15-85.72q3.94-6.54,7.94-13.07a304.52,304.52,0,0,0,96.88-75.47c56-66,68-147,68-147s-11.91,23.64-42,60c-37.74,45.62-59.52,49.26-88,87-11.08,14.69-25.55,37.69-36.24,71.29q-5,7.54-10,15.13c-20.37,31.53-39.89,63.64-58.24,96.44-9.26,16.35-18.1,32.95-26.85,49.59l-6.43,12.55c-2.15,4.18-4.3,8.36-6.36,12.58l-6.27,12.64c-2.12,4.2-4,8.49-6.08,12.73L160,593.09c-2.06,4.23-3.89,8.57-5.81,12.86l-5.72,12.9c-7.82,17.14-14.78,34.62-22.06,52l-1.35,3.26-1.28,3.3L121.23,684l-5.11,13.17L111,710.34c-1.67,4.4-3.22,8.84-4.84,13.27L96.55,750.2l-9,26.79c-3.1,8.91-5.81,17.93-8.66,26.92s-5.72,18-8.28,27.06l-7.88,27.18-7.36,27.33Q52.57,896,49.94,906.61l1.64,134.62q7.55-55,18.5-109.55a62.49,62.49,0,0,1,21.42,2.94c20.27,6.62,20.63,22.91,42,33,15.52,7.34,30.39,5.86,39,5,35.13-3.49,62-35,62-35s-24.39,8.38-57,2c-38.1-7.44-44.25-33.65-74-33-11.89.26-22.52,5.67-30.66,11.58q2.82-13.55,5.81-27L85,863.94l6.82-27.09c1-4.33,2.19-8.62,3.36-12.91a214.35,214.35,0,0,1,52.37,4.68c30.51,6.61,37.13,15.14,61,16,33.42,1.22,59.12-14.11,68-20a121.54,121.54,0,0,0,45-55s-33.37,15.9-93,24c-31.37,4.27-35.95-.43-69,5-24.21,4-48.48,13.48-62.87,19.83.79-2.87,1.59-5.74,2.37-8.6,2.49-9,4.85-18,7.6-26.91l8-26.8,8.56-26.63c1.45-4.43,2.83-8.89,4.33-13.31l4.6-13.21.18-.54a274.61,274.61,0,0,1,45.23-8.83c49-5.5,63,13.7,102,10,49.87-4.73,87-52,87-52s-31.07,3.83-104,6c-39.77,1.19-47.67-1.68-69,4-25.16,6.71-45.66,21.19-58.06,31.71l1.24-3.56,2.3-6.61,1.15-3.31,1.22-3.27c6.59-17.46,12.88-35.05,20-52.3l5.22-13c1.76-4.33,3.42-8.7,5.31-13L183,572.57c.08-.2.17-.4.26-.61,7.92-1.58,21.7-4.06,40.27-6.34,43.55-5.33,53.46,9,95,3,12.86-1.85,29.62-4.43,48-15,26-14.93,39.69-36.9,46-49-38,19.53-66.06,21.27-85,19-13.39-1.6-37.61-5-71.89-2.59a81.26,81.26,0,0,0-15.11,2.59c-21.32,5.61-38.49,19.63-49.82,31.4l3.65-8.07C196.24,542.68,198.22,538.45,200.21,534.22Z"/><g class="cls-24"><rect class="cls-25" x="50" y="469.12" width="136.13" height="582"/><rect class="cls-25" x="194.13" y="459.12" width="15.87" height="582"/></g></g></g></svg>