<?xml version="1.0" encoding="utf-8"?>
<!-- Generator: Adobe Illustrator 23.0.1, SVG Export Plug-In . SVG Version: 6.00 Build 0)  -->
<svg version="1.1" id="Layer_1" xmlns="http://www.w3.org/2000/svg" xmlns:xlink="http://www.w3.org/1999/xlink" x="0px" y="0px"
	 viewBox="0 0 288 288" style="enable-background:new 0 0 288 288;" xml:space="preserve">
<style type="text/css">
	.st0{fill:#87BF4A;}
	.st1{fill:#7FC347;}
	.st2{fill-rule:evenodd;clip-rule:evenodd;fill:#18174B;}
	.st3{fill:#18174B;}
	.st4{fill:#FFFFFF;}
	.st5{fill:#7FC347;stroke:#18174B;stroke-width:2.2502;stroke-miterlimit:10;}
	.st6{fill:#C28054;}
</style>
<g>
	<path class="st0" d="M104.97,177.04l0.42,0c1.58,0.01,3.2,0.28,4.86,0.83c1.66,0.55,3.08,1.36,4.25,2.42l-3.88,4.32
		c-0.71-0.78-1.56-1.4-2.55-1.85c-0.99-0.46-2.03-0.68-3.12-0.69l-0.04,9.32l0.19,0.05c1.3,0.35,2.58,0.74,3.84,1.18
		c1.25,0.44,2.37,1.01,3.35,1.71c0.98,0.7,1.76,1.58,2.37,2.64c0.6,1.06,0.9,2.38,0.89,3.96c-0.01,1.55-0.29,2.93-0.85,4.12
		c-0.56,1.19-1.33,2.22-2.29,3.06c-0.97,0.85-2.1,1.52-3.38,2.01c-1.29,0.49-2.68,0.81-4.17,0.96l-0.01,3.35l-2.51-0.01l0.01-3.31
		c-2.05,0.02-4.01-0.3-5.89-0.95c-1.88-0.66-3.53-1.74-4.95-3.23l4.26-4.31c0.74,1.06,1.7,1.87,2.88,2.43
		c1.18,0.56,2.42,0.91,3.72,1.04l0.04-9.83l-0.23-0.05c-1.3-0.38-2.54-0.79-3.72-1.25c-1.18-0.46-2.22-1.05-3.14-1.78
		c-0.91-0.73-1.63-1.62-2.16-2.66c-0.52-1.04-0.78-2.34-0.78-3.89c0.01-1.4,0.29-2.65,0.85-3.77c0.56-1.12,1.31-2.08,2.25-2.9
		c0.93-0.82,2.01-1.48,3.22-1.97c1.21-0.49,2.47-0.8,3.78-0.92l0.01-3.12l2.51,0.01L104.97,177.04z M102.44,182.15
		c-1.09,0.18-2.06,0.64-2.92,1.36c-0.86,0.73-1.29,1.68-1.29,2.86c0,0.71,0.11,1.29,0.34,1.72c0.23,0.44,0.53,0.81,0.9,1.12
		c0.37,0.31,0.81,0.57,1.32,0.77c0.51,0.21,1.05,0.43,1.61,0.68L102.44,182.15z M104.86,206.1c0.65-0.12,1.27-0.31,1.84-0.58
		c0.58-0.26,1.08-0.58,1.52-0.97c0.44-0.38,0.79-0.85,1.05-1.39c0.27-0.54,0.4-1.16,0.4-1.84c0-0.69-0.14-1.26-0.44-1.73
		c-0.29-0.46-0.67-0.86-1.14-1.17c-0.46-0.31-0.98-0.58-1.53-0.8c-0.56-0.22-1.12-0.42-1.67-0.61L104.86,206.1z"/>
</g>
<g>
	<g>
		<path class="st1" d="M164.33,14.36l0.18,0c0.68,0,1.37,0.12,2.09,0.36c0.71,0.24,1.32,0.58,1.82,1.04l-1.67,1.85
			c-0.31-0.33-0.67-0.6-1.1-0.79c-0.43-0.2-0.87-0.29-1.34-0.3l-0.02,3.99l0.08,0.02c0.56,0.15,1.11,0.32,1.65,0.51
			c0.54,0.19,1.02,0.43,1.44,0.73c0.42,0.3,0.76,0.68,1.01,1.13c0.26,0.45,0.39,1.02,0.38,1.7c0,0.67-0.12,1.26-0.37,1.77
			c-0.24,0.51-0.57,0.95-0.98,1.31c-0.41,0.37-0.9,0.65-1.45,0.86c-0.55,0.21-1.15,0.35-1.79,0.41l-0.01,1.44l-1.08,0l0.01-1.42
			c-0.88,0.01-1.72-0.13-2.52-0.41c-0.8-0.28-1.51-0.74-2.12-1.39l1.82-1.85c0.32,0.45,0.73,0.8,1.23,1.04
			c0.5,0.24,1.04,0.39,1.6,0.44l0.02-4.21l-0.1-0.02c-0.56-0.16-1.09-0.34-1.6-0.54c-0.51-0.2-0.95-0.45-1.34-0.76
			c-0.39-0.31-0.7-0.7-0.92-1.14c-0.23-0.45-0.34-1-0.33-1.67c0-0.6,0.12-1.14,0.37-1.62c0.24-0.48,0.56-0.89,0.96-1.24
			c0.4-0.35,0.86-0.63,1.38-0.84c0.52-0.21,1.06-0.34,1.62-0.39l0.01-1.34l1.08,0L164.33,14.36z M163.24,16.56
			c-0.47,0.08-0.88,0.27-1.25,0.58c-0.37,0.31-0.55,0.72-0.55,1.23c0,0.31,0.05,0.55,0.15,0.74c0.1,0.19,0.23,0.35,0.39,0.48
			c0.16,0.13,0.35,0.25,0.57,0.33c0.22,0.09,0.45,0.19,0.69,0.29L163.24,16.56z M164.28,26.83c0.28-0.05,0.54-0.13,0.79-0.25
			c0.25-0.11,0.46-0.25,0.65-0.42c0.19-0.17,0.34-0.36,0.45-0.6c0.11-0.23,0.17-0.5,0.17-0.79c0-0.29-0.06-0.54-0.19-0.74
			c-0.13-0.2-0.29-0.37-0.49-0.5c-0.2-0.13-0.42-0.25-0.66-0.34c-0.24-0.09-0.48-0.18-0.72-0.26L164.28,26.83z"/>
	</g>
	<g>
		<path class="st1" d="M197.08,52.9l0.25,0c0.93,0,1.88,0.17,2.85,0.49c0.97,0.32,1.8,0.79,2.49,1.41l-2.27,2.53
			c-0.42-0.46-0.91-0.82-1.49-1.08c-0.58-0.27-1.19-0.4-1.83-0.4l-0.02,5.45l0.11,0.03c0.76,0.2,1.51,0.43,2.25,0.69
			c0.73,0.26,1.39,0.59,1.96,1c0.57,0.41,1.03,0.93,1.38,1.54c0.35,0.62,0.53,1.39,0.52,2.32c0,0.91-0.17,1.71-0.5,2.41
			c-0.33,0.7-0.78,1.3-1.34,1.79c-0.57,0.5-1.23,0.89-1.98,1.18c-0.76,0.29-1.57,0.47-2.44,0.56L197,74.79l-1.47-0.01l0.01-1.93
			c-1.2,0.01-2.35-0.17-3.45-0.56c-1.1-0.39-2.06-1.02-2.9-1.89l2.49-2.52c0.43,0.62,0.99,1.09,1.68,1.42
			c0.69,0.33,1.42,0.53,2.18,0.61l0.02-5.75l-0.14-0.03c-0.76-0.22-1.49-0.46-2.18-0.73c-0.69-0.27-1.3-0.61-1.84-1.04
			c-0.53-0.43-0.96-0.95-1.26-1.56c-0.31-0.61-0.46-1.37-0.45-2.28c0-0.82,0.17-1.55,0.5-2.21c0.33-0.65,0.77-1.22,1.31-1.7
			c0.55-0.48,1.18-0.86,1.89-1.15c0.71-0.29,1.45-0.47,2.21-0.54l0.01-1.83l1.47,0.01L197.08,52.9z M195.6,55.9
			c-0.64,0.11-1.21,0.37-1.71,0.8c-0.5,0.43-0.75,0.98-0.76,1.67c0,0.42,0.07,0.75,0.2,1.01c0.14,0.26,0.31,0.47,0.53,0.66
			c0.22,0.18,0.48,0.33,0.78,0.45c0.3,0.12,0.61,0.25,0.94,0.4L195.6,55.9z M197.02,69.91c0.38-0.07,0.74-0.18,1.08-0.34
			c0.34-0.15,0.63-0.34,0.89-0.57c0.25-0.23,0.46-0.5,0.62-0.81c0.16-0.32,0.23-0.68,0.24-1.08c0-0.4-0.08-0.74-0.25-1.01
			c-0.17-0.27-0.39-0.5-0.67-0.68c-0.27-0.18-0.57-0.34-0.9-0.47c-0.33-0.13-0.65-0.25-0.98-0.36L197.02,69.91z"/>
	</g>
	<g>
		<path class="st1" d="M192.72,26.2l0.19,0c0.71,0,1.44,0.13,2.19,0.37c0.75,0.25,1.38,0.61,1.91,1.09l-1.75,1.94
			c-0.32-0.35-0.7-0.63-1.15-0.83c-0.45-0.21-0.91-0.31-1.4-0.31l-0.02,4.19l0.08,0.02c0.59,0.16,1.16,0.33,1.73,0.53
			c0.56,0.2,1.07,0.45,1.51,0.77c0.44,0.32,0.79,0.71,1.06,1.19c0.27,0.48,0.4,1.07,0.4,1.78c0,0.7-0.13,1.32-0.38,1.85
			c-0.25,0.54-0.6,1-1.03,1.38c-0.44,0.38-0.94,0.69-1.52,0.91c-0.58,0.22-1.21,0.37-1.88,0.43l-0.01,1.51l-1.13,0l0.01-1.49
			c-0.92,0.01-1.81-0.13-2.65-0.43c-0.84-0.3-1.59-0.78-2.23-1.46l1.92-1.94c0.33,0.48,0.77,0.84,1.3,1.1
			c0.53,0.25,1.09,0.41,1.68,0.47l0.02-4.42l-0.1-0.02c-0.59-0.17-1.15-0.36-1.68-0.56c-0.53-0.21-1-0.47-1.41-0.8
			c-0.41-0.33-0.73-0.73-0.97-1.2c-0.24-0.47-0.35-1.05-0.35-1.75c0-0.63,0.13-1.19,0.38-1.7c0.25-0.5,0.59-0.94,1.01-1.31
			c0.42-0.37,0.9-0.66,1.45-0.89c0.55-0.22,1.11-0.36,1.7-0.41l0.01-1.41l1.13,0L192.72,26.2z M191.58,28.5
			c-0.49,0.08-0.93,0.29-1.31,0.61c-0.39,0.33-0.58,0.76-0.58,1.29c0,0.32,0.05,0.58,0.15,0.78c0.1,0.2,0.24,0.36,0.41,0.5
			c0.17,0.14,0.37,0.26,0.6,0.35c0.23,0.09,0.47,0.2,0.72,0.31L191.58,28.5z M192.67,39.28c0.29-0.05,0.57-0.14,0.83-0.26
			c0.26-0.12,0.49-0.26,0.68-0.44c0.2-0.17,0.35-0.38,0.47-0.63c0.12-0.24,0.18-0.52,0.18-0.83c0-0.31-0.06-0.57-0.2-0.78
			c-0.13-0.21-0.3-0.39-0.51-0.53c-0.21-0.14-0.44-0.26-0.69-0.36c-0.25-0.1-0.5-0.19-0.75-0.28L192.67,39.28z"/>
	</g>
	<g>
		<path class="st1" d="M79.22,25.71l0.18,0c0.67,0.02,1.35,0.15,2.04,0.4c0.69,0.25,1.28,0.6,1.77,1.06l-1.68,1.78
			c-0.29-0.34-0.64-0.6-1.06-0.8c-0.41-0.2-0.85-0.31-1.31-0.32l-0.11,3.92l0.08,0.02c0.55,0.16,1.08,0.34,1.61,0.54
			c0.52,0.2,0.99,0.45,1.39,0.76c0.4,0.31,0.73,0.68,0.97,1.14c0.24,0.45,0.35,1.01,0.34,1.68c-0.02,0.65-0.15,1.23-0.4,1.73
			c-0.25,0.5-0.58,0.92-1,1.27c-0.42,0.35-0.9,0.62-1.45,0.81c-0.55,0.19-1.14,0.31-1.77,0.36l-0.04,1.41l-1.06-0.03l0.04-1.39
			c-0.86-0.01-1.69-0.17-2.47-0.46c-0.78-0.3-1.47-0.77-2.05-1.41l1.84-1.77c0.3,0.45,0.7,0.8,1.19,1.05
			c0.49,0.25,1.01,0.41,1.56,0.47l0.12-4.14l-0.1-0.02c-0.55-0.17-1.06-0.36-1.56-0.56c-0.49-0.2-0.93-0.46-1.3-0.78
			c-0.38-0.32-0.67-0.7-0.88-1.14c-0.21-0.44-0.31-0.99-0.29-1.65c0.02-0.59,0.15-1.12,0.4-1.58c0.25-0.46,0.57-0.86,0.98-1.2
			c0.4-0.34,0.86-0.6,1.38-0.8c0.52-0.2,1.05-0.31,1.6-0.35l0.04-1.31l1.06,0.03L79.22,25.71z M78.1,27.84
			c-0.46,0.07-0.87,0.25-1.24,0.54c-0.37,0.3-0.56,0.7-0.57,1.19c-0.01,0.3,0.03,0.54,0.13,0.73c0.09,0.19,0.22,0.35,0.37,0.48
			c0.15,0.13,0.34,0.25,0.55,0.34c0.21,0.09,0.44,0.19,0.67,0.3L78.1,27.84z M78.88,37.95c0.28-0.04,0.54-0.12,0.78-0.22
			c0.24-0.1,0.46-0.24,0.65-0.39c0.19-0.16,0.34-0.35,0.46-0.58c0.12-0.23,0.18-0.48,0.19-0.77c0.01-0.29-0.05-0.53-0.17-0.73
			c-0.12-0.2-0.27-0.37-0.47-0.5c-0.19-0.14-0.41-0.25-0.64-0.35c-0.23-0.1-0.47-0.19-0.7-0.27L78.88,37.95z"/>
	</g>
	<g>
		<path class="st1" d="M234.16,66.52l0.24,0c0.89,0,1.81,0.16,2.74,0.47c0.94,0.31,1.73,0.76,2.4,1.36l-2.19,2.43
			c-0.4-0.44-0.88-0.79-1.44-1.04c-0.56-0.26-1.14-0.39-1.76-0.39l-0.02,5.25l0.1,0.03c0.73,0.2,1.46,0.42,2.16,0.67
			c0.71,0.25,1.34,0.57,1.89,0.97s0.99,0.89,1.33,1.49c0.34,0.6,0.51,1.34,0.5,2.23c0,0.87-0.16,1.65-0.48,2.32
			c-0.32,0.67-0.75,1.25-1.29,1.73c-0.54,0.48-1.18,0.86-1.91,1.13c-0.73,0.28-1.51,0.46-2.35,0.54l-0.01,1.89l-1.42-0.01l0.01-1.86
			c-1.16,0.01-2.26-0.17-3.32-0.54c-1.06-0.37-1.99-0.98-2.79-1.82l2.4-2.43c0.42,0.6,0.96,1.05,1.62,1.37
			c0.66,0.32,1.36,0.51,2.1,0.58l0.02-5.54l-0.13-0.03c-0.73-0.21-1.43-0.45-2.1-0.7c-0.66-0.26-1.25-0.59-1.77-1
			c-0.52-0.41-0.92-0.91-1.21-1.5c-0.3-0.59-0.44-1.32-0.44-2.19c0-0.79,0.16-1.5,0.48-2.12c0.32-0.63,0.74-1.17,1.27-1.64
			c0.53-0.46,1.13-0.83,1.82-1.11c0.68-0.28,1.39-0.45,2.13-0.52l0.01-1.76l1.42,0.01L234.16,66.52z M232.74,69.4
			c-0.61,0.1-1.16,0.36-1.64,0.77c-0.48,0.41-0.73,0.95-0.73,1.61c0,0.4,0.06,0.73,0.19,0.97c0.13,0.25,0.3,0.46,0.51,0.63
			c0.21,0.18,0.46,0.32,0.75,0.44c0.29,0.12,0.59,0.24,0.9,0.38L232.74,69.4z M234.1,82.89c0.37-0.07,0.71-0.18,1.04-0.32
			c0.32-0.15,0.61-0.33,0.86-0.55c0.25-0.22,0.44-0.48,0.59-0.78c0.15-0.31,0.23-0.65,0.23-1.04c0-0.39-0.08-0.71-0.25-0.97
			c-0.17-0.26-0.38-0.48-0.64-0.66c-0.26-0.18-0.55-0.33-0.86-0.45c-0.31-0.12-0.63-0.24-0.94-0.34L234.1,82.89z"/>
	</g>
	<g>
		<path class="st1" d="M233.26,106l0.33,0c1.25,0,2.52,0.22,3.82,0.65c1.31,0.43,2.42,1.07,3.35,1.9l-3.05,3.4
			c-0.56-0.61-1.23-1.1-2.01-1.45c-0.78-0.36-1.6-0.54-2.45-0.54l-0.03,7.33l0.15,0.04c1.03,0.27,2.03,0.58,3.02,0.93
			c0.99,0.35,1.86,0.79,2.63,1.35c0.77,0.55,1.39,1.24,1.86,2.08c0.47,0.83,0.71,1.87,0.7,3.12c0,1.22-0.23,2.3-0.67,3.24
			c-0.44,0.94-1.04,1.74-1.8,2.41c-0.76,0.67-1.65,1.2-2.66,1.58c-1.02,0.39-2.11,0.64-3.28,0.76l-0.01,2.64l-1.98-0.01l0.01-2.6
			c-1.61,0.02-3.16-0.23-4.63-0.75c-1.48-0.52-2.77-1.37-3.89-2.54l3.35-3.39c0.58,0.83,1.34,1.47,2.26,1.91
			c0.93,0.44,1.9,0.72,2.93,0.82l0.03-7.73l-0.18-0.04c-1.03-0.3-2-0.62-2.93-0.98c-0.93-0.36-1.75-0.82-2.47-1.4
			c-0.72-0.58-1.28-1.27-1.7-2.09c-0.41-0.82-0.62-1.84-0.61-3.06c0-1.1,0.23-2.09,0.67-2.96c0.44-0.88,1.03-1.64,1.77-2.28
			c0.73-0.64,1.58-1.16,2.53-1.55c0.95-0.39,1.94-0.63,2.97-0.72l0.01-2.45l1.98,0.01L233.26,106z M231.27,110.02
			c-0.86,0.14-1.62,0.5-2.29,1.07c-0.67,0.57-1.01,1.32-1.02,2.25c0,0.56,0.09,1.01,0.27,1.36c0.18,0.34,0.42,0.64,0.71,0.88
			c0.29,0.24,0.64,0.45,1.04,0.61c0.4,0.16,0.82,0.34,1.26,0.54L231.27,110.02z M233.18,128.86c0.51-0.09,1-0.25,1.45-0.45
			c0.45-0.2,0.85-0.46,1.19-0.76c0.34-0.3,0.62-0.67,0.83-1.09c0.21-0.43,0.31-0.91,0.32-1.45c0-0.54-0.11-0.99-0.34-1.36
			c-0.23-0.37-0.53-0.67-0.89-0.92c-0.36-0.25-0.77-0.45-1.21-0.63c-0.44-0.17-0.88-0.33-1.32-0.48L233.18,128.86z"/>
	</g>
	<g>
		<path class="st1" d="M129.59,30.65l0.25,0c0.95,0,1.93,0.17,2.93,0.5c1,0.33,1.85,0.82,2.56,1.46l-2.34,2.6
			c-0.43-0.47-0.94-0.84-1.54-1.11c-0.6-0.27-1.22-0.41-1.88-0.41l-0.02,5.61l0.11,0.03c0.79,0.21,1.56,0.45,2.31,0.71
			c0.76,0.27,1.43,0.61,2.02,1.03c0.59,0.42,1.06,0.95,1.43,1.59c0.36,0.64,0.54,1.43,0.54,2.39c0,0.94-0.18,1.76-0.51,2.48
			c-0.34,0.72-0.8,1.33-1.38,1.85c-0.58,0.51-1.26,0.92-2.04,1.21c-0.78,0.3-1.62,0.49-2.51,0.58l-0.01,2.02l-1.52-0.01l0.01-1.99
			c-1.24,0.01-2.42-0.18-3.55-0.58c-1.13-0.4-2.13-1.05-2.98-1.95l2.56-2.6c0.45,0.64,1.02,1.13,1.73,1.47
			c0.71,0.34,1.46,0.55,2.24,0.63l0.02-5.92l-0.14-0.03c-0.79-0.23-1.53-0.48-2.24-0.75c-0.71-0.28-1.34-0.63-1.89-1.07
			c-0.55-0.44-0.98-0.98-1.3-1.61c-0.32-0.63-0.47-1.41-0.47-2.35c0-0.84,0.17-1.6,0.51-2.27c0.34-0.67,0.79-1.26,1.35-1.75
			c0.56-0.49,1.21-0.89,1.94-1.18c0.73-0.3,1.49-0.48,2.28-0.55l0.01-1.88l1.52,0.01L129.59,30.65z M128.06,33.73
			c-0.66,0.11-1.24,0.38-1.76,0.82c-0.52,0.44-0.78,1.01-0.78,1.72c0,0.43,0.07,0.78,0.21,1.04c0.14,0.26,0.32,0.49,0.54,0.68
			c0.22,0.19,0.49,0.34,0.8,0.47c0.31,0.12,0.63,0.26,0.97,0.41L128.06,33.73z M129.52,48.16c0.39-0.07,0.76-0.19,1.11-0.35
			c0.35-0.16,0.65-0.35,0.91-0.59c0.26-0.23,0.47-0.51,0.63-0.84c0.16-0.33,0.24-0.7,0.24-1.11c0-0.41-0.09-0.76-0.26-1.04
			c-0.18-0.28-0.4-0.52-0.69-0.7c-0.28-0.19-0.59-0.35-0.92-0.48c-0.34-0.13-0.67-0.25-1.01-0.37L129.52,48.16z"/>
	</g>
	<g>
		<path class="st1" d="M80.37,52.72l0.25,0c0.95,0,1.92,0.17,2.91,0.5s1.84,0.81,2.55,1.45l-2.33,2.59
			c-0.43-0.47-0.94-0.84-1.53-1.11c-0.6-0.27-1.22-0.41-1.87-0.41l-0.02,5.58l0.11,0.03c0.78,0.21,1.55,0.44,2.3,0.71
			c0.75,0.26,1.42,0.61,2.01,1.03c0.58,0.42,1.06,0.95,1.42,1.58c0.36,0.64,0.54,1.43,0.54,2.37c0,0.93-0.17,1.75-0.51,2.47
			c-0.34,0.72-0.8,1.33-1.37,1.84c-0.58,0.51-1.26,0.91-2.03,1.21c-0.77,0.3-1.61,0.49-2.5,0.58l-0.01,2.01l-1.51-0.01l0.01-1.98
			c-1.23,0.01-2.4-0.18-3.53-0.57c-1.12-0.39-2.11-1.04-2.97-1.94l2.55-2.58c0.44,0.63,1.02,1.12,1.72,1.46
			c0.71,0.34,1.45,0.55,2.23,0.62l0.02-5.89l-0.14-0.03c-0.78-0.23-1.52-0.48-2.23-0.75c-0.71-0.27-1.33-0.63-1.88-1.07
			c-0.55-0.44-0.98-0.97-1.29-1.6c-0.31-0.62-0.47-1.4-0.47-2.33c0-0.84,0.17-1.59,0.51-2.26c0.34-0.67,0.79-1.25,1.35-1.74
			c0.56-0.49,1.2-0.88,1.93-1.18c0.73-0.3,1.48-0.48,2.26-0.55l0.01-1.87l1.51,0.01L80.37,52.72z M78.86,55.79
			c-0.65,0.11-1.23,0.38-1.75,0.82c-0.51,0.44-0.77,1.01-0.77,1.71c0,0.43,0.07,0.77,0.2,1.03c0.14,0.26,0.32,0.48,0.54,0.67
			c0.22,0.19,0.49,0.34,0.79,0.46c0.31,0.12,0.63,0.26,0.96,0.41L78.86,55.79z M80.31,70.14c0.39-0.07,0.76-0.19,1.1-0.34
			c0.34-0.16,0.65-0.35,0.91-0.58c0.26-0.23,0.47-0.51,0.63-0.83c0.16-0.32,0.24-0.69,0.24-1.1c0-0.41-0.09-0.75-0.26-1.03
			c-0.18-0.28-0.4-0.51-0.68-0.7c-0.28-0.19-0.58-0.35-0.92-0.48c-0.33-0.13-0.67-0.25-1-0.37L80.31,70.14z"/>
	</g>
	<g>
		<g>
			<polygon class="st2" points="231.61,179.75 245.49,179.75 245.49,189.01 245.29,189.01 243.43,190.86 240.48,191.18 
				240.48,191.57 238.71,191.38 236.95,191.57 236.95,191.18 234,190.86 232.14,189.01 231.61,189.01 			"/>
			<g>
				<g>
					<path class="st3" d="M229.49,183c0,0.91,0.73,1.64,1.64,1.64h15.17c0.9,0,1.64-0.73,1.64-1.64l0,0c0-0.9-0.73-1.64-1.64-1.64
						h-15.17C230.22,181.36,229.49,182.09,229.49,183L229.49,183z"/>
					<path class="st3" d="M229.49,187.56c0,0.9,0.73,1.64,1.64,1.64h15.17c0.9,0,1.64-0.73,1.64-1.64l0,0c0-0.9-0.73-1.64-1.64-1.64
						h-15.17C230.22,185.93,229.49,186.66,229.49,187.56L229.49,187.56z"/>
					<path class="st3" d="M233.46,191.73c0,0.9,0.73,1.64,1.64,1.64h7.23c0.91,0,1.64-0.73,1.64-1.64l0,0c0-0.9-0.73-1.64-1.64-1.64
						h-7.23C234.19,190.09,233.46,190.83,233.46,191.73L233.46,191.73z"/>
				</g>
				<path class="st1" d="M238.71,134.16C238.71,134.16,238.71,134.16,238.71,134.16c10.46,0,18.97,8.35,18.97,18.61
					c0,5.27-2.23,11.05-5.95,15.46l-0.16,0.21c-0.49,0.62-4.75,6.15-4.75,10.01c0,0.71-0.49,1.31-1.16,1.47v0.05h-2.88h-0.46h-0.47
					h-2.64h-0.49h-0.77h-1.87h-0.47h-2.27h-0.62v-0.1l-1.25-0.02c-0.56-0.24-0.93-0.79-0.93-1.39c0-3.41-3.43-8.38-4.75-10.01
					c-0.06-0.08-0.12-0.16-0.13-0.2l-0.12-0.2c-3.63-4.41-5.79-10.1-5.79-15.26C219.75,142.51,228.26,134.16,238.71,134.16z"/>
			</g>
			<path class="st3" d="M245.4,159.54c-0.39-0.41-0.93-0.62-1.59-0.62c-0.87,0-1.56,0.28-2.06,0.83c-0.95,1.05-0.83,2.73-0.81,2.94
				v0.26h-2h-0.48h-2v-0.26c0.02-0.21,0.14-1.88-0.81-2.94c-0.5-0.55-1.19-0.83-2.06-0.83c-0.66,0-1.2,0.21-1.59,0.62
				c-0.67,0.7-0.68,1.74-0.68,1.9c-0.01,0.15-0.03,0.91,0.51,1.5c0.41,0.46,1.03,0.69,1.84,0.69h2.1v16.3h0.68v-16.3h2h0.48h2v16.3
				h0.68v-16.3h2.1c0.81,0,1.43-0.23,1.84-0.69c0.54-0.59,0.52-1.35,0.51-1.5C246.08,161.27,246.07,160.23,245.4,159.54z
				 M235.79,162.64l0,0.31h-2.1c-0.61,0-1.06-0.15-1.34-0.46c-0.38-0.42-0.34-1.01-0.34-1.01l0-0.02l0-0.02
				c0-0.01-0.02-0.9,0.49-1.43c0.26-0.27,0.62-0.41,1.1-0.41c0.67,0,1.19,0.2,1.55,0.61C235.94,161.08,235.79,162.62,235.79,162.64z
				 M245.06,162.49c-0.28,0.3-0.73,0.46-1.34,0.46h-2.1l0-0.31c0-0.02-0.15-1.56,0.64-2.43c0.36-0.4,0.89-0.61,1.55-0.61
				c0.47,0,0.83,0.13,1.1,0.41c0.51,0.53,0.49,1.42,0.49,1.43l0,0.02l0,0.02C245.4,161.48,245.44,162.07,245.06,162.49z"/>
		</g>
		<path class="st4" d="M249.81,162.65c0.34-2.71,0.63-5.19,0.58-7.58c-0.04-2.38-0.38-4.63-1.14-6.68c-0.76-2.04-1.9-3.85-3.47-5.45
			c-1.6-1.59-3.66-2.87-6.14-4.13c2.67-0.73,5.71-0.34,8.31,1.14c2.62,1.47,4.62,4.06,5.59,6.9c0.99,2.84,1.04,5.89,0.36,8.65
			c-0.69,2.76-2.04,5.27-3.97,7.21L249.81,162.65z"/>
	</g>
	<g>
		<g>
			<polygon class="st2" points="215.08,61.16 221.87,61.16 221.87,65.69 221.77,65.69 220.86,66.59 219.42,66.75 219.42,66.94 
				218.56,66.85 217.69,66.94 217.69,66.75 216.25,66.59 215.34,65.69 215.08,65.69 			"/>
			<g>
				<g>
					<path class="st3" d="M214.04,62.75c0,0.44,0.36,0.8,0.8,0.8h7.42c0.44,0,0.8-0.36,0.8-0.8l0,0c0-0.44-0.36-0.8-0.8-0.8h-7.42
						C214.4,61.95,214.04,62.3,214.04,62.75L214.04,62.75z"/>
					<path class="st3" d="M214.04,64.98c0,0.44,0.36,0.8,0.8,0.8h7.42c0.44,0,0.8-0.36,0.8-0.8l0,0c0-0.44-0.36-0.8-0.8-0.8h-7.42
						C214.4,64.18,214.04,64.54,214.04,64.98L214.04,64.98z"/>
					<path class="st3" d="M215.98,67.02c0,0.44,0.36,0.8,0.8,0.8h3.54c0.44,0,0.8-0.36,0.8-0.8l0,0c0-0.44-0.36-0.8-0.8-0.8h-3.54
						C216.34,66.22,215.98,66.58,215.98,67.02L215.98,67.02z"/>
				</g>
				<path class="st1" d="M218.56,38.85C218.56,38.85,218.56,38.85,218.56,38.85c5.12,0,9.28,4.08,9.28,9.11
					c0,2.58-1.09,5.41-2.91,7.56l-0.08,0.1c-0.24,0.3-2.32,3.01-2.32,4.9c0,0.35-0.24,0.64-0.57,0.72v0.02h-1.41h-0.23h-0.23h-1.29
					h-0.24h-0.38h-0.91h-0.23h-1.11h-0.3v-0.05l-0.61-0.01c-0.28-0.12-0.45-0.38-0.45-0.68c0-1.67-1.68-4.1-2.32-4.9
					c-0.03-0.04-0.06-0.08-0.06-0.1l-0.06-0.1c-1.78-2.16-2.83-4.94-2.83-7.47C209.28,42.94,213.44,38.85,218.56,38.85z"/>
			</g>
			<path class="st3" d="M221.83,51.27c-0.19-0.2-0.45-0.3-0.78-0.3c-0.42,0-0.76,0.14-1.01,0.41c-0.46,0.52-0.41,1.34-0.4,1.44v0.13
				h-0.98h-0.23h-0.98v-0.13c0.01-0.1,0.07-0.92-0.4-1.44c-0.24-0.27-0.58-0.41-1.01-0.41c-0.32,0-0.59,0.1-0.78,0.3
				c-0.33,0.34-0.33,0.85-0.33,0.93c0,0.07-0.01,0.45,0.25,0.73c0.2,0.22,0.51,0.34,0.9,0.34h1.03v7.98h0.33v-7.98h0.98h0.23h0.98
				v7.98h0.33v-7.98H221c0.4,0,0.7-0.11,0.9-0.34c0.26-0.29,0.25-0.66,0.25-0.73C222.16,52.12,222.15,51.61,221.83,51.27z
				 M217.13,52.79l0,0.15h-1.03c-0.3,0-0.52-0.08-0.65-0.22c-0.19-0.2-0.17-0.49-0.17-0.49l0-0.01l0-0.01c0,0-0.01-0.44,0.24-0.7
				c0.13-0.13,0.31-0.2,0.54-0.2c0.33,0,0.58,0.1,0.76,0.3C217.2,52.02,217.13,52.78,217.13,52.79z M221.66,52.71
				c-0.14,0.15-0.36,0.22-0.65,0.22h-1.03l0-0.15c0-0.01-0.07-0.76,0.31-1.19c0.18-0.2,0.43-0.3,0.76-0.3c0.23,0,0.41,0.07,0.54,0.2
				c0.25,0.26,0.24,0.7,0.24,0.7l0,0.01l0,0.01C221.83,52.22,221.85,52.51,221.66,52.71z"/>
		</g>
		<path class="st4" d="M223.99,52.79c0.17-1.33,0.31-2.54,0.29-3.71c-0.03-1.17-0.19-2.27-0.57-3.27c-0.37-1-0.93-1.88-1.7-2.67
			c-0.79-0.77-1.79-1.4-3-2.02c1.31-0.35,2.79-0.17,4.06,0.56c1.29,0.71,2.26,1.98,2.74,3.37c0.48,1.39,0.51,2.88,0.17,4.23
			c-0.33,1.35-0.99,2.58-1.93,3.53L223.99,52.79z"/>
	</g>
	<g>
		<g>
			<polygon class="st2" points="101.3,41.95 107.16,41.95 107.16,45.85 107.08,45.85 106.29,46.63 105.05,46.77 105.05,46.93 
				104.3,46.85 103.56,46.93 103.56,46.77 102.31,46.63 101.53,45.85 101.3,45.85 			"/>
			<g>
				<g>
					<path class="st3" d="M100.41,43.32c0,0.38,0.31,0.69,0.69,0.69h6.41c0.38,0,0.69-0.31,0.69-0.69l0,0
						c0-0.38-0.31-0.69-0.69-0.69h-6.41C100.72,42.62,100.41,42.93,100.41,43.32L100.41,43.32z"/>
					<path class="st3" d="M100.41,45.24c0,0.38,0.31,0.69,0.69,0.69h6.41c0.38,0,0.69-0.31,0.69-0.69l0,0
						c0-0.38-0.31-0.69-0.69-0.69h-6.41C100.72,44.55,100.41,44.86,100.41,45.24L100.41,45.24z"/>
					<path class="st3" d="M102.08,47c0,0.38,0.31,0.69,0.69,0.69h3.05c0.38,0,0.69-0.31,0.69-0.69l0,0c0-0.38-0.31-0.69-0.69-0.69
						h-3.05C102.39,46.31,102.08,46.62,102.08,47L102.08,47z"/>
				</g>
				<path class="st1" d="M104.3,22.7C104.3,22.7,104.3,22.7,104.3,22.7c4.42,0,8.01,3.52,8.01,7.86c0,2.22-0.94,4.66-2.51,6.52
					l-0.07,0.09c-0.21,0.26-2.01,2.6-2.01,4.22c0,0.3-0.21,0.55-0.49,0.62v0.02h-1.22h-0.19h-0.2h-1.11h-0.21h-0.32h-0.79h-0.2
					h-0.96h-0.26v-0.04l-0.53-0.01c-0.24-0.1-0.39-0.33-0.39-0.59c0-1.44-1.45-3.54-2.01-4.22c-0.03-0.03-0.05-0.07-0.06-0.08
					L98.74,37c-1.53-1.86-2.44-4.26-2.44-6.44C96.29,26.22,99.89,22.7,104.3,22.7z"/>
			</g>
			<path class="st3" d="M107.12,33.41c-0.17-0.17-0.39-0.26-0.67-0.26c-0.37,0-0.66,0.12-0.87,0.35c-0.4,0.44-0.35,1.15-0.34,1.24
				v0.11h-0.84h-0.2h-0.84v-0.11c0.01-0.09,0.06-0.8-0.34-1.24c-0.21-0.23-0.5-0.35-0.87-0.35c-0.28,0-0.5,0.09-0.67,0.26
				c-0.28,0.29-0.29,0.73-0.29,0.8c0,0.06-0.01,0.38,0.22,0.63c0.17,0.19,0.44,0.29,0.78,0.29h0.89v6.88h0.29v-6.88h0.84h0.2h0.84
				v6.88h0.29v-6.88h0.89c0.34,0,0.6-0.1,0.78-0.29c0.23-0.25,0.22-0.57,0.22-0.63C107.41,34.15,107.41,33.71,107.12,33.41z
				 M103.07,34.72l0,0.13h-0.89c-0.26,0-0.45-0.06-0.56-0.19c-0.16-0.18-0.14-0.42-0.14-0.43l0-0.01l0-0.01c0,0-0.01-0.38,0.21-0.6
				c0.11-0.12,0.26-0.17,0.46-0.17c0.28,0,0.5,0.09,0.66,0.26C103.13,34.06,103.07,34.71,103.07,34.72z M106.98,34.66
				c-0.12,0.13-0.31,0.19-0.56,0.19h-0.89l0-0.13c0-0.01-0.06-0.66,0.27-1.03c0.15-0.17,0.37-0.26,0.66-0.26
				c0.2,0,0.35,0.06,0.46,0.17c0.22,0.22,0.21,0.6,0.21,0.6l0,0.01l0,0.01C107.12,34.23,107.14,34.48,106.98,34.66z"/>
		</g>
		<path class="st4" d="M108.99,34.73c0.14-1.15,0.28-2.19,0.25-3.2c-0.02-1-0.16-1.96-0.48-2.82c-0.32-0.86-0.8-1.63-1.47-2.3
			c-0.67-0.67-1.54-1.21-2.59-1.74c1.13-0.31,2.41-0.14,3.51,0.48c1.1,0.62,1.95,1.71,2.36,2.91c0.42,1.2,0.44,2.49,0.15,3.65
			c-0.3,1.16-0.86,2.22-1.68,3.04L108.99,34.73z"/>
	</g>
	<g>
		<path class="st1" d="M58.53,149.8l0.5,0c1.9,0.01,3.84,0.34,5.82,1c1.99,0.66,3.68,1.62,5.09,2.89l-4.65,5.17
			c-0.85-0.93-1.87-1.67-3.06-2.21c-1.19-0.55-2.43-0.82-3.73-0.82l-0.04,11.15l0.22,0.06c1.56,0.41,3.09,0.89,4.6,1.41
			c1.5,0.53,2.84,1.21,4.01,2.05s2.11,1.89,2.83,3.16c0.72,1.27,1.08,2.85,1.07,4.74c-0.01,1.86-0.35,3.5-1.02,4.93
			c-0.67,1.43-1.59,2.65-2.75,3.67c-1.16,1.02-2.51,1.82-4.05,2.41c-1.55,0.59-3.21,0.97-5,1.15l-0.02,4.02l-3.01-0.01l0.02-3.96
			c-2.45,0.02-4.8-0.36-7.05-1.14c-2.25-0.79-4.22-2.08-5.92-3.87l5.09-5.16c0.89,1.27,2.04,2.24,3.44,2.91
			c1.41,0.67,2.9,1.09,4.46,1.24l0.05-11.76l-0.28-0.06c-1.56-0.45-3.05-0.95-4.46-1.49c-1.41-0.55-2.66-1.26-3.75-2.13
			c-1.09-0.88-1.95-1.94-2.58-3.19c-0.63-1.25-0.94-2.8-0.93-4.66c0.01-1.67,0.35-3.18,1.02-4.51c0.67-1.33,1.57-2.5,2.69-3.47
			c1.12-0.98,2.4-1.77,3.86-2.35c1.45-0.59,2.96-0.96,4.52-1.1l0.01-3.74l3.01,0.01L58.53,149.8z M55.49,155.92
			c-1.3,0.22-2.47,0.76-3.49,1.63c-1.03,0.87-1.54,2.01-1.55,3.42c0,0.85,0.13,1.54,0.41,2.06c0.28,0.52,0.64,0.97,1.08,1.34
			c0.45,0.37,0.97,0.68,1.59,0.92c0.61,0.25,1.25,0.52,1.92,0.82L55.49,155.92z M58.4,184.59c0.78-0.14,1.52-0.38,2.21-0.69
			c0.69-0.31,1.29-0.7,1.82-1.16c0.52-0.46,0.94-1.02,1.26-1.67c0.32-0.65,0.48-1.38,0.48-2.2c0-0.82-0.17-1.51-0.52-2.07
			c-0.35-0.56-0.8-1.02-1.36-1.4c-0.55-0.37-1.17-0.69-1.84-0.96c-0.67-0.26-1.34-0.51-2.01-0.73L58.4,184.59z"/>
	</g>
	<g>
		<path class="st1" d="M42.18,115.33l0.3,0c1.13,0,2.29,0.2,3.47,0.59c1.19,0.39,2.2,0.97,3.04,1.73l-2.77,3.08
			c-0.51-0.56-1.12-1-1.82-1.32c-0.71-0.33-1.45-0.49-2.23-0.49l-0.03,6.65l0.13,0.03c0.93,0.25,1.84,0.53,2.74,0.84
			c0.9,0.31,1.69,0.72,2.39,1.22c0.7,0.5,1.26,1.13,1.69,1.88c0.43,0.76,0.64,1.7,0.64,2.83c0,1.11-0.21,2.09-0.61,2.94
			c-0.4,0.85-0.95,1.58-1.64,2.19c-0.69,0.61-1.5,1.09-2.42,1.44c-0.92,0.35-1.91,0.58-2.98,0.69l-0.01,2.4l-1.8-0.01l0.01-2.36
			c-1.46,0.01-2.87-0.21-4.2-0.68c-1.34-0.47-2.52-1.24-3.53-2.31l3.04-3.08c0.53,0.76,1.21,1.33,2.06,1.74
			c0.84,0.4,1.73,0.65,2.66,0.74l0.03-7.02l-0.17-0.03c-0.93-0.27-1.82-0.57-2.66-0.89c-0.84-0.33-1.59-0.75-2.24-1.27
			c-0.65-0.52-1.17-1.16-1.54-1.9c-0.37-0.74-0.56-1.67-0.55-2.78c0-1,0.21-1.9,0.61-2.69c0.4-0.8,0.94-1.49,1.6-2.07
			c0.67-0.58,1.43-1.05,2.3-1.4c0.87-0.35,1.76-0.57,2.7-0.66l0.01-2.23l1.8,0.01L42.18,115.33z M40.37,118.98
			c-0.78,0.13-1.47,0.46-2.08,0.97c-0.61,0.52-0.92,1.2-0.92,2.04c0,0.51,0.08,0.92,0.24,1.23c0.17,0.31,0.38,0.58,0.65,0.8
			c0.27,0.22,0.58,0.41,0.95,0.55c0.37,0.15,0.75,0.31,1.15,0.49L40.37,118.98z M42.1,136.09c0.47-0.09,0.9-0.22,1.32-0.41
			c0.41-0.19,0.77-0.42,1.08-0.69c0.31-0.27,0.56-0.61,0.75-0.99c0.19-0.39,0.29-0.83,0.29-1.31c0-0.49-0.1-0.9-0.31-1.23
			c-0.21-0.33-0.48-0.61-0.81-0.83c-0.33-0.22-0.7-0.41-1.1-0.57c-0.4-0.16-0.8-0.3-1.2-0.44L42.1,136.09z"/>
	</g>
	<g>
		<path class="st1" d="M209.41,167.27l0.35,0c1.33,0.01,2.7,0.24,4.1,0.7c1.4,0.46,2.59,1.14,3.58,2.03l-3.27,3.64
			c-0.6-0.66-1.32-1.18-2.15-1.56c-0.84-0.38-1.71-0.58-2.63-0.58l-0.03,7.85l0.16,0.04c1.1,0.29,2.18,0.62,3.23,0.99
			c1.06,0.37,2,0.85,2.82,1.44c0.82,0.59,1.49,1.33,1.99,2.22c0.51,0.89,0.76,2.01,0.75,3.34c-0.01,1.31-0.25,2.47-0.72,3.47
			c-0.47,1.01-1.12,1.87-1.93,2.58c-0.81,0.72-1.77,1.28-2.85,1.7c-1.09,0.41-2.26,0.68-3.52,0.81l-0.01,2.83l-2.12-0.01l0.01-2.79
			c-1.73,0.02-3.38-0.25-4.96-0.8c-1.58-0.55-2.97-1.46-4.17-2.72l3.58-3.63c0.62,0.89,1.43,1.57,2.42,2.05
			c0.99,0.47,2.04,0.77,3.14,0.87l0.03-8.28l-0.2-0.04c-1.1-0.32-2.14-0.67-3.14-1.05c-0.99-0.38-1.87-0.88-2.64-1.5
			c-0.77-0.62-1.38-1.37-1.82-2.24c-0.44-0.88-0.66-1.97-0.65-3.28c0-1.18,0.24-2.24,0.72-3.18c0.47-0.94,1.1-1.76,1.89-2.45
			c0.79-0.69,1.69-1.24,2.71-1.66c1.02-0.42,2.08-0.67,3.18-0.77l0.01-2.63l2.12,0.01L209.41,167.27z M207.28,171.58
			c-0.92,0.15-1.74,0.54-2.46,1.15c-0.72,0.61-1.08,1.42-1.09,2.41c0,0.6,0.09,1.09,0.29,1.45c0.19,0.37,0.45,0.68,0.76,0.94
			c0.31,0.26,0.69,0.48,1.12,0.65c0.43,0.17,0.88,0.37,1.35,0.58L207.28,171.58z M209.32,191.75c0.55-0.1,1.07-0.26,1.55-0.49
			c0.48-0.22,0.91-0.49,1.28-0.82c0.37-0.32,0.66-0.72,0.89-1.17c0.22-0.46,0.34-0.97,0.34-1.55c0-0.58-0.12-1.06-0.37-1.46
			c-0.25-0.39-0.57-0.72-0.96-0.98c-0.39-0.26-0.82-0.49-1.29-0.67c-0.47-0.18-0.94-0.36-1.41-0.52L209.32,191.75z"/>
	</g>
	<g>
		<path class="st1" d="M59.22,55.71l0.18,0c0.67,0.02,1.35,0.15,2.04,0.4s1.28,0.6,1.77,1.06l-1.68,1.78
			c-0.29-0.34-0.64-0.6-1.06-0.8c-0.41-0.2-0.85-0.31-1.31-0.32l-0.11,3.92l0.08,0.02c0.55,0.16,1.08,0.34,1.61,0.54
			c0.52,0.2,0.99,0.45,1.39,0.76c0.4,0.31,0.73,0.68,0.97,1.14c0.24,0.45,0.35,1.01,0.34,1.68c-0.02,0.65-0.15,1.23-0.4,1.73
			c-0.25,0.5-0.58,0.92-1,1.27c-0.42,0.35-0.9,0.62-1.45,0.81c-0.55,0.19-1.14,0.31-1.77,0.36l-0.04,1.41l-1.06-0.03l0.04-1.39
			c-0.86-0.01-1.69-0.17-2.47-0.46c-0.78-0.3-1.47-0.77-2.05-1.41l1.84-1.77c0.3,0.45,0.7,0.8,1.19,1.05
			c0.49,0.25,1.01,0.41,1.56,0.47l0.12-4.14l-0.1-0.02c-0.55-0.17-1.06-0.36-1.56-0.56c-0.49-0.2-0.93-0.46-1.3-0.78
			c-0.38-0.32-0.67-0.7-0.88-1.14c-0.21-0.44-0.31-0.99-0.29-1.65c0.02-0.59,0.15-1.12,0.4-1.58c0.25-0.46,0.57-0.86,0.98-1.2
			c0.4-0.34,0.86-0.6,1.38-0.8c0.52-0.2,1.05-0.31,1.6-0.35l0.04-1.31l1.06,0.03L59.22,55.71z M58.1,57.84
			c-0.46,0.07-0.87,0.25-1.24,0.54c-0.37,0.3-0.56,0.7-0.57,1.19c-0.01,0.3,0.03,0.54,0.13,0.73c0.09,0.19,0.22,0.35,0.37,0.48
			c0.15,0.13,0.34,0.25,0.55,0.34c0.21,0.09,0.44,0.19,0.67,0.3L58.1,57.84z M58.88,67.95c0.28-0.04,0.54-0.12,0.78-0.22
			c0.24-0.1,0.46-0.24,0.65-0.39c0.19-0.16,0.34-0.35,0.46-0.58c0.12-0.23,0.18-0.48,0.19-0.77c0.01-0.29-0.05-0.53-0.17-0.73
			c-0.12-0.2-0.27-0.37-0.47-0.5c-0.19-0.14-0.41-0.25-0.64-0.35c-0.23-0.1-0.47-0.19-0.7-0.27L58.88,67.95z"/>
	</g>
	<g>
		<g>
			<polygon class="st2" points="48.95,92.76 56.86,92.76 56.86,98.03 56.75,98.03 55.69,99.09 54.01,99.27 54.01,99.49 53,99.38 
				52,99.49 52,99.27 50.31,99.09 49.25,98.03 48.95,98.03 			"/>
			<g>
				<g>
					<path class="st3" d="M47.74,94.6c0,0.52,0.42,0.93,0.93,0.93h8.65c0.52,0,0.93-0.42,0.93-0.93l0,0c0-0.52-0.42-0.93-0.93-0.93
						h-8.65C48.16,93.67,47.74,94.09,47.74,94.6L47.74,94.6z"/>
					<path class="st3" d="M47.74,97.21c0,0.52,0.42,0.93,0.93,0.93h8.65c0.52,0,0.93-0.42,0.93-0.93l0,0c0-0.52-0.42-0.93-0.93-0.93
						h-8.65C48.16,96.27,47.74,96.69,47.74,97.21L47.74,97.21z"/>
					<path class="st3" d="M50.01,99.58c0,0.52,0.42,0.93,0.93,0.93h4.12c0.52,0,0.93-0.42,0.93-0.93l0,0c0-0.52-0.42-0.93-0.93-0.93
						h-4.12C50.42,98.65,50.01,99.07,50.01,99.58L50.01,99.58z"/>
				</g>
				<path class="st1" d="M53,66.76C53,66.76,53,66.76,53,66.76c5.96,0,10.81,4.76,10.81,10.61c0,3-1.27,6.3-3.39,8.81l-0.09,0.12
					c-0.28,0.35-2.71,3.51-2.71,5.7c0,0.41-0.28,0.74-0.66,0.84v0.03h-1.64h-0.26h-0.27h-1.5H53h-0.44H51.5h-0.27h-1.29h-0.35v-0.06
					l-0.71-0.01c-0.32-0.13-0.53-0.45-0.53-0.79c0-1.95-1.95-4.78-2.71-5.7c-0.04-0.05-0.07-0.09-0.07-0.11l-0.07-0.11
					c-2.07-2.51-3.3-5.76-3.3-8.7C42.19,71.52,47.04,66.76,53,66.76z"/>
			</g>
			<path class="st3" d="M56.81,81.23c-0.23-0.23-0.53-0.35-0.91-0.35c-0.5,0-0.89,0.16-1.17,0.48c-0.54,0.6-0.47,1.56-0.46,1.68
				v0.15h-1.14h-0.27h-1.14v-0.15c0.01-0.12,0.08-1.07-0.46-1.68c-0.28-0.32-0.68-0.48-1.17-0.48c-0.38,0-0.68,0.12-0.91,0.35
				c-0.38,0.4-0.39,0.99-0.39,1.08c-0.01,0.08-0.02,0.52,0.29,0.86c0.24,0.26,0.59,0.39,1.05,0.39h1.2v9.29h0.39v-9.29h1.14h0.27
				h1.14v9.29h0.39v-9.29h1.2c0.46,0,0.82-0.13,1.05-0.39c0.31-0.34,0.3-0.77,0.29-0.86C57.2,82.22,57.19,81.63,56.81,81.23z
				 M51.33,83l0,0.18h-1.2c-0.35,0-0.6-0.09-0.76-0.26c-0.22-0.24-0.19-0.57-0.19-0.58l0-0.01l0-0.01c0,0-0.01-0.51,0.28-0.81
				c0.15-0.16,0.36-0.23,0.63-0.23c0.38,0,0.68,0.12,0.89,0.35C51.42,82.11,51.34,82.99,51.33,83z M56.62,82.91
				c-0.16,0.17-0.42,0.26-0.76,0.26h-1.2l0-0.18c0-0.01-0.08-0.89,0.37-1.39c0.21-0.23,0.51-0.35,0.89-0.35
				c0.27,0,0.48,0.08,0.63,0.23c0.29,0.3,0.28,0.81,0.28,0.81l0,0.01l0,0.01C56.81,82.34,56.84,82.67,56.62,82.91z"/>
		</g>
		<path class="st4" d="M59.33,83.01c0.19-1.55,0.37-2.96,0.33-4.32c-0.02-1.36-0.22-2.64-0.65-3.81c-0.43-1.16-1.08-2.2-1.98-3.11
			c-0.91-0.91-2.09-1.63-3.5-2.35c1.52-0.41,3.25-0.19,4.74,0.65c1.49,0.84,2.64,2.31,3.19,3.93c0.57,1.62,0.59,3.36,0.2,4.93
			c-0.41,1.57-1.16,3-2.26,4.11L59.33,83.01z"/>
	</g>
	<g>
		<path class="st1" d="M250.89,94.57l0.19,0c0.73,0,1.48,0.13,2.24,0.38c0.76,0.25,1.42,0.62,1.96,1.11l-1.79,1.99
			c-0.33-0.36-0.72-0.64-1.18-0.85c-0.46-0.21-0.94-0.32-1.44-0.32l-0.02,4.29l0.09,0.02c0.6,0.16,1.19,0.34,1.77,0.54
			c0.58,0.2,1.09,0.46,1.54,0.79c0.45,0.32,0.81,0.73,1.09,1.21c0.28,0.49,0.41,1.1,0.41,1.82c0,0.71-0.13,1.35-0.39,1.9
			c-0.26,0.55-0.61,1.02-1.06,1.41c-0.45,0.39-0.96,0.7-1.56,0.93c-0.59,0.23-1.23,0.37-1.92,0.44l-0.01,1.54l-1.16,0l0.01-1.52
			c-0.94,0.01-1.85-0.14-2.71-0.44c-0.86-0.3-1.62-0.8-2.28-1.49l1.96-1.99c0.34,0.49,0.78,0.86,1.32,1.12
			c0.54,0.26,1.11,0.42,1.71,0.48l0.02-4.52l-0.11-0.02c-0.6-0.17-1.17-0.37-1.71-0.57c-0.54-0.21-1.02-0.48-1.44-0.82
			c-0.42-0.34-0.75-0.75-0.99-1.23c-0.24-0.48-0.36-1.08-0.36-1.79c0-0.64,0.13-1.22,0.39-1.74c0.26-0.51,0.6-0.96,1.03-1.34
			c0.43-0.38,0.92-0.68,1.48-0.91c0.56-0.23,1.14-0.37,1.74-0.42l0.01-1.44l1.16,0L250.89,94.57z M249.73,96.93
			c-0.5,0.08-0.95,0.29-1.34,0.63c-0.39,0.33-0.59,0.77-0.59,1.32c0,0.33,0.05,0.59,0.16,0.79c0.11,0.2,0.25,0.37,0.42,0.52
			c0.17,0.14,0.37,0.26,0.61,0.36c0.24,0.1,0.48,0.2,0.74,0.31L249.73,96.93z M250.84,107.95c0.3-0.06,0.58-0.14,0.85-0.27
			c0.26-0.12,0.5-0.27,0.7-0.45c0.2-0.18,0.36-0.39,0.48-0.64c0.12-0.25,0.18-0.53,0.19-0.85c0-0.32-0.07-0.58-0.2-0.8
			c-0.14-0.21-0.31-0.39-0.52-0.54c-0.21-0.14-0.45-0.27-0.71-0.37c-0.26-0.1-0.51-0.19-0.77-0.28L250.84,107.95z"/>
	</g>
</g>
<g>
	<circle class="st1" cx="143.93" cy="130.69" r="86.01"/>
	<path class="st3" d="M143.93,218.39c-48.35,0-87.69-39.34-87.69-87.69S95.57,43,143.93,43s87.69,39.34,87.69,87.69
		S192.28,218.39,143.93,218.39z M143.93,46.38c-46.49,0-84.32,37.82-84.32,84.32c0,46.49,37.82,84.32,84.32,84.32
		c46.49,0,84.32-37.83,84.32-84.32C228.24,84.2,190.42,46.38,143.93,46.38z"/>
</g>
<g>
	<path class="st4" d="M22.36,199.03c84.51,10.47,194.65,7.4,243.83-0.51c-9.42,14.81-15.02,25.27-15.02,32.93s16.2,33.95,16.2,33.95
		c-78.04-9.96-85.98-8.17-121.32-8.17c-35.34,0-107.19,2.04-124.27,7.15c7.36-9.96,15.91-21.59,16.2-31.91
		C38.26,222.01,22.36,199.03,22.36,199.03z"/>
	<path class="st3" d="M16.58,268.04l3.58-4.84c6.92-9.36,15.53-21,15.8-30.78c0.23-8.05-10.93-26-15.25-32.24l-2.55-3.69l4.45,0.55
		c81.18,10.05,191.32,7.86,243.26-0.5l4.41-0.71l-2.4,3.77c-8.83,13.87-14.71,24.59-14.71,31.85c0,5.2,9.51,22.53,15.9,32.9
		l2.2,3.58l-4.17-0.53c-66.96-8.54-82.24-8.42-107.54-8.22c-4.15,0.03-8.57,0.07-13.53,0.07c-34.89,0-106.99,2.07-123.69,7.06
		L16.58,268.04z M170.12,255.11c19.91,0,39.02,0.92,93.39,7.79c-4.57-7.71-14.34-24.95-14.34-31.44c0-7.55,4.91-17.3,12.99-30.28
		c-52.84,7.7-156.88,9.61-235.71,0.37c4.54,7.05,13.78,22.5,13.54,30.99c-0.27,9.46-6.93,19.77-13.4,28.7
		c24.46-4.46,90.45-6,119.47-6c4.95,0,9.36-0.04,13.5-0.07C163.21,255.14,166.68,255.11,170.12,255.11z"/>
</g>
<g>
	<polyline class="st5" points="97.89,249.67 92.72,256.42 92.72,266.23 97.89,272.97 190.06,272.97 195.76,266.23 195.76,256.42 
		191.1,249.67 96.86,249.67 	"/>
	<g>
		<path class="st4" d="M106.71,257c-1.8,0.06-2.54,2.68-2.51,4.65c0,1.99,0.57,4.17,2.14,4.36c0.54,0.06,1.53-0.19,2.3-1.3
			l0.08,3.25c-0.88,0.48-1.76,0.63-2.41,0.63c-3.54,0.02-5.22-2.99-5.28-7.16c-0.08-3.83,1.47-7.41,5.61-7.39
			c0.79,0,1.68,0.23,2.33,0.82l-0.4,3.56C107.89,257.15,107.14,257,106.71,257z"/>
		<path class="st4" d="M109.84,261.32c0-3.48,1.3-7.29,5.36-7.27c4.04-0.02,5.34,3.79,5.32,7.27c0,3.52-1.22,7.29-5.32,7.27
			C111.09,268.61,109.88,264.84,109.84,261.32z M113.06,261.36c0,1.91,0.38,4.67,2.14,4.75c1.74-0.08,2.12-2.83,2.12-4.75
			c0-1.89-0.38-4.34-2.12-4.46C113.44,257.02,113.06,259.47,113.06,261.36z"/>
		<path class="st4" d="M127.4,267.66l-2.14-6.01v6.68h-3.02v-13.91h3.2l1.97,6.26l1.95-6.26h3.2v13.91h-3.02v-6.68L127.4,267.66z"/>
		<path class="st4" d="M139.72,267.66l-2.14-6.01v6.68h-3.02v-13.91h3.2l1.97,6.26l1.95-6.26h3.2v13.91h-3.02v-6.68L139.72,267.66z"
			/>
		<path class="st4" d="M146.94,254.41h3.12v13.91h-3.12V254.41z"/>
		<path class="st4" d="M151.74,257.04l0.21-2.62h8.13l0.25,2.62h-2.66v11.29h-3.14v-11.29H151.74z"/>
		<path class="st4" d="M161,257.04l0.21-2.62h8.13l0.25,2.62h-2.66v11.29h-3.14v-11.29H161z"/>
		<path class="st4" d="M171.12,268.32v-13.91h6.28v2.62h-3.21v3.04h3.06v2.49h-3.06v3.04h3.21v2.72H171.12z"/>
		<path class="st4" d="M179.11,268.32v-13.91h6.28v2.62h-3.21v3.04h3.06v2.49h-3.06v3.04h3.21v2.72H179.11z"/>
	</g>
</g>
<g>
	<path class="st3" d="M44.29,225.67h8.39v3.39h-4.46V233h4.26v3.22h-4.26v7.45h-3.93V225.67z"/>
	<path class="st3" d="M54.98,225.67h4.03v17.99h-4.03V225.67z"/>
	<path class="st3" d="M61.69,243.66v-17.99h3.34l3.79,8.84v-8.84h3.81v17.99h-3.17l-3.91-8.81v8.81H61.69z"/>
	<path class="st3" d="M79.19,240.25l-0.37,3.42h-4.21l3.19-17.99h6.29l3.19,17.99H83.2l-0.42-3.42H79.19z M80.67,229.08l-0.99,7.9
		h2.65l-1.04-7.9H80.67z"/>
	<path class="st3" d="M89.26,243.66v-17.99h3.34l3.79,8.84v-8.84h3.81v17.99h-3.17l-3.91-8.81v8.81H89.26z"/>
	<path class="st3" d="M109.75,229.01c-2.33,0.07-3.29,3.46-3.24,6.01c0,2.57,0.74,5.4,2.77,5.64c0.69,0.07,1.98-0.25,2.97-1.68
		l0.1,4.21c-1.14,0.62-2.28,0.82-3.12,0.82c-4.58,0.02-6.76-3.86-6.83-9.26c-0.1-4.95,1.91-9.58,7.25-9.55
		c1.01,0,2.18,0.3,3.02,1.06l-0.52,4.6C111.29,229.21,110.32,229.01,109.75,229.01z"/>
	<path class="st3" d="M114.9,243.66v-17.99h8.12v3.39h-4.16V233h3.96v3.22h-3.96v3.94h4.16v3.51H114.9z"/>
	<path class="st3" d="M143.76,243.86c-0.72-0.62-1.44-1.26-2.18-1.98c-1.06,1.19-2.6,1.88-4.16,2.05c-1.56,0.2-3.34,0-4.58-0.82
		c-1.09-0.77-1.88-1.93-2.15-3.37c-0.52-2.72,0.82-5.3,3.42-6.29c-0.89-0.99-1.48-2.47-1.39-3.98c0.22-3.02,2.62-4.46,5.32-4.26
		c2.87,0.2,4.43,2.23,4.23,5.12c-0.12,2.18-1.46,3.27-3.24,4.11c0.5,0.74,1.44,1.83,2.23,2.57c0.42-0.52,1.01-1.34,1.39-1.88
		l2.6,2.03c-0.45,0.62-1.09,1.46-1.58,2.08c0.79,0.79,1.61,1.56,2.35,2.2L143.76,243.86z M135.99,235.94
		c-1.19,0.35-1.83,1.41-1.81,2.65c0.08,1.41,1.11,2.2,2.45,2.2c0.96,0,2.05-0.4,2.57-1.21C138.07,238.59,136.98,237.3,135.99,235.94
		z M139.31,230.12c0.05-1.09-0.59-1.83-1.61-1.83c-1.24,0-1.73,0.79-1.66,1.88c0.07,0.89,0.52,1.93,1.19,2.35
		C138.44,232.25,139.28,231.24,139.31,230.12z"/>
	<path class="st3" d="M153.32,225.67c1.73-0.1,3.42-0.4,5.27-0.4c1.39,0,3.07,0.15,4.16,1.09c1.11,0.97,1.53,2.35,1.53,3.76
		c0,1.61-0.84,3.14-2.5,3.76c2.43,0.4,3.64,2.2,3.59,4.68c0,1.66-0.69,3.22-1.91,4.16s-3.04,1.19-5.57,1.04
		c-0.94-0.05-1.83-0.15-2.75-0.15c-0.62,0-1.24,0.02-1.83,0.05V225.67z M157.18,232.97c1.86,0.17,3.17,0.12,3.17-2.15
		c0-2.08-1.31-2.38-3.17-1.88V232.97z M157.18,240.3c2.52,0.57,3.69-0.27,3.66-2.13c-0.02-2.38-1.56-2.7-3.66-2.42V240.3z"/>
	<path class="st3" d="M167.5,238.71v-13.04h3.96v12.82c0.02,1.21,0.1,2.18,1.73,2.18s1.71-0.96,1.73-2.18v-12.82h3.96v13.04
		c0,3.66-2.03,5.3-5.69,5.3C169.58,244.01,167.5,242.38,167.5,238.71z"/>
	<path class="st3" d="M182.23,238.91c1.21,2.1,4.68,2.99,5.07,0.79c0.15-0.97-0.22-1.96-1.06-2.55c-1.66-1.14-4.01-0.99-4.9-3.49
		c-0.62-1.73-0.3-4.08,0.17-5.1c0.89-2,2.8-3.49,5.92-3.37c0.79,0.03,2.13,0.37,2.9,1.01l-0.57,4.63c-0.64-1.36-1.56-1.76-2.38-1.78
		c-1.41,0-2.28,0.92-2.38,2.28c-0.1,1.29,0.52,1.93,1.68,2.42c2.45,1.01,4.26,1.63,4.6,4.85c0.12,1.29-0.17,2.67-0.74,3.54
		c-0.94,1.44-2.67,1.86-4.23,1.86c-1.51,0-3.34-0.45-4.33-1.11L182.23,238.91z"/>
	<path class="st3" d="M193.51,225.67h4.03v17.99h-4.03V225.67z"/>
	<path class="st3" d="M200.22,243.66v-17.99h3.34l3.79,8.84v-8.84h3.81v17.99h-3.17l-3.91-8.81v8.81H200.22z"/>
	<path class="st3" d="M213.76,243.66v-17.99h8.12v3.39h-4.16V233h3.96v3.22h-3.96v3.94h4.16v3.51H213.76z"/>
	<path class="st3" d="M224.97,238.91c1.21,2.1,4.68,2.99,5.07,0.79c0.15-0.97-0.22-1.96-1.06-2.55c-1.66-1.14-4.01-0.99-4.9-3.49
		c-0.62-1.73-0.3-4.08,0.17-5.1c0.89-2,2.8-3.49,5.92-3.37c0.79,0.03,2.13,0.37,2.9,1.01l-0.57,4.63c-0.64-1.36-1.56-1.76-2.38-1.78
		c-1.41,0-2.28,0.92-2.38,2.28c-0.1,1.29,0.52,1.93,1.68,2.42c2.45,1.01,4.26,1.63,4.6,4.85c0.12,1.29-0.17,2.67-0.74,3.54
		c-0.94,1.44-2.67,1.86-4.23,1.86c-1.51,0-3.34-0.45-4.33-1.11L224.97,238.91z"/>
	<path class="st3" d="M236.23,238.91c1.21,2.1,4.68,2.99,5.07,0.79c0.15-0.97-0.22-1.96-1.06-2.55c-1.66-1.14-4.01-0.99-4.9-3.49
		c-0.62-1.73-0.3-4.08,0.17-5.1c0.89-2,2.8-3.49,5.92-3.37c0.79,0.03,2.13,0.37,2.9,1.01l-0.57,4.63c-0.64-1.36-1.56-1.76-2.38-1.78
		c-1.41,0-2.28,0.92-2.38,2.28c-0.1,1.29,0.52,1.93,1.68,2.42c2.45,1.01,4.26,1.63,4.6,4.85c0.12,1.29-0.17,2.67-0.74,3.54
		c-0.94,1.44-2.67,1.86-4.23,1.86c-1.51,0-3.34-0.45-4.33-1.11L236.23,238.91z"/>
</g>
<g>
	<path class="st3" d="M90.3,218.88v-4.75h1.44v4.66c0.01,0.44,0.04,0.79,0.63,0.79c0.59,0,0.62-0.35,0.63-0.79v-4.66h1.44v4.75
		c0,1.33-0.74,1.93-2.07,1.93C91.06,220.8,90.3,220.21,90.3,218.88z"/>
	<path class="st3" d="M97.96,215.35c-0.85,0.03-1.2,1.26-1.18,2.19c0,0.94,0.27,1.96,1.01,2.05c0.25,0.03,0.72-0.09,1.08-0.61
		l0.04,1.53c-0.41,0.23-0.83,0.3-1.13,0.3c-1.67,0.01-2.46-1.4-2.49-3.37c-0.04-1.8,0.69-3.48,2.64-3.48c0.37,0,0.79,0.11,1.1,0.39
		l-0.19,1.67C98.52,215.42,98.17,215.35,97.96,215.35z"/>
	<path class="st3" d="M100.1,218.95c0.44,0.77,1.7,1.09,1.85,0.29c0.05-0.35-0.08-0.71-0.39-0.93c-0.6-0.41-1.46-0.36-1.78-1.27
		c-0.22-0.63-0.11-1.49,0.06-1.85c0.32-0.73,1.02-1.27,2.15-1.22c0.29,0.01,0.77,0.13,1.05,0.37l-0.21,1.68
		c-0.23-0.5-0.57-0.64-0.86-0.65c-0.51,0-0.83,0.33-0.86,0.83c-0.04,0.47,0.19,0.7,0.61,0.88c0.89,0.37,1.55,0.59,1.67,1.76
		c0.04,0.47-0.06,0.97-0.27,1.29c-0.34,0.52-0.97,0.67-1.54,0.67c-0.55,0-1.21-0.16-1.58-0.41L100.1,218.95z"/>
	<path class="st3" d="M104.22,214.13c0.63-0.04,1.24-0.14,1.92-0.14c0.5,0,1.12,0.05,1.51,0.4c0.41,0.35,0.56,0.86,0.56,1.37
		c0,0.58-0.31,1.14-0.91,1.37c0.88,0.14,1.32,0.8,1.3,1.7c0,0.6-0.25,1.17-0.69,1.51c-0.44,0.34-1.11,0.43-2.03,0.38
		c-0.34-0.02-0.67-0.05-1-0.05c-0.23,0-0.45,0.01-0.67,0.02V214.13z M105.63,216.79c0.67,0.06,1.15,0.04,1.15-0.78
		c0-0.76-0.48-0.86-1.15-0.68V216.79z M105.63,219.45c0.92,0.21,1.34-0.1,1.33-0.77c-0.01-0.86-0.57-0.98-1.33-0.88V219.45z"/>
	<path class="st3" d="M112.94,219.44l-0.14,1.24h-1.53l1.16-6.54h2.29l1.16,6.54h-1.49l-0.15-1.24H112.94z M113.48,215.38
		l-0.36,2.87h0.96l-0.38-2.87H113.48z"/>
	<path class="st3" d="M116.66,218.95c0.44,0.77,1.7,1.09,1.85,0.29c0.05-0.35-0.08-0.71-0.39-0.93c-0.6-0.41-1.46-0.36-1.78-1.27
		c-0.22-0.63-0.11-1.49,0.06-1.85c0.32-0.73,1.02-1.27,2.15-1.22c0.29,0.01,0.77,0.13,1.05,0.37l-0.21,1.68
		c-0.23-0.5-0.57-0.64-0.86-0.65c-0.51,0-0.83,0.33-0.86,0.83c-0.04,0.47,0.19,0.7,0.61,0.88c0.89,0.37,1.55,0.59,1.67,1.76
		c0.04,0.47-0.06,0.97-0.27,1.29c-0.34,0.52-0.97,0.67-1.54,0.67c-0.55,0-1.21-0.16-1.58-0.41L116.66,218.95z"/>
	<path class="st3" d="M120.71,218.95c0.44,0.77,1.7,1.09,1.85,0.29c0.05-0.35-0.08-0.71-0.39-0.93c-0.6-0.41-1.46-0.36-1.78-1.27
		c-0.22-0.63-0.11-1.49,0.06-1.85c0.32-0.73,1.02-1.27,2.15-1.22c0.29,0.01,0.77,0.13,1.05,0.37l-0.21,1.68
		c-0.23-0.5-0.57-0.64-0.86-0.65c-0.51,0-0.83,0.33-0.86,0.83c-0.04,0.47,0.19,0.7,0.61,0.88c0.89,0.37,1.55,0.59,1.67,1.76
		c0.04,0.47-0.06,0.97-0.27,1.29c-0.34,0.52-0.97,0.67-1.54,0.67c-0.55,0-1.21-0.16-1.58-0.41L120.71,218.95z"/>
	<path class="st3" d="M124.51,217.38c0-1.64,0.61-3.43,2.52-3.42c1.9-0.01,2.51,1.78,2.5,3.42c0,1.66-0.58,3.43-2.5,3.42
		C125.09,220.81,124.53,219.04,124.51,217.38z M126.02,217.4c0,0.9,0.18,2.2,1.01,2.23c0.82-0.04,1-1.33,1-2.23
		c0-0.89-0.18-2.04-1-2.1C126.2,215.36,126.02,216.51,126.02,217.4z"/>
	<path class="st3" d="M132.85,215.35c-0.85,0.03-1.2,1.26-1.18,2.19c0,0.94,0.27,1.96,1.01,2.05c0.25,0.03,0.72-0.09,1.08-0.61
		l0.04,1.53c-0.41,0.23-0.83,0.3-1.13,0.3c-1.67,0.01-2.46-1.4-2.49-3.37c-0.04-1.8,0.69-3.48,2.64-3.48c0.37,0,0.79,0.11,1.1,0.39
		l-0.19,1.67C133.41,215.42,133.06,215.35,132.85,215.35z"/>
	<path class="st3" d="M134.8,214.13h1.47v6.54h-1.47V214.13z"/>
	<path class="st3" d="M138.72,219.44l-0.14,1.24h-1.53l1.16-6.54h2.29l1.16,6.54h-1.49l-0.15-1.24H138.72z M139.26,215.38
		l-0.36,2.87h0.96l-0.38-2.87H139.26z"/>
	<path class="st3" d="M141.64,215.37l0.1-1.23h3.83l0.12,1.23h-1.25v5.31h-1.48v-5.31H141.64z"/>
	<path class="st3" d="M146.44,220.68v-6.54h2.95v1.23h-1.51v1.43h1.44v1.17h-1.44v1.43h1.51v1.28H146.44z"/>
	<path class="st3" d="M150.25,214.13c0.55-0.02,1.14-0.16,2.03-0.14c0.78,0.01,1.58,0.37,1.93,1.12c0.43,0.93,0.42,3.38,0.04,4.32
		c-0.46,1.13-1.17,1.35-2.33,1.28c-0.34-0.03-0.67-0.05-1-0.05c-0.23,0-0.45,0.01-0.67,0.02V214.13z M152.78,219.2
		c0.29-0.67,0.29-1.94,0.25-2.56c-0.07-1.3-0.67-1.56-1.38-1.3v4.15C152.14,219.66,152.63,219.53,152.78,219.2z"/>
	<path class="st3" d="M157.73,218.95c0.44,0.77,1.7,1.09,1.85,0.29c0.05-0.35-0.08-0.71-0.39-0.93c-0.6-0.41-1.46-0.36-1.78-1.27
		c-0.22-0.63-0.11-1.49,0.06-1.85c0.32-0.73,1.02-1.27,2.15-1.22c0.29,0.01,0.77,0.13,1.05,0.37l-0.21,1.68
		c-0.23-0.5-0.57-0.64-0.86-0.65c-0.51,0-0.83,0.33-0.86,0.83c-0.04,0.47,0.19,0.7,0.61,0.88c0.89,0.37,1.55,0.59,1.67,1.76
		c0.04,0.47-0.06,0.97-0.27,1.29c-0.34,0.52-0.97,0.67-1.54,0.67c-0.55,0-1.21-0.16-1.58-0.41L157.73,218.95z"/>
	<path class="st3" d="M161.4,215.37l0.1-1.23h3.83l0.12,1.23h-1.25v5.31h-1.48v-5.31H161.4z"/>
	<path class="st3" d="M166.16,218.88v-4.75h1.44v4.66c0.01,0.44,0.04,0.79,0.63,0.79c0.59,0,0.62-0.35,0.63-0.79v-4.66h1.44v4.75
		c0,1.33-0.74,1.93-2.07,1.93C166.92,220.8,166.16,220.21,166.16,218.88z"/>
	<path class="st3" d="M171.25,214.13c0.55-0.02,1.14-0.16,2.03-0.14c0.78,0.01,1.58,0.37,1.93,1.12c0.43,0.93,0.42,3.38,0.04,4.32
		c-0.46,1.13-1.17,1.35-2.33,1.28c-0.34-0.03-0.67-0.05-1-0.05c-0.23,0-0.45,0.01-0.67,0.02V214.13z M173.78,219.2
		c0.29-0.67,0.29-1.94,0.25-2.56c-0.07-1.3-0.67-1.56-1.38-1.3v4.15C173.14,219.66,173.62,219.53,173.78,219.2z"/>
	<path class="st3" d="M176.34,220.68v-6.54h2.95v1.23h-1.51v1.43h1.44v1.17h-1.44v1.43h1.51v1.28H176.34z"/>
	<path class="st3" d="M180.33,220.68v-6.54h1.21l1.38,3.21v-3.21h1.39v6.54h-1.15l-1.42-3.21v3.21H180.33z"/>
	<path class="st3" d="M185.12,215.37l0.1-1.23h3.83l0.12,1.23h-1.25v5.31h-1.48v-5.31H185.12z"/>
	<path class="st3" d="M190.08,218.95c0.44,0.77,1.7,1.09,1.85,0.29c0.05-0.35-0.08-0.71-0.39-0.93c-0.6-0.41-1.46-0.36-1.78-1.27
		c-0.22-0.63-0.11-1.49,0.06-1.85c0.32-0.73,1.02-1.27,2.15-1.22c0.29,0.01,0.77,0.13,1.05,0.37l-0.21,1.68
		c-0.23-0.5-0.57-0.64-0.86-0.65c-0.51,0-0.83,0.33-0.86,0.83c-0.04,0.47,0.19,0.7,0.61,0.88c0.89,0.37,1.55,0.59,1.67,1.76
		c0.04,0.47-0.06,0.97-0.27,1.29c-0.34,0.52-0.97,0.67-1.54,0.67c-0.55,0-1.21-0.16-1.58-0.41L190.08,218.95z"/>
</g>
<g>
	<g>
		<path class="st3" d="M225.55,160.35c0.78-9.86,6.37-19.83,4.18-29.71c-0.54-2.46,0.17-4.5,1.49-5.96
			c-0.19-1.31-0.39-2.61-0.62-3.89c-2.02-11.4-5.91-22.06-10.15-32.74c-3.82,0.14-7.65,0.51-11.51,1.15
			c-0.32,0.05-0.61,0.13-0.88,0.22c-15.11,4.26-27.78,14.15-35.57,27.79c-0.2,0.34-0.35,0.69-0.47,1.02
			c-18.54-1.83-36.41,7.13-45.12,23.94c-0.42-2.98-1.02-5.91-1.72-8.82c-0.31-1.31-0.28-2.25-0.83-3.59
			c-0.59-1.43-1.12-2.88-1.58-4.35c-0.93-2.94-1.61-5.96-2.04-9.02c-1.7-12.1,1.94-22.87,4.28-34.56c0.13-0.67,0.42-1.17,0.78-1.55
			c0.12-0.4,0.2-0.79,0.23-1.17c0.02-0.07,0.04-0.15,0.06-0.22c0.06-0.18,0.12-0.36,0.18-0.54c8.94,1.71,18.51-3.1,24.91-9.66
			c4.12,0.88,8.34,1.21,12.55,0.91c0.92,1.37,2.37,2.36,4.08,2.38c1.41,0.35,2.94,0.2,4.26-0.59c2.11-1.25,3.44-4.15,2.57-6.55
			c-0.04-0.11-0.09-0.21-0.14-0.31c0.02-0.52,0.05-1.05,0.07-1.57c2.04-1.65,3.78-3.7,5.16-5.94c2.53-1.7,4.66-3.94,5.35-6.86
			c0.46-1.09,0.63-2.27,0.46-3.48c-0.12-0.83-0.37-1.56-0.75-2.31c-0.1-0.5-0.26-1.01-0.52-1.53c-5.45-10.96-18.63-24.76-32.1-19.07
			c-1.48-0.31-2.97-0.54-4.48-0.71c-1.55-0.3-3.24,0.02-4.74,1.29c-9.45,7.99-19,15.88-28.35,23.98
			C99.04,61.79,92,83.74,84.98,102.39c-5.14,13.67-10.63,40.22-11.65,55.75c-0.23,3.51-0.97,25.51,0.23,42.13
			c0.14,1.98,0.3,7.56,2.27,8.86c3.12,2.06,8.28,1.81,11.9,1.87c14.84,0.25,30.01-2.02,44.44-5.34c14.03-3.22,27.6-8.79,40.75-14.59
			c12.89-5.68,25.38-12.07,37.29-19.6c5.26-3.33,10.32-6.92,15.31-10.59C225.53,160.71,225.53,160.54,225.55,160.35z"/>
		<path class="st6" d="M226.42,154.73c-4.49,3.44-9.01,6.89-15.55,11.52c-11.03,7.81-26.06,16.34-38.42,21.79
			c-12.62,5.57-25.64,10.9-39.1,14c-13.85,3.18-28.4,5.36-42.64,5.12c-3.47-0.06-8.42,0.18-11.42-1.8c-1.89-1.24-2.04-6.6-2.17-8.5
			c-1.15-15.95-0.44-37.06-0.22-40.42c0.98-14.9,6.25-40.37,11.18-53.48c6.73-17.89,13.49-38.95,28.4-51.86
			c1.03-0.89,1.97-1.69,2.85-2.42c3.69-3.08,6.97-6.52,10.86-9.39c3.45-2.55,7.58-6.06,11.73-7.3c7.29-2.18,15.45,3.16,20.09,8.34
			c0.22,0.24,0.45,0.48,0.66,0.73c0.14,0.2,0.28,0.41,0.42,0.64c2.94,3.22,5.5,6.62,5.94,11.14c0.04,0.45-0.08,0.81-0.29,1.07
			c-0.44,1.27-1.64,2.4-2.96,3.4c-2.2,1.67-4.43,3.31-6.72,4.85c-1.66,1.12-3.01,1.99-5.01,1.49c-0.41-0.02-0.82-0.09-1.28-0.25
			c-0.06-0.02-0.1-0.06-0.15-0.09c-2.79-0.66-5.48-2.26-7.92-3.54c-0.13-0.07-0.23-0.15-0.31-0.24c-0.38-0.23-0.75-0.46-1.13-0.7
			c-0.03-0.01-0.06-0.02-0.1-0.04c-0.05-0.02-0.08-0.05-0.12-0.07c-0.37-0.07-0.67-0.56-0.34-0.94c0.66-0.74,1.45-1.3,2.32-1.67
			c0.08-0.1,0.19-0.19,0.33-0.26c3.14-1.63,6.76-1.13,9.2,1.35c0.8-1.23,1.62-2.45,2.49-3.64c-0.47-0.22-1.05-0.53-1.71-0.91
			c-2.89-0.07-5.75-0.78-7.23-3.35c-2.55,1.66-5.85,1.26-7.95-0.98c1.67,6.74,2.1,12.74-3.39,17.83
			c-5.47,5.06-11.67,5.48-18.45,4.88c-0.26-0.06-0.51-0.09-0.77-0.07c-0.94-0.09-1.9-0.2-2.86-0.32c-0.04,0.05-0.07,0.09-0.1,0.14
			c-0.12-0.02-0.24-0.03-0.36-0.03c0.59,1.75,1.64,3.25,3.14,4.44c0.51,0.41,1.14,0.84,1.79,1.2c0.03,0.01,0.06,0.03,0.09,0.04
			c1.26,0.35,2.57,0.43,3.9,0.44c0.14-0.02,0.28-0.03,0.42-0.05c-0.09,0.29-0.18,0.58-0.27,0.88c-3.36,10.95-6.65,21.68-6.51,33.29
			c0.05,3.9,0.51,7.8,1.52,11.57c0.93,3.49,2.85,6.55,3.86,9.94c2.04,6.87,2.13,13.98,1.64,21.08c-0.37,5.4-0.71,10.84-1.75,16.13
			c-0.67,1.95-1.13,3.99-1.39,6.03c4.46-2.91,6.43-7.7,7.97-12.78c1.78-5.88,3.58-12.23,2.71-18.43c-0.28-1.98,0.38-3.64,1.48-4.84
			c-0.06,0.01-0.13,0.02-0.19,0.03c1.06-1.55,2.14-3.09,3.22-4.63c12.87-14.74,34.56-17.71,50.9-6.97
			c-3.99-4.8-9.54-11.37-9.42-11.58c3.76-6.58,8.75-12.28,15.34-16.14c7.33-4.3,17.28-7.89,25.55-9.59c1.08-0.22,2.1-0.4,3.1-0.55
			c3.9,9.95,7.4,19.93,9.28,30.54c0.23,1.27,0.44,2.57,0.62,3.88c-1.32,1.46-2.04,3.5-1.49,5.96
			C231.5,138.65,228.17,146.71,226.42,154.73z M176.33,57.47c4.11-6.19-1.5-14.47-5.59-19.17c-4.82-5.54-12.06-10.62-19.54-11.3
			c-2.07,0.06-4.13,0.33-6.17,0.94c6.32,2.26,10.27,4.19,14.68,7.65c3.59,2.81,7.33,7.16,9.48,11.14c1.3,2.09,1.35,3.57,2.36,5.86
			c0.89,2.01-2.06,5.75-3.33,6.99c-1.28,1.26-2.73,2.35-4.23,3.33c-0.98,0.64-3.7,1.32-3.64,2.66c2.88,0.47,5.89-0.46,8.41-1.81
			C171.68,62.2,174.5,60.23,176.33,57.47z M178.45,45.2c0.84,1.2,1.44,2.47,1.96,3.91c0.27,0.75,0.5,1.54,0.82,2.27
			c0.37,0.03,0.74-0.12,0.96-0.54c1.86-3.6-0.53-7.64-2.4-10.71c-4.33-7.12-11.93-14.5-20.85-14.38c3.13,1.33,6.06,3.17,8.12,5.51
			c0.43,0.37,0.85,0.75,1.23,1.15c2.03,1.64,3.83,3.55,5.43,5.72C175.19,40.09,177.09,42.61,178.45,45.2z"/>
	</g>
	<g>
		<path class="st3" d="M221.76,171.13l-2.99-1.56c6.2-11.91,9.48-25.35,9.48-38.88c0-16.34-4.68-32.19-13.54-45.84l2.83-1.84
			c9.21,14.19,14.08,30.68,14.08,47.68C231.62,144.76,228.21,158.74,221.76,171.13z"/>
	</g>
</g>
</svg>
