<svg id="Layer_1" data-name="Layer 1" xmlns="http://www.w3.org/2000/svg" viewBox="0 0 385.08 63.18"><path d="M129,38.09l-.22.26a11.68,11.68,0,0,1-2.19,2.14,7.38,7.38,0,0,1-2.86,1.31,6.12,6.12,0,0,1-2.66,0,4.17,4.17,0,0,1-2.72-2,6.58,6.58,0,0,1-.83-2.28,13.42,13.42,0,0,1-.12-3.35,19.18,19.18,0,0,1,.87-4.49,18.42,18.42,0,0,1,3.43-6.28,12.53,12.53,0,0,1,3.42-2.9,8.39,8.39,0,0,1,2.87-1,5.84,5.84,0,0,1,2.53.08,5,5,0,0,1,2.19,1.29l.23.24c.1-.37.2-.72.3-1.07h3.51a.71.71,0,0,1,0,.17c-.92,3.21-1.71,6.44-2.46,9.69-.38,1.67-.77,3.34-1.22,5-.09.36-.18.72-.28,1.07a12.22,12.22,0,0,0-.36,1.88,19.3,19.3,0,0,0-.2,3.31,7.8,7.8,0,0,0,.56,2.7,3.86,3.86,0,0,0,.77,1.19,2.17,2.17,0,0,0,1.47.65,4.2,4.2,0,0,0,1.91-.39,7.4,7.4,0,0,0,1.72-1.1c.33-.28.66-.56,1-.82a4.36,4.36,0,0,1,2.21-.85,2.94,2.94,0,0,1,1.62.32,12.79,12.79,0,0,0,1.58.65,7.69,7.69,0,0,0,3,.39,4.51,4.51,0,0,0,2.68-1,1.86,1.86,0,0,0,.65-2c-.05-.24-.16-.47-.23-.71s-.17-.58-.23-.87a.78.78,0,0,1,.19-.7c.2-.22.4-.44.62-.65a3.27,3.27,0,0,0,.65-.82,1.49,1.49,0,0,0,.17-.78.72.72,0,0,0-.38-.57,1.4,1.4,0,0,0-.7-.17h-.62l-.27,0a.06.06,0,0,1,0,0l.18,0c.3-.06.6-.09.89-.17a2.7,2.7,0,0,0,1.23-.82.76.76,0,0,0,.12-.86,1.64,1.64,0,0,0-.35-.52l-.42-.41a.88.88,0,0,1,0-1.32,7.15,7.15,0,0,1,.73-.61c.32-.25.66-.48,1-.73a3.23,3.23,0,0,0,.68-.7.91.91,0,0,0,0-1.2,7.39,7.39,0,0,0-.67-.7,14.25,14.25,0,0,1-1.73-1.83,7.47,7.47,0,0,1-1.08-1.88,5.76,5.76,0,0,1-.32-1.75,18.93,18.93,0,0,1,0-2.13,5.93,5.93,0,0,0-.34-2.29,7.85,7.85,0,0,0-2.38-3.48,10.82,10.82,0,0,0-3.33-1.94A23.23,23.23,0,0,0,139.92,11a30.55,30.55,0,0,0-14.7,1.49,28,28,0,0,0-7.76,4.27,16.4,16.4,0,0,0-1.67,1.56,23.84,23.84,0,0,0-3.69,4.84,21.52,21.52,0,0,0-2.16,5.17c-.15.54-.3,1.09-.4,1.64a20.88,20.88,0,0,0-.33,4.93,18.49,18.49,0,0,0,1.61,6.66,18.83,18.83,0,0,0,5.57,7.06,23.88,23.88,0,0,0,4.79,3,24.35,24.35,0,0,0,6.25,1.87,24.94,24.94,0,0,0,4.65.28,27,27,0,0,0,3.82-.4,27.53,27.53,0,0,0,4.82-1.25c.62-.22,1.22-.49,1.83-.74l.12-.05c.26.74.52,1.46.77,2.2l-.1.06a29.48,29.48,0,0,1-8.2,3.24,27.73,27.73,0,0,1-4,.63,27.12,27.12,0,0,1-4.13,0,25,25,0,0,1-12.89-4.54,22.56,22.56,0,0,1-7.28-8.55,24.5,24.5,0,0,1-1.91-5.06,23.81,23.81,0,0,1-.66-7.38,25.7,25.7,0,0,1,1.47-7c.33-.91.66-1.82,1.07-2.7a24.62,24.62,0,0,1,6-8,28.94,28.94,0,0,1,9.5-5.66A30.85,30.85,0,0,1,128.78,7a35.45,35.45,0,0,1,6.09-.36,27.71,27.71,0,0,1,6.71,1.06,23.36,23.36,0,0,1,4.11,1.53,15.7,15.7,0,0,1,4.49,3.27,9.41,9.41,0,0,1,2.47,4.84,8.22,8.22,0,0,1,0,2.71,10.34,10.34,0,0,0-.14,1.92,5.33,5.33,0,0,0,1.36,3.44c.5.56,1,1.11,1.53,1.67l.8.85a.87.87,0,0,1,.2.87,2.49,2.49,0,0,1-.37.83,5.73,5.73,0,0,1-1.3,1.39,11.64,11.64,0,0,1-1,.71.49.49,0,0,0-.12.78,2.84,2.84,0,0,1,.45.64,1.68,1.68,0,0,1,.06,1.42,2.37,2.37,0,0,1-.44.73l-.3.34a.26.26,0,0,0,0,.28c.06.12.11.24.16.36a1.44,1.44,0,0,1,.06,1,2.9,2.9,0,0,1-.73,1.12l-.31.31a1.72,1.72,0,0,0-.38.82,1.16,1.16,0,0,0,.1.64c.07.18.16.36.23.53a3.82,3.82,0,0,1,.34,1.23,2.49,2.49,0,0,1-1.13,2.42,7,7,0,0,1-2.77,1.08,11.24,11.24,0,0,1-3,.09,20.68,20.68,0,0,1-2.47-.35,3.61,3.61,0,0,0-2.71.59,6.87,6.87,0,0,0-1.4,1.13,11.4,11.4,0,0,1-1.42,1.27,7,7,0,0,1-2.59,1.2,4.37,4.37,0,0,1-2.89-.33,5,5,0,0,1-1.67-1.33,7.31,7.31,0,0,1-1.43-2.85,16.35,16.35,0,0,1-.58-4.67,9.14,9.14,0,0,1,.25-2A.69.69,0,0,0,129,38.09Zm-7.69-1.61a9,9,0,0,0,.19,1.86,3.61,3.61,0,0,0,.62,1.47,1.68,1.68,0,0,0,1.7.67,3.85,3.85,0,0,0,1.49-.59,7.87,7.87,0,0,0,1.53-1.29,11.36,11.36,0,0,0,2.24-3.55,45.42,45.42,0,0,0,2.72-9.72,7.79,7.79,0,0,0,.06-2.26,4,4,0,0,0-.46-1.46A2.06,2.06,0,0,0,130,20.55a3.23,3.23,0,0,0-1.16,0,4.47,4.47,0,0,0-1.88.89,8.46,8.46,0,0,0-1.58,1.64,15.72,15.72,0,0,0-2,3.52,27.65,27.65,0,0,0-1.61,5.49,25.73,25.73,0,0,0-.46,4.38Z" style="fill:#f05e3e"/><path d="M40.18,13.94a2,2,0,0,1,.57,1.46,2,2,0,0,1-2,2H29.6V44.29a2.17,2.17,0,0,1-2.21,2.2,2.14,2.14,0,0,1-1.57-.63,2.17,2.17,0,0,1-.64-1.57V17.44H16a2,2,0,0,1-1.46-.57A2,2,0,0,1,14,15.4a2,2,0,0,1,2-2H38.71A2,2,0,0,1,40.18,13.94Z" style="fill:#fff"/><path d="M60.94,24.35a9.06,9.06,0,0,1,3.65,3.71,12.33,12.33,0,0,1,1.31,5.88V44.37a2.17,2.17,0,1,1-4.33,0V33.94a6.87,6.87,0,0,0-1.84-5.2A6.81,6.81,0,0,0,54.83,27a7.2,7.2,0,0,0-3.24.72,5.71,5.71,0,0,0-2.29,1.95,4.77,4.77,0,0,0-.83,2.76v12a2.17,2.17,0,0,1-.59,1.55,2.3,2.3,0,0,1-3.12,0,2.11,2.11,0,0,1-.62-1.55V15.53A2.23,2.23,0,0,1,47.88,14a2.15,2.15,0,0,1,.59,1.57V25.92a9.56,9.56,0,0,1,3.22-2.1,11.35,11.35,0,0,1,9.25.53Z" style="fill:#fff"/><path d="M92.33,35.87a2,2,0,0,1-1.4.53H74.81a7.46,7.46,0,0,0,2.69,4.79,8.66,8.66,0,0,0,8.1,1.36,7.89,7.89,0,0,0,2.27-1.15,2.2,2.2,0,0,1,1.4-.46,1.82,1.82,0,0,1,1.27.42,1.86,1.86,0,0,1,.77,1.44,1.53,1.53,0,0,1-.68,1.27A11.57,11.57,0,0,1,87,45.94a13,13,0,0,1-10.32-.78A11,11,0,0,1,72.41,41a11.89,11.89,0,0,1-1.55-6.07,12.46,12.46,0,0,1,1.47-6.08,10.48,10.48,0,0,1,4.07-4.2,11.56,11.56,0,0,1,5.92-1.51A10.7,10.7,0,0,1,88,24.56a9.54,9.54,0,0,1,3.64,4,13.3,13.3,0,0,1,1.28,5.94A1.82,1.82,0,0,1,92.33,35.87Zm-15-7.4A7.59,7.59,0,0,0,74.85,33H89a7.47,7.47,0,0,0-2.12-4.53,6.22,6.22,0,0,0-4.53-1.7A7.35,7.35,0,0,0,77.29,28.47Z" style="fill:#fff"/><path d="M187.68,13.93a16.94,16.94,0,0,1,4.77,2.8,2.08,2.08,0,0,1,.68.78,2.53,2.53,0,0,1,.17,1,1.81,1.81,0,0,1-.62,1.4,2,2,0,0,1-1.42.55,2.27,2.27,0,0,1-1.48-.55,12.2,12.2,0,0,0-3.4-2.14,11.69,11.69,0,0,0-4.28-.66A11.24,11.24,0,0,0,176,18.81a12.56,12.56,0,0,0-4.41,4.73,13.85,13.85,0,0,0,0,13A12.65,12.65,0,0,0,176,41.29,11.24,11.24,0,0,0,182.1,43a12.87,12.87,0,0,0,7.8-2.8,2.44,2.44,0,0,1,1.4-.51,1.76,1.76,0,0,1,1.34.57,2.26,2.26,0,0,1-.15,3.07,16.07,16.07,0,0,1-10.39,3.7,15.8,15.8,0,0,1-8.29-2.25,16.12,16.12,0,0,1-5.92-6.15,17.47,17.47,0,0,1-2.16-8.61,17.3,17.3,0,0,1,2.16-8.55,16.27,16.27,0,0,1,5.92-6.15,15.72,15.72,0,0,1,8.29-2.27A16.37,16.37,0,0,1,187.68,13.93Z" style="fill:#fff"/><path d="M213.55,24.77a10.73,10.73,0,0,1,4.15,4.17,12.2,12.2,0,0,1,1.51,6.11,12.29,12.29,0,0,1-1.48,6.07,10.64,10.64,0,0,1-4.14,4.17,12.9,12.9,0,0,1-12.11,0,10.63,10.63,0,0,1-4.16-4.17,12.29,12.29,0,0,1-1.48-6.07,12.39,12.39,0,0,1,1.48-6.11,10.63,10.63,0,0,1,4.16-4.17,12.07,12.07,0,0,1,6.07-1.51A11.89,11.89,0,0,1,213.55,24.77Zm-9.88,3.33a7,7,0,0,0-2.7,2.84,8.54,8.54,0,0,0-1,4.11,8.44,8.44,0,0,0,1,4.09,7.14,7.14,0,0,0,2.7,2.83,8,8,0,0,0,7.76,0,7.07,7.07,0,0,0,2.67-2.83,8.54,8.54,0,0,0,1-4.09,8.65,8.65,0,0,0-1-4.11,7,7,0,0,0-2.67-2.84,7.89,7.89,0,0,0-7.76,0Z" style="fill:#fff"/><path d="M254.94,25.64a9.43,9.43,0,0,1,2.27,6.74V44.51a2.17,2.17,0,0,1-.59,1.55,2.17,2.17,0,0,1-3.73-1.55V32.38a5.39,5.39,0,0,0-1.3-3.92,4.58,4.58,0,0,0-3.45-1.34,4.74,4.74,0,0,0-3.63,1.53,5.49,5.49,0,0,0-1.42,3.9v12a2.17,2.17,0,0,1-.59,1.55,2.3,2.3,0,0,1-3.12,0,2.11,2.11,0,0,1-.62-1.55V32.38a5.43,5.43,0,0,0-1.29-3.92A4.6,4.6,0,0,0,234,27.12a4.78,4.78,0,0,0-3.67,1.53,5.54,5.54,0,0,0-1.42,3.9v12a2.17,2.17,0,0,1-.59,1.55,2.17,2.17,0,0,1-3.73-1.55V25.64a2.07,2.07,0,0,1,.61-1.57,2.13,2.13,0,0,1,1.55-.6,2.1,2.1,0,0,1,1.53.58,2.15,2.15,0,0,1,.63,1.5,7.9,7.9,0,0,1,2.63-1.72,8.78,8.78,0,0,1,3.31-.61,8.46,8.46,0,0,1,3.88.87,7.32,7.32,0,0,1,2.82,2.48,8.79,8.79,0,0,1,3.18-2.46,10,10,0,0,1,4.24-.89A7.76,7.76,0,0,1,254.94,25.64Z" style="fill:#fff"/><path d="M280.94,24.81a11,11,0,0,1,4.22,4.24,12,12,0,0,1,1.53,6,12.59,12.59,0,0,1-1.42,6,10.67,10.67,0,0,1-3.9,4.22,10.57,10.57,0,0,1-13.72-2.33V54.39A2.2,2.2,0,0,1,263.94,56a2.08,2.08,0,0,1-.62-1.57V35.05a11.87,11.87,0,0,1,1.55-6,11.32,11.32,0,0,1,4.2-4.24A11.51,11.51,0,0,1,275,23.26,11.75,11.75,0,0,1,280.94,24.81Zm-2.12,17.13a7.5,7.5,0,0,0,2.72-2.84,8.26,8.26,0,0,0,1-4.05,8.4,8.4,0,0,0-1-4.07,7.42,7.42,0,0,0-2.72-2.86A7.4,7.4,0,0,0,268.45,31a8.5,8.5,0,0,0-1,4.07,8.36,8.36,0,0,0,1,4.05,7.3,7.3,0,0,0,2.7,2.84,7.59,7.59,0,0,0,7.67,0Z" style="fill:#fff"/><path d="M308.51,24.81a11.32,11.32,0,0,1,4.2,4.24,11.87,11.87,0,0,1,1.55,6v9.46a2.11,2.11,0,0,1-.62,1.55,2.26,2.26,0,0,1-3.09,0,2.11,2.11,0,0,1-.62-1.55V42.94a10.67,10.67,0,0,1-13.72,2.33,10.67,10.67,0,0,1-3.9-4.22,12.59,12.59,0,0,1-1.42-6,12,12,0,0,1,1.53-6,11,11,0,0,1,4.22-4.24,11.74,11.74,0,0,1,5.95-1.55A11.55,11.55,0,0,1,308.51,24.81Zm-2.08,17.13a7.3,7.3,0,0,0,2.7-2.84,8.36,8.36,0,0,0,1-4.05,8.5,8.5,0,0,0-1-4.07,7.48,7.48,0,0,0-10.37-2.86A7.42,7.42,0,0,0,296,31a8.4,8.4,0,0,0-1,4.07,8.26,8.26,0,0,0,1,4.05,7.5,7.5,0,0,0,2.72,2.84,7.59,7.59,0,0,0,7.67,0Z" style="fill:#fff"/><path d="M336.44,24.49a9,9,0,0,1,3.65,3.71,12.33,12.33,0,0,1,1.31,5.88V44.51a2.16,2.16,0,1,1-4.32,0V34.08a6.86,6.86,0,0,0-1.85-5.2,6.81,6.81,0,0,0-4.9-1.76,7.24,7.24,0,0,0-3.24.72,5.71,5.71,0,0,0-2.29,1.95,4.85,4.85,0,0,0-.83,2.76v12a2.17,2.17,0,0,1-.59,1.55,2.3,2.3,0,0,1-3.12,0,2.11,2.11,0,0,1-.62-1.55V25.59a2.09,2.09,0,0,1,.62-1.57A2.15,2.15,0,0,1,324,25.59v.47a9.65,9.65,0,0,1,3.22-2.1,11.35,11.35,0,0,1,9.25.53Z" style="fill:#fff"/><path d="M366.55,25.3a2.6,2.6,0,0,1-.25,1l-13,29.19a1.74,1.74,0,0,1-1.65,1.31,2.6,2.6,0,0,1-1-.25,1.78,1.78,0,0,1-1.27-1.66,2.26,2.26,0,0,1,.25-1l4.24-9.54-9.54-18.11a1.8,1.8,0,0,1-.21-.89,1.67,1.67,0,0,1,.34-1,2.19,2.19,0,0,1,.89-.72,2.08,2.08,0,0,1,.85-.17A1.91,1.91,0,0,1,348,24.62l7.76,15.44,6.83-15.4a1.77,1.77,0,0,1,1.65-1.23,2.45,2.45,0,0,1,1,.21A1.73,1.73,0,0,1,366.55,25.3Z" style="fill:#fff"/></svg>