<svg xmlns="http://www.w3.org/2000/svg" viewBox="0 0 537.4478 99.5895">
  <g id="full-rgb">
    <path id="logoMark" d="M90.3747,99.59l-21.13-32.014h30.344V55.4976H0V67.59H30.3341L9.2142,99.59H24.9708L49.7945,61.9784,74.6181,99.59ZM99.5889,43.775v-12.2H69.8612L90.7007,0H74.9442l-25.15,38.1051L24.6447,0H8.8882L29.7544,31.6033H0V43.775Z"/>
    <g id="type">
      <path id="type_CompoundPathItem_" data-name="type &lt;CompoundPathItem&gt;" d="M160.651,64.68a17.4988,17.4988,0,0,0,6.4179,12.6464q5.7817,4.7652,15.0606,4.7657,8.1327,0,13.1543-3.4951a11.19,11.19,0,0,0,5.02-9.7227,9.2932,9.2932,0,0,0-2.7325-7.0537,18.0647,18.0647,0,0,0-7.4355-4.0034,128.8966,128.8966,0,0,0-13.2178-2.9234A74.8243,74.8243,0,0,1,162.1129,50.89a23.2631,23.2631,0,0,1-10.0411-7.562q-3.8774-5.0815-3.8759-13.3447a23.8641,23.8641,0,0,1,4.0029-13.5991,26.3636,26.3636,0,0,1,11.1846-9.2779,42.5862,42.5862,0,0,1,33.4892.2544,29.3589,29.3589,0,0,1,11.8194,9.7861,26.6852,26.6852,0,0,1,4.7031,14.2344H199.0328A15.8867,15.8867,0,0,0,193.06,20.3244q-5.2134-4.1939-13.2177-4.1943-7.7535,0-12.3916,3.3681a11.0189,11.0189,0,0,0-4.64,9.4688,8.9125,8.9125,0,0,0,2.7334,6.8628,17.3056,17.3056,0,0,0,7.3076,3.813q4.5747,1.2714,13.0908,2.7959a73.3873,73.3873,0,0,1,14.8692,4.0668,24.6055,24.6055,0,0,1,10.168,7.4986q3.9375,4.957,3.9394,13.0908a24.667,24.667,0,0,1-4.1934,14.1074,27.9431,27.9431,0,0,1-11.6933,9.7227,39.8475,39.8475,0,0,1-17.03,3.4951,42.6921,42.6921,0,0,1-18.5557-3.8125,30.22,30.22,0,0,1-12.5185-10.6123A28.2567,28.2567,0,0,1,146.29,64.426Z"/>
      <path id="type_CompoundPathItem_2" data-name="type &lt;CompoundPathItem&gt;" d="M230.5513,40.6594H219.24V28.5856h11.3115V10.4113h13.8526V28.5856h15.6338V40.6594H244.4039V74.5939q0,3.813,1.5254,5.4014,1.5249,1.5907,5.2109,1.5889h10.4209V93.6574H248.3443q-9.28,0-13.5361-4.3213-4.2584-4.3183-4.2569-13.3447Z"/>
      <path id="type_CompoundPathItem_3" data-name="type &lt;CompoundPathItem&gt;" d="M332.7017,28.5856V93.6574H320.6275l-1.5244-9.9131a25.78,25.78,0,0,1-8.7695,7.7529A25.5127,25.5127,0,0,1,297.8785,94.42a31.383,31.383,0,0,1-15.8867-4.0029,27.7244,27.7244,0,0,1-10.9307-11.5664,37.8483,37.8483,0,0,1-3.9394-17.73,36.7984,36.7984,0,0,1,4.0029-17.4751,29.02,29.02,0,0,1,10.9941-11.6929,30.396,30.396,0,0,1,15.76-4.13,27.2879,27.2879,0,0,1,12.582,2.7325,22.9966,22.9966,0,0,1,8.6426,7.562l1.6523-9.5318Zm-18.81,48.2954q5.2089-5.9721,5.2109-15.5048,0-9.6577-5.2109-15.76a18.5569,18.5569,0,0,0-27.4522-.0635q-5.2134,6.0381-5.2109,15.5689,0,9.6606,5.2109,15.6963a18.6892,18.6892,0,0,0,27.4522.0634Z"/>
      <path id="type_CompoundPathItem_4" data-name="type &lt;CompoundPathItem&gt;" d="M396.3746,88.0021q-7.8809,6.419-20.207,6.418a34.2343,34.2343,0,0,1-17.0313-4.1309,28.1712,28.1712,0,0,1-11.375-11.7558,37.1789,37.1789,0,0,1-4.0029-17.5391,35.9518,35.9518,0,0,1,4.0664-17.4116,28.6855,28.6855,0,0,1,11.5029-11.6294,34.8829,34.8829,0,0,1,17.2207-4.13q12.2007,0,19.9541,6.418,7.7505,6.42,9.6592,17.4756H392.0543a15.8586,15.8586,0,0,0-5.5928-8.8965,16.1239,16.1239,0,0,0-10.2939-3.3047,16.4886,16.4886,0,0,0-13.2813,5.9736q-5.0229,5.9751-5.0205,15.5054,0,9.6606,5.0205,15.6963a17.8655,17.8655,0,0,0,23.83,2.669,15.5869,15.5869,0,0,0,5.4648-9.087h13.9805Q404.2545,81.5856,396.3746,88.0021Z"/>
      <path id="type_CompoundPathItem_5" data-name="type &lt;CompoundPathItem&gt;" d="M417.2174,4.6921h13.7255v55.667l29.74-31.7735H476.57L452.2945,54.7668l25.8008,38.8906H461.8267l-19.3183-28.85-11.5655,12.2V93.6574H417.2174Z"/>
      <path id="type_CompoundPathItem_6" data-name="type &lt;CompoundPathItem&gt;" d="M493.8551,72.1789a11.022,11.022,0,0,0,4.7656,8.3242q4.3857,3.2416,11.375,3.2412A19.2748,19.2748,0,0,0,520.1,81.3928q3.8745-2.35,3.8759-6.2911a6.4449,6.4449,0,0,0-1.7793-4.956,10.3324,10.3324,0,0,0-4.7656-2.3516q-2.9883-.6972-9.2148-1.4619A80.6651,80.6651,0,0,1,494.1724,63.6a19.3553,19.3553,0,0,1-8.8964-5.4649q-3.3692-3.7477-3.3682-10.104a17.5991,17.5991,0,0,1,3.3682-10.6123,21.8005,21.8005,0,0,1,9.2783-7.1811,33.6412,33.6412,0,0,1,13.4082-2.5415q12.3266,0,20.0176,5.4648a19.4184,19.4184,0,0,1,8.3242,15.3784H522.96a10.2147,10.2147,0,0,0-4.4482-7.3081,16.4431,16.4431,0,0,0-9.9131-2.8593,18.1061,18.1061,0,0,0-9.6592,2.2876,7.018,7.018,0,0,0-3.6855,6.2275,5.2509,5.2509,0,0,0,1.8428,4.3848,10.8086,10.8086,0,0,0,4.6386,2.0337q2.7935.572,9.0235,1.3344a71.327,71.327,0,0,1,14.1074,2.7324,19.6726,19.6726,0,0,1,9.15,5.8467q3.4321,4.0035,3.4316,10.8662a17.159,17.159,0,0,1-3.5586,10.7393,22.4605,22.4605,0,0,1-9.7861,7.1172A37.5319,37.5319,0,0,1,510.1226,94.42q-13.0912,0-21.1611-5.91t-8.3242-16.331Z"/>
    </g>
  </g>
</svg>
