<?xml version="1.0" encoding="UTF-8"?>
<svg width="194px" height="63px" viewBox="0 0 194 63" version="1.1" xmlns="http://www.w3.org/2000/svg" xmlns:xlink="http://www.w3.org/1999/xlink">
    <!-- Generator: Sketch 63.1 (92452) - https://sketch.com -->
    <title>teladochealth_logo_plum+aqua_rgb</title>
    <desc>Created with Sketch.</desc>
    <g id="Page-1" stroke="none" stroke-width="1" fill="none" fill-rule="evenodd">
        <g id="teladochealth_logo_plum+aqua_rgb" fill-rule="nonzero">
            <path d="M103.07,62.69 L103.07,47.44 L105.55,47.44 L105.55,53.7 L112.55,53.7 L112.55,47.44 L115.04,47.44 L115.04,62.69 L112.55,62.69 L112.55,56 L105.55,56 L105.55,62.65 L103.07,62.69 Z M120.8,60.35 L120.8,56 L126.27,56 L126.27,53.7 L120.8,53.7 L120.8,49.78 L127.17,49.78 L127.17,47.44 L118.31,47.44 L118.31,62.69 L127.41,62.69 L127.41,60.35 L120.8,60.35 Z M148.68,60.35 L148.68,47.44 L146.2,47.44 L146.2,62.69 L155,62.69 L155,60.35 L148.68,60.35 Z M170.68,62.69 L170.68,56 L177.68,56 L177.68,62.65 L180.17,62.65 L180.17,47.44 L177.68,47.44 L177.68,53.7 L170.68,53.7 L170.68,47.44 L168.19,47.44 L168.19,62.69 L170.68,62.69 Z M158.78,62.69 L161.28,62.69 L161.28,49.78 L165.76,49.78 L165.76,47.44 L154.33,47.44 L154.33,49.78 L158.81,49.78 L158.78,62.69 Z M133.11,59.34 L131.8,62.69 L129.11,62.69 L135.24,47.44 L137.58,47.44 L143.72,62.69 L141.03,62.69 L139.72,59.34 L133.11,59.34 Z M138.85,57 L136.44,50.83 L134,57 L138.85,57 Z M141.65,9.4 C142.812123,10.0719868 143.527827,11.3125779 143.527827,12.655 C143.527827,13.9974221 142.812123,15.2380132 141.65,15.91 C144.251947,15.8123679 146.699139,17.1448147 148.029116,19.3833013 C149.359093,21.6217879 149.359093,24.4082121 148.029116,26.6466987 C146.699139,28.8851853 144.251947,30.2176321 141.65,30.12 C140.487877,30.7919868 139.772173,32.0325779 139.772173,33.375 C139.772173,34.7174221 140.487877,35.9580132 141.65,36.63 C149.025682,36.4300906 154.900981,30.3933909 154.900981,23.015 C154.900981,15.6366091 149.025682,9.59990941 141.65,9.4 L141.65,9.4 Z" id="Shape" fill="#00B5E2"></path>
            <path d="M17.79,36 L10.64,36 L10.64,6.44 L0,6.44 L0,0 L28.33,0 L28.33,6.44 L17.79,6.44 L17.79,36 Z M62.31,0 L55.48,0 L55.48,36 L62.31,36 L62.31,0 Z M172.54,30.15 C169.204026,30.1533284 166.314321,27.8368809 165.591712,24.5801076 C164.869103,21.3233343 166.507926,18.0021023 169.532258,16.5942134 C172.55659,15.1863244 176.153076,16.0704121 178.18,18.72 L183.34,14.72 C179.789752,10.0876115 173.682634,8.23210719 168.155445,10.10653 C162.628255,11.9809528 158.909673,17.1686243 158.909673,23.005 C158.909673,28.8413757 162.628255,34.0290472 168.155445,35.90347 C173.682634,37.7778928 179.789752,35.9223885 183.34,31.29 L178.18,27.29 C176.851772,29.0741459 174.764201,30.1327371 172.54,30.15 Z M124.370012,0 L124.370012,23 C124.378242,29.2087651 120.192396,34.6397125 114.186254,36.2129541 C108.180112,37.7861956 101.86931,35.1047273 98.8327014,29.6892088 C95.7960928,24.2736903 96.799959,17.4907155 101.275008,13.1869067 C105.750057,8.88309796 112.56702,8.14451174 117.86,11.39 L117.86,0 L124.370012,0 Z M117.860007,23 C117.864044,20.1224574 116.133233,17.5261942 113.475502,16.4231372 C110.817771,15.3200803 107.75721,15.9277459 105.722478,17.9624778 C103.687746,19.9972097 103.08008,23.0577709 104.183137,25.7155017 C105.286194,28.3732325 107.882457,30.1040443 110.76,30.1000071 C114.661778,30.1000071 117.832523,26.9516815 117.860007,23.05 L117.860007,23 Z M141.65,36.61 C140.487877,35.9380132 139.772173,34.6974221 139.772173,33.355 C139.772173,32.0125779 140.487877,30.7719868 141.65,30.1 C139.048053,30.1976321 136.600861,28.8651853 135.270884,26.6266987 C133.940907,24.3882121 133.940907,21.6017879 135.270884,19.3633013 C136.600861,17.1248147 139.048053,15.7923679 141.65,15.89 C142.812123,15.2180132 143.527827,13.9774221 143.527827,12.635 C143.527827,11.2925779 142.812123,10.0519868 141.65,9.38 C134.274318,9.57990941 128.399019,15.6166091 128.399019,22.995 C128.399019,30.3733909 134.274318,36.4100906 141.65,36.61 Z M79.86,9.42996688 C72.4843178,9.62990941 66.609019,15.6666091 66.609019,23.045 C66.609019,30.4233909 72.4843178,36.4600906 79.86,36.66 C82.438472,36.6528005 84.9446039,35.8068933 87,34.25 L87,36.33 L93.5000037,36.33 L93.5000037,23.05 C93.5026661,19.4334672 92.0658148,15.9645842 89.5066637,13.4091855 C86.9475126,10.8537869 83.476525,9.42202723 79.86,9.42996688 L79.86,9.42996688 Z M79.86,30.15 C76.983364,30.15 74.3901696,28.4166173 73.2902652,25.7585645 C72.1903608,23.1005116 72.8004973,20.0415909 74.8360171,18.008934 C76.8715368,15.9762772 79.9313133,15.3704466 82.5878154,16.474091 C85.2443176,17.5777354 86.9740459,20.1733669 86.9700071,23.05 C86.9644826,26.9728388 83.7828426,30.15 79.86,30.15 L79.86,30.15 Z M186.86,36 L187.41,36 L187.41,32.52 L188.7,32.52 L188.7,32 L185.57,32 L185.57,32.49 L186.86,32.49 L186.86,36 Z M191.41,35.52 L192.78,33.12 L192.78,36 L193.3,36 L193.3,32 L192.86,32 L191.28,34.79 L189.7,32 L189.25,32 L189.25,36 L189.77,36 L189.77,33.12 L191.14,35.52 L191.41,35.52 Z M30.94,25.65 C31.8831314,28.1938242 34.1345651,30.0238426 36.8174275,30.4273118 C39.50029,30.8307811 42.1903879,29.7439077 43.84,27.59 L48.72,31.33 C44.6601096,36.6109904 37.3744206,38.17742 31.5027836,35.0317167 C25.6311466,31.8860134 22.8991748,24.9526667 25.0467092,18.6471401 C27.1942436,12.3416135 33.5901463,8.51703564 40.161222,9.60906781 C46.7322977,10.7011 51.5473756,16.3888052 51.5400085,23.05 C51.5378728,23.9225637 51.4541753,24.7930178 51.29,25.65 L30.94,25.65 Z M30.94,20.44 L44.94,20.44 C43.859486,17.5073152 41.0654041,15.5590696 37.94,15.5590696 C34.8145959,15.5590696 32.020514,17.5073152 30.94,20.44 Z" id="Shape" fill="#351F65"></path>
        </g>
    </g>
</svg>